%TF.GenerationSoftware,KiCad,Pcbnew,7.0.11+1*%
%TF.CreationDate,2024-06-09T21:21:38+01:00*%
%TF.ProjectId,crowland-green,63726f77-6c61-46e6-942d-677265656e2e,Rev 1*%
%TF.SameCoordinates,Original*%
%TF.FileFunction,Copper,L2,Bot*%
%TF.FilePolarity,Positive*%
%FSLAX46Y46*%
G04 Gerber Fmt 4.6, Leading zero omitted, Abs format (unit mm)*
G04 Created by KiCad (PCBNEW 7.0.11+1) date 2024-06-09 21:21:38*
%MOMM*%
%LPD*%
G01*
G04 APERTURE LIST*
%TA.AperFunction,ComponentPad*%
%ADD10R,1.700000X1.700000*%
%TD*%
%TA.AperFunction,ComponentPad*%
%ADD11O,1.700000X1.700000*%
%TD*%
%TA.AperFunction,ViaPad*%
%ADD12C,0.600000*%
%TD*%
%TA.AperFunction,Conductor*%
%ADD13C,0.300000*%
%TD*%
G04 APERTURE END LIST*
D10*
%TO.P,J1,1,Pin_1*%
%TO.N,/Point1/SW_L*%
X34290000Y-45720000D03*
D11*
%TO.P,J1,2,Pin_2*%
%TO.N,/Point1/SW_R*%
X36830000Y-45720000D03*
%TO.P,J1,3,Pin_3*%
%TO.N,/Point1/LED_L*%
X39370000Y-45720000D03*
%TO.P,J1,4,Pin_4*%
%TO.N,/Point1/LED_C*%
X41910000Y-45720000D03*
%TO.P,J1,5,Pin_5*%
%TO.N,/Point1/LED_R*%
X44450000Y-45720000D03*
%TD*%
D10*
%TO.P,J5,1,Pin_1*%
%TO.N,/Point5/SW_L*%
X105410000Y-45720000D03*
D11*
%TO.P,J5,2,Pin_2*%
%TO.N,/Point5/SW_R*%
X107950000Y-45720000D03*
%TO.P,J5,3,Pin_3*%
%TO.N,/Point5/LED_L*%
X110490000Y-45720000D03*
%TO.P,J5,4,Pin_4*%
%TO.N,/Point5/LED_C*%
X113030000Y-45720000D03*
%TO.P,J5,5,Pin_5*%
%TO.N,/Point5/LED_R*%
X115570000Y-45720000D03*
%TD*%
D10*
%TO.P,J4,1,Pin_1*%
%TO.N,/Point4/SW_L*%
X87630000Y-45720000D03*
D11*
%TO.P,J4,2,Pin_2*%
%TO.N,/Point4/SW_R*%
X90170000Y-45720000D03*
%TO.P,J4,3,Pin_3*%
%TO.N,/Point4/LED_L*%
X92710000Y-45720000D03*
%TO.P,J4,4,Pin_4*%
%TO.N,/Point4/LED_C*%
X95250000Y-45720000D03*
%TO.P,J4,5,Pin_5*%
%TO.N,/Point4/LED_R*%
X97790000Y-45720000D03*
%TD*%
D10*
%TO.P,J6,1,Pin_1*%
%TO.N,/Point6/SW_L*%
X123190000Y-45720000D03*
D11*
%TO.P,J6,2,Pin_2*%
%TO.N,/Point6/SW_R*%
X125730000Y-45720000D03*
%TO.P,J6,3,Pin_3*%
%TO.N,/Point6/LED_L*%
X128270000Y-45720000D03*
%TO.P,J6,4,Pin_4*%
%TO.N,/Point6/LED_C*%
X130810000Y-45720000D03*
%TO.P,J6,5,Pin_5*%
%TO.N,/Point6/LED_R*%
X133350000Y-45720000D03*
%TD*%
D10*
%TO.P,J7,1,Pin_1*%
%TO.N,/Point7/SW_L*%
X140970000Y-45720000D03*
D11*
%TO.P,J7,2,Pin_2*%
%TO.N,/Point7/SW_R*%
X143510000Y-45720000D03*
%TO.P,J7,3,Pin_3*%
%TO.N,/Point7/LED_L*%
X146050000Y-45720000D03*
%TO.P,J7,4,Pin_4*%
%TO.N,/Point7/LED_C*%
X148590000Y-45720000D03*
%TO.P,J7,5,Pin_5*%
%TO.N,/Point7/LED_R*%
X151130000Y-45720000D03*
%TD*%
D10*
%TO.P,J2,1,Pin_1*%
%TO.N,/Point2/SW_L*%
X52070000Y-45720000D03*
D11*
%TO.P,J2,2,Pin_2*%
%TO.N,/Point2/SW_R*%
X54610000Y-45720000D03*
%TO.P,J2,3,Pin_3*%
%TO.N,/Point2/LED_L*%
X57150000Y-45720000D03*
%TO.P,J2,4,Pin_4*%
%TO.N,/Point2/LED_C*%
X59690000Y-45720000D03*
%TO.P,J2,5,Pin_5*%
%TO.N,/Point2/LED_R*%
X62230000Y-45720000D03*
%TD*%
D10*
%TO.P,J3,1,Pin_1*%
%TO.N,/Point3/SW_L*%
X69850000Y-45720000D03*
D11*
%TO.P,J3,2,Pin_2*%
%TO.N,/Point3/SW_R*%
X72390000Y-45720000D03*
%TO.P,J3,3,Pin_3*%
%TO.N,/Point3/LED_L*%
X74930000Y-45720000D03*
%TO.P,J3,4,Pin_4*%
%TO.N,/Point3/LED_C*%
X77470000Y-45720000D03*
%TO.P,J3,5,Pin_5*%
%TO.N,/Point3/LED_R*%
X80010000Y-45720000D03*
%TD*%
D12*
%TO.N,/Point1/LED_R*%
X72390000Y-57785000D03*
%TO.N,Net-(D1-A)*%
X45085000Y-50165000D03*
X74930000Y-57785000D03*
X74930000Y-64135000D03*
%TO.N,/Point1/LED_L*%
X72390000Y-64135000D03*
%TO.N,/Point2/LED_R*%
X90170000Y-66675000D03*
%TO.N,Net-(D3-A)*%
X92710000Y-70485000D03*
X62865000Y-50165000D03*
X92710000Y-66675000D03*
%TO.N,/Point2/LED_L*%
X90170000Y-70485000D03*
%TO.N,/Point3/LED_R*%
X102870000Y-73025000D03*
%TO.N,Net-(D5-A)*%
X80645000Y-50165000D03*
X105410000Y-76835000D03*
X105410000Y-73025000D03*
%TO.N,/Point3/LED_L*%
X102870000Y-76835000D03*
%TO.N,/Point4/LED_R*%
X72390000Y-99695000D03*
%TO.N,Net-(D7-A)*%
X74930000Y-99695000D03*
X98425000Y-50165000D03*
X74930000Y-106045000D03*
%TO.N,/Point4/LED_L*%
X72390000Y-106045000D03*
%TO.N,/Point5/LED_R*%
X90170000Y-93345000D03*
%TO.N,Net-(D10-A)*%
X92710000Y-93345000D03*
X92710000Y-97155000D03*
X116205000Y-50165000D03*
%TO.N,/Point5/LED_L*%
X90170000Y-97155000D03*
%TO.N,/Point6/LED_R*%
X102870000Y-86995000D03*
%TO.N,Net-(D11-A)*%
X133985000Y-50165000D03*
X105410000Y-90805000D03*
X105410000Y-86995000D03*
%TO.N,/Point6/LED_L*%
X102870000Y-90805000D03*
%TO.N,/Point7/LED_R*%
X136525000Y-74295000D03*
%TO.N,Net-(D13-A)*%
X139065000Y-80010000D03*
X139065000Y-74295000D03*
X151765000Y-50165000D03*
%TO.N,/Point7/LED_L*%
X136525000Y-80010000D03*
%TO.N,/Point1/SW_L*%
X86360000Y-62170000D03*
%TO.N,/Point1/SW_R*%
X86360000Y-58420000D03*
%TO.N,/Point2/SW_L*%
X101600000Y-69185000D03*
%TO.N,/Point2/SW_R*%
X101600000Y-65435000D03*
%TO.N,/Point3/SW_L*%
X114935000Y-76140000D03*
%TO.N,/Point3/SW_R*%
X114935000Y-72390000D03*
%TO.N,/Point4/SW_L*%
X86360000Y-101660000D03*
%TO.N,/Point4/SW_R*%
X86360000Y-105410000D03*
%TO.N,/Point5/SW_L*%
X101600000Y-94645000D03*
%TO.N,/Point5/SW_R*%
X101600000Y-98395000D03*
%TO.N,/Point6/SW_L*%
X114935000Y-87630000D03*
%TO.N,/Point6/SW_R*%
X114935000Y-91380000D03*
%TO.N,/Point7/SW_L*%
X137795000Y-92680000D03*
%TO.N,/Point7/SW_R*%
X137795000Y-88930000D03*
%TD*%
D13*
%TO.N,/Point4/SW_L*%
X87630000Y-45720000D02*
X92075000Y-41275000D01*
X92075000Y-41275000D02*
X158115000Y-41275000D01*
X158115000Y-41275000D02*
X158750000Y-41910000D01*
X85090000Y-105410000D02*
X85090000Y-102870000D01*
X158750000Y-41910000D02*
X158750000Y-101600000D01*
X153670000Y-106680000D02*
X86360000Y-106680000D01*
X158750000Y-101600000D02*
X153670000Y-106680000D01*
X86360000Y-106680000D02*
X85090000Y-105410000D01*
X85090000Y-102870000D02*
X86300000Y-101660000D01*
X86300000Y-101660000D02*
X86360000Y-101660000D01*
%TO.N,/Point4/SW_R*%
X86995000Y-104775000D02*
X153670000Y-104775000D01*
X86360000Y-105410000D02*
X86995000Y-104775000D01*
%TO.N,/Point1/SW_R*%
X36830000Y-45720000D02*
X36830000Y-52705000D01*
X36830000Y-52705000D02*
X50165000Y-66040000D01*
X50165000Y-66040000D02*
X76200000Y-66040000D01*
X76200000Y-66040000D02*
X83820000Y-58420000D01*
X83820000Y-58420000D02*
X86360000Y-58420000D01*
%TO.N,/Point1/SW_L*%
X86360000Y-62170000D02*
X83245000Y-62170000D01*
X83245000Y-62170000D02*
X77470000Y-67945000D01*
X77470000Y-67945000D02*
X49530000Y-67945000D01*
X49530000Y-67945000D02*
X34290000Y-52705000D01*
X34290000Y-52705000D02*
X34290000Y-45720000D01*
%TO.N,Net-(D13-A)*%
X151765000Y-50165000D02*
X151765000Y-61595000D01*
X151765000Y-61595000D02*
X139065000Y-74295000D01*
%TO.N,/Point1/LED_R*%
X72390000Y-57785000D02*
X56515000Y-57785000D01*
X56515000Y-57785000D02*
X44450000Y-45720000D01*
%TO.N,Net-(D1-A)*%
X55245000Y-60325000D02*
X72390000Y-60325000D01*
X45085000Y-50165000D02*
X55245000Y-60325000D01*
X74930000Y-57785000D02*
X74930000Y-64135000D01*
X72390000Y-60325000D02*
X74930000Y-57785000D01*
%TO.N,/Point1/LED_L*%
X39370000Y-52705000D02*
X39370000Y-45720000D01*
X72390000Y-64135000D02*
X50800000Y-64135000D01*
X50800000Y-64135000D02*
X39370000Y-52705000D01*
%TO.N,/Point2/LED_R*%
X88900000Y-55880000D02*
X90170000Y-57150000D01*
X67310000Y-50800000D02*
X74930000Y-50800000D01*
X80010000Y-55880000D02*
X88900000Y-55880000D01*
X90170000Y-57150000D02*
X90170000Y-66675000D01*
X62230000Y-45720000D02*
X67310000Y-50800000D01*
X74930000Y-50800000D02*
X80010000Y-55880000D01*
%TO.N,Net-(D3-A)*%
X89535000Y-67310000D02*
X90170000Y-67945000D01*
X88265000Y-56515000D02*
X79375000Y-56515000D01*
X89535000Y-66390761D02*
X89535000Y-57785000D01*
X91440000Y-67945000D02*
X90170000Y-67945000D01*
X92710000Y-66675000D02*
X91440000Y-67945000D01*
X89535000Y-66959239D02*
X89520000Y-66944239D01*
X89520000Y-66405761D02*
X89535000Y-66390761D01*
X79375000Y-56515000D02*
X74295000Y-51435000D01*
X74295000Y-51435000D02*
X64135000Y-51435000D01*
X89535000Y-67310000D02*
X89535000Y-66959239D01*
X92710000Y-66675000D02*
X92710000Y-70485000D01*
X89535000Y-57785000D02*
X88265000Y-56515000D01*
X89520000Y-66944239D02*
X89520000Y-66405761D01*
X64135000Y-51435000D02*
X62865000Y-50165000D01*
%TO.N,/Point2/LED_L*%
X57150000Y-49530000D02*
X57150000Y-45720000D01*
X73660000Y-52070000D02*
X59690000Y-52070000D01*
X88228947Y-57186053D02*
X78776053Y-57186053D01*
X88900000Y-69215000D02*
X88900000Y-57857106D01*
X90170000Y-70485000D02*
X88900000Y-69215000D01*
X88900000Y-57857106D02*
X88228947Y-57186053D01*
X78776053Y-57186053D02*
X73660000Y-52070000D01*
X59690000Y-52070000D02*
X57150000Y-49530000D01*
%TO.N,/Point3/LED_R*%
X86360000Y-52070000D02*
X102552500Y-52070000D01*
X80010000Y-45720000D02*
X86360000Y-52070000D01*
X102552500Y-52070000D02*
X106680000Y-56197500D01*
X106680000Y-56197500D02*
X106680000Y-69850000D01*
X103505000Y-73025000D02*
X102870000Y-73025000D01*
X106680000Y-69850000D02*
X103505000Y-73025000D01*
%TO.N,Net-(D5-A)*%
X104775000Y-76835000D02*
X102220000Y-74280000D01*
X80645000Y-50165000D02*
X82232500Y-50165000D01*
X105410000Y-73025000D02*
X105410000Y-76835000D01*
X105410000Y-69565761D02*
X102220000Y-72755761D01*
X85407500Y-53340000D02*
X102235000Y-53340000D01*
X102220000Y-74280000D02*
X102220000Y-72755761D01*
X105410000Y-56515000D02*
X105410000Y-69565761D01*
X105410000Y-76835000D02*
X104775000Y-76835000D01*
X102235000Y-53340000D02*
X105410000Y-56515000D01*
X82232500Y-50165000D02*
X85407500Y-53340000D01*
%TO.N,/Point3/LED_L*%
X102870000Y-76835000D02*
X101600000Y-75565000D01*
X104140000Y-69215000D02*
X104140000Y-57150000D01*
X100965000Y-53975000D02*
X83185000Y-53975000D01*
X101600000Y-71755000D02*
X104140000Y-69215000D01*
X104140000Y-57150000D02*
X100965000Y-53975000D01*
X101600000Y-75565000D02*
X101600000Y-71755000D01*
X83185000Y-53975000D02*
X74930000Y-45720000D01*
%TO.N,/Point4/LED_R*%
X74295000Y-97790000D02*
X86922894Y-97790000D01*
X72390000Y-99695000D02*
X74295000Y-97790000D01*
X151765000Y-100965000D02*
X153670000Y-99060000D01*
X153670000Y-99060000D02*
X153670000Y-44450000D01*
X90097894Y-100965000D02*
X151765000Y-100965000D01*
X86922894Y-97790000D02*
X90097894Y-100965000D01*
X99695000Y-43815000D02*
X97790000Y-45720000D01*
X153670000Y-44450000D02*
X153035000Y-43815000D01*
X153035000Y-43815000D02*
X99695000Y-43815000D01*
%TO.N,Net-(D7-A)*%
X97790000Y-43180000D02*
X96520000Y-44450000D01*
X154940000Y-43815000D02*
X154305000Y-43180000D01*
X86995000Y-99060000D02*
X90170000Y-102235000D01*
X154305000Y-43180000D02*
X97790000Y-43180000D01*
X152400000Y-102235000D02*
X154940000Y-99695000D01*
X74930000Y-99695000D02*
X74930000Y-106045000D01*
X75565000Y-99060000D02*
X86995000Y-99060000D01*
X154940000Y-99695000D02*
X154940000Y-43815000D01*
X90170000Y-102235000D02*
X152400000Y-102235000D01*
X96520000Y-44450000D02*
X96520000Y-48260000D01*
X96520000Y-48260000D02*
X98425000Y-50165000D01*
X74930000Y-99695000D02*
X75565000Y-99060000D01*
%TO.N,/Point4/LED_L*%
X76200000Y-107315000D02*
X76200000Y-103505000D01*
X73660000Y-107950000D02*
X75565000Y-107950000D01*
X75565000Y-107950000D02*
X76200000Y-107315000D01*
X79375000Y-100330000D02*
X86995000Y-100330000D01*
X153035000Y-103505000D02*
X156210000Y-100330000D01*
X155575000Y-42545000D02*
X95885000Y-42545000D01*
X156210000Y-100330000D02*
X156210000Y-43180000D01*
X90170000Y-103505000D02*
X153035000Y-103505000D01*
X86995000Y-100330000D02*
X90170000Y-103505000D01*
X76200000Y-103505000D02*
X79375000Y-100330000D01*
X156210000Y-43180000D02*
X155575000Y-42545000D01*
X72390000Y-106045000D02*
X72390000Y-106680000D01*
X95885000Y-42545000D02*
X92710000Y-45720000D01*
X72390000Y-106680000D02*
X73660000Y-107950000D01*
%TO.N,/Point5/LED_R*%
X115555000Y-52055000D02*
X115555000Y-45735000D01*
X90170000Y-93345000D02*
X90170000Y-90805000D01*
X116205000Y-81280000D02*
X120650000Y-76835000D01*
X120650000Y-57150000D02*
X115555000Y-52055000D01*
X99695000Y-81280000D02*
X116205000Y-81280000D01*
X120650000Y-76835000D02*
X120650000Y-57150000D01*
X90170000Y-90805000D02*
X99695000Y-81280000D01*
%TO.N,Net-(D10-A)*%
X100965000Y-82550000D02*
X92710000Y-90805000D01*
X116840000Y-82550000D02*
X100965000Y-82550000D01*
X121920000Y-55880000D02*
X121920000Y-77470000D01*
X121920000Y-77470000D02*
X116840000Y-82550000D01*
X92710000Y-90805000D02*
X92710000Y-93345000D01*
X116205000Y-50165000D02*
X121920000Y-55880000D01*
X92710000Y-93345000D02*
X92710000Y-97155000D01*
%TO.N,/Point5/LED_L*%
X115570000Y-80010000D02*
X99060000Y-80010000D01*
X99060000Y-80010000D02*
X88900000Y-90170000D01*
X88900000Y-95885000D02*
X90170000Y-97155000D01*
X119380000Y-76200000D02*
X115570000Y-80010000D01*
X88900000Y-90170000D02*
X88900000Y-95885000D01*
X110490000Y-45720000D02*
X110490000Y-48895000D01*
X110490000Y-48895000D02*
X119380000Y-57785000D01*
X119380000Y-57785000D02*
X119380000Y-76200000D01*
%TO.N,/Point6/LED_R*%
X102870000Y-86995000D02*
X104140000Y-85725000D01*
X106680000Y-86360000D02*
X106680000Y-90170000D01*
X127000000Y-69850000D02*
X132080000Y-64770000D01*
X106680000Y-90170000D02*
X109220000Y-92710000D01*
X104140000Y-85725000D02*
X106045000Y-85725000D01*
X109220000Y-92710000D02*
X118745000Y-92710000D01*
X118745000Y-92710000D02*
X127000000Y-84455000D01*
X127000000Y-84455000D02*
X127000000Y-69850000D01*
X132080000Y-64770000D02*
X132080000Y-46990000D01*
X132080000Y-46990000D02*
X133350000Y-45720000D01*
X106045000Y-85725000D02*
X106680000Y-86360000D01*
%TO.N,Net-(D11-A)*%
X133985000Y-64770000D02*
X128270000Y-70485000D01*
X118745000Y-93980000D02*
X108585000Y-93980000D01*
X105410000Y-86995000D02*
X105410000Y-90805000D01*
X128270000Y-84455000D02*
X118745000Y-93980000D01*
X128270000Y-70485000D02*
X128270000Y-84455000D01*
X133985000Y-50165000D02*
X133985000Y-64770000D01*
X108585000Y-93980000D02*
X105410000Y-90805000D01*
%TO.N,/Point6/LED_L*%
X125730000Y-84455000D02*
X125730000Y-69215000D01*
X106680000Y-84455000D02*
X107950000Y-85725000D01*
X102870000Y-84455000D02*
X106680000Y-84455000D01*
X107950000Y-85725000D02*
X107950000Y-89535000D01*
X118110000Y-92075000D02*
X125730000Y-84455000D01*
X125730000Y-69215000D02*
X128270000Y-66675000D01*
X110490000Y-92075000D02*
X118110000Y-92075000D01*
X102870000Y-90805000D02*
X101600000Y-89535000D01*
X101600000Y-89535000D02*
X101600000Y-85725000D01*
X101600000Y-85725000D02*
X102870000Y-84455000D01*
X107950000Y-89535000D02*
X110490000Y-92075000D01*
X128270000Y-66675000D02*
X128270000Y-45720000D01*
%TO.N,/Point7/LED_R*%
X149225000Y-61595000D02*
X149225000Y-47625000D01*
X136525000Y-74295000D02*
X149225000Y-61595000D01*
X149225000Y-47625000D02*
X151130000Y-45720000D01*
%TO.N,Net-(D13-A)*%
X139065000Y-80010000D02*
X139065000Y-74295000D01*
%TO.N,/Point7/LED_L*%
X146050000Y-45720000D02*
X146050000Y-62230000D01*
X146050000Y-62230000D02*
X134620000Y-73660000D01*
X134620000Y-73660000D02*
X134620000Y-78105000D01*
X134620000Y-78105000D02*
X136525000Y-80010000D01*
%TO.N,/Point2/SW_L*%
X64135000Y-43180000D02*
X53975000Y-43180000D01*
X69215000Y-48260000D02*
X64135000Y-43180000D01*
X74930000Y-48260000D02*
X69215000Y-48260000D01*
X53975000Y-43180000D02*
X52070000Y-45085000D01*
X101600000Y-69185000D02*
X103505000Y-67280000D01*
X103505000Y-58420000D02*
X99695000Y-54610000D01*
X103505000Y-67280000D02*
X103505000Y-58420000D01*
X81280000Y-54610000D02*
X74930000Y-48260000D01*
X99695000Y-54610000D02*
X81280000Y-54610000D01*
%TO.N,/Point2/SW_R*%
X101600000Y-59690000D02*
X101600000Y-65435000D01*
X54610000Y-45720000D02*
X55880000Y-44450000D01*
X64135000Y-44450000D02*
X69215000Y-49530000D01*
X55880000Y-44450000D02*
X64135000Y-44450000D01*
X80645000Y-55245000D02*
X97155000Y-55245000D01*
X97155000Y-55245000D02*
X101600000Y-59690000D01*
X74930000Y-49530000D02*
X80645000Y-55245000D01*
X69215000Y-49530000D02*
X74930000Y-49530000D01*
%TO.N,/Point3/SW_L*%
X71550000Y-44020000D02*
X83530000Y-44020000D01*
X115585000Y-75490000D02*
X114935000Y-76140000D01*
X104176053Y-50836053D02*
X115585000Y-62245000D01*
X90346053Y-50836053D02*
X104176053Y-50836053D01*
X115585000Y-62245000D02*
X115585000Y-75490000D01*
X83530000Y-44020000D02*
X90346053Y-50836053D01*
X69850000Y-45720000D02*
X71550000Y-44020000D01*
%TO.N,/Point3/SW_R*%
X114300000Y-71755000D02*
X114935000Y-72390000D01*
X114300000Y-62230000D02*
X114300000Y-71755000D01*
X103505000Y-51435000D02*
X114300000Y-62230000D01*
X73590000Y-44520000D02*
X80715000Y-44520000D01*
X72390000Y-45720000D02*
X73590000Y-44520000D01*
X80715000Y-44520000D02*
X87630000Y-51435000D01*
X87630000Y-51435000D02*
X103505000Y-51435000D01*
%TO.N,/Point4/SW_R*%
X153670000Y-104775000D02*
X157480000Y-100965000D01*
X156845000Y-41910000D02*
X93980000Y-41910000D01*
X157480000Y-42545000D02*
X156845000Y-41910000D01*
X157480000Y-100965000D02*
X157480000Y-42545000D01*
X93980000Y-41910000D02*
X90170000Y-45720000D01*
%TO.N,/Point5/SW_L*%
X105410000Y-48260000D02*
X105410000Y-45720000D01*
X97155000Y-77470000D02*
X97790000Y-77470000D01*
X114920000Y-77485000D02*
X116840000Y-75565000D01*
X102235000Y-99695000D02*
X89852500Y-99695000D01*
X97805000Y-77485000D02*
X114920000Y-77485000D01*
X86360000Y-88265000D02*
X97155000Y-77470000D01*
X97790000Y-77470000D02*
X97805000Y-77485000D01*
X116840000Y-75565000D02*
X116840000Y-59690000D01*
X89852500Y-99695000D02*
X86360000Y-96202500D01*
X103505000Y-98425000D02*
X102235000Y-99695000D01*
X101600000Y-94645000D02*
X103505000Y-96550000D01*
X103505000Y-96550000D02*
X103505000Y-98425000D01*
X116840000Y-59690000D02*
X105410000Y-48260000D01*
X86360000Y-96202500D02*
X86360000Y-88265000D01*
%TO.N,/Point5/SW_R*%
X107950000Y-45720000D02*
X107950000Y-48895000D01*
X97790000Y-78740000D02*
X87630000Y-88900000D01*
X89852500Y-98425000D02*
X101570000Y-98425000D01*
X87630000Y-96202500D02*
X89852500Y-98425000D01*
X118110000Y-59055000D02*
X118110000Y-75565000D01*
X87630000Y-88900000D02*
X87630000Y-96202500D01*
X114935000Y-78740000D02*
X97790000Y-78740000D01*
X107950000Y-48895000D02*
X118110000Y-59055000D01*
X101570000Y-98425000D02*
X101600000Y-98395000D01*
X118110000Y-75565000D02*
X114935000Y-78740000D01*
%TO.N,/Point6/SW_L*%
X114935000Y-87630000D02*
X123190000Y-79375000D01*
X123190000Y-79375000D02*
X123190000Y-45720000D01*
%TO.N,/Point6/SW_R*%
X124460000Y-68507894D02*
X125730000Y-67237894D01*
X125730000Y-67237894D02*
X125730000Y-45720000D01*
X114935000Y-91380000D02*
X124460000Y-81855000D01*
X124460000Y-81855000D02*
X124460000Y-68507894D01*
%TO.N,/Point7/SW_L*%
X140970000Y-59690000D02*
X130810000Y-69850000D01*
X130810000Y-85695000D02*
X137795000Y-92680000D01*
X140970000Y-45720000D02*
X140970000Y-59690000D01*
X130810000Y-69850000D02*
X130810000Y-85695000D01*
%TO.N,/Point7/SW_R*%
X137795000Y-87630000D02*
X132715000Y-82550000D01*
X132715000Y-82550000D02*
X132715000Y-71755000D01*
X132715000Y-71755000D02*
X143510000Y-60960000D01*
X137795000Y-88930000D02*
X137795000Y-87630000D01*
X143510000Y-60960000D02*
X143510000Y-45720000D01*
%TD*%
M02*
