%TF.GenerationSoftware,KiCad,Pcbnew,7.0.11+1*%
%TF.CreationDate,2024-06-09T21:21:38+01:00*%
%TF.ProjectId,crowland-green,63726f77-6c61-46e6-942d-677265656e2e,Rev 1*%
%TF.SameCoordinates,Original*%
%TF.FileFunction,Copper,L1,Top*%
%TF.FilePolarity,Positive*%
%FSLAX46Y46*%
G04 Gerber Fmt 4.6, Leading zero omitted, Abs format (unit mm)*
G04 Created by KiCad (PCBNEW 7.0.11+1) date 2024-06-09 21:21:38*
%MOMM*%
%LPD*%
G01*
G04 APERTURE LIST*
G04 Aperture macros list*
%AMRoundRect*
0 Rectangle with rounded corners*
0 $1 Rounding radius*
0 $2 $3 $4 $5 $6 $7 $8 $9 X,Y pos of 4 corners*
0 Add a 4 corners polygon primitive as box body*
4,1,4,$2,$3,$4,$5,$6,$7,$8,$9,$2,$3,0*
0 Add four circle primitives for the rounded corners*
1,1,$1+$1,$2,$3*
1,1,$1+$1,$4,$5*
1,1,$1+$1,$6,$7*
1,1,$1+$1,$8,$9*
0 Add four rect primitives between the rounded corners*
20,1,$1+$1,$2,$3,$4,$5,0*
20,1,$1+$1,$4,$5,$6,$7,0*
20,1,$1+$1,$6,$7,$8,$9,0*
20,1,$1+$1,$8,$9,$2,$3,0*%
G04 Aperture macros list end*
%TA.AperFunction,SMDPad,CuDef*%
%ADD10RoundRect,0.243750X-0.243750X-0.456250X0.243750X-0.456250X0.243750X0.456250X-0.243750X0.456250X0*%
%TD*%
%TA.AperFunction,SMDPad,CuDef*%
%ADD11RoundRect,0.250000X-0.262500X-0.450000X0.262500X-0.450000X0.262500X0.450000X-0.262500X0.450000X0*%
%TD*%
%TA.AperFunction,ComponentPad*%
%ADD12R,1.700000X1.700000*%
%TD*%
%TA.AperFunction,ComponentPad*%
%ADD13O,1.700000X1.700000*%
%TD*%
%TA.AperFunction,SMDPad,CuDef*%
%ADD14R,1.000000X0.750000*%
%TD*%
%TA.AperFunction,ViaPad*%
%ADD15C,0.600000*%
%TD*%
%TA.AperFunction,Conductor*%
%ADD16C,0.300000*%
%TD*%
G04 APERTURE END LIST*
D10*
%TO.P,D3,1,K*%
%TO.N,/Point2/LED_R*%
X90502500Y-68580000D03*
%TO.P,D3,2,A*%
%TO.N,Net-(D3-A)*%
X92377500Y-68580000D03*
%TD*%
D11*
%TO.P,R1,1*%
%TO.N,/Point1/LED_C*%
X41910000Y-50165000D03*
%TO.P,R1,2*%
%TO.N,Net-(D1-A)*%
X43735000Y-50165000D03*
%TD*%
%TO.P,R3,1*%
%TO.N,/Point3/LED_C*%
X77470000Y-50165000D03*
%TO.P,R3,2*%
%TO.N,Net-(D5-A)*%
X79295000Y-50165000D03*
%TD*%
D12*
%TO.P,J1,1,Pin_1*%
%TO.N,/Point1/SW_L*%
X34290000Y-45720000D03*
D13*
%TO.P,J1,2,Pin_2*%
%TO.N,/Point1/SW_R*%
X36830000Y-45720000D03*
%TO.P,J1,3,Pin_3*%
%TO.N,/Point1/LED_L*%
X39370000Y-45720000D03*
%TO.P,J1,4,Pin_4*%
%TO.N,/Point1/LED_C*%
X41910000Y-45720000D03*
%TO.P,J1,5,Pin_5*%
%TO.N,/Point1/LED_R*%
X44450000Y-45720000D03*
%TD*%
D12*
%TO.P,J5,1,Pin_1*%
%TO.N,/Point5/SW_L*%
X105410000Y-45720000D03*
D13*
%TO.P,J5,2,Pin_2*%
%TO.N,/Point5/SW_R*%
X107950000Y-45720000D03*
%TO.P,J5,3,Pin_3*%
%TO.N,/Point5/LED_L*%
X110490000Y-45720000D03*
%TO.P,J5,4,Pin_4*%
%TO.N,/Point5/LED_C*%
X113030000Y-45720000D03*
%TO.P,J5,5,Pin_5*%
%TO.N,/Point5/LED_R*%
X115570000Y-45720000D03*
%TD*%
D11*
%TO.P,R5,1*%
%TO.N,/Point5/LED_C*%
X113030000Y-50165000D03*
%TO.P,R5,2*%
%TO.N,Net-(D10-A)*%
X114855000Y-50165000D03*
%TD*%
%TO.P,R7,2*%
%TO.N,Net-(D13-A)*%
X150415000Y-50165000D03*
%TO.P,R7,1*%
%TO.N,/Point7/LED_C*%
X148590000Y-50165000D03*
%TD*%
D14*
%TO.P,SW7,1,A*%
%TO.N,/Point7/SW_R*%
X134795000Y-88930000D03*
X140795000Y-88930000D03*
%TO.P,SW7,2,B*%
%TO.N,/Point7/SW_L*%
X134795000Y-92680000D03*
X140795000Y-92680000D03*
%TD*%
D10*
%TO.P,D9,1,K*%
%TO.N,/Point5/LED_R*%
X90502500Y-91440000D03*
%TO.P,D9,2,A*%
%TO.N,Net-(D10-A)*%
X92377500Y-91440000D03*
%TD*%
D14*
%TO.P,SW1,1,A*%
%TO.N,/Point1/SW_R*%
X83360000Y-58480000D03*
X89360000Y-58480000D03*
%TO.P,SW1,2,B*%
%TO.N,/Point1/SW_L*%
X83360000Y-62230000D03*
X89360000Y-62230000D03*
%TD*%
%TO.P,SW4,1,A*%
%TO.N,/Point4/SW_R*%
X89360000Y-105410000D03*
X83360000Y-105410000D03*
%TO.P,SW4,2,B*%
%TO.N,/Point4/SW_L*%
X89360000Y-101660000D03*
X83360000Y-101660000D03*
%TD*%
D12*
%TO.P,J4,1,Pin_1*%
%TO.N,/Point4/SW_L*%
X87630000Y-45720000D03*
D13*
%TO.P,J4,2,Pin_2*%
%TO.N,/Point4/SW_R*%
X90170000Y-45720000D03*
%TO.P,J4,3,Pin_3*%
%TO.N,/Point4/LED_L*%
X92710000Y-45720000D03*
%TO.P,J4,4,Pin_4*%
%TO.N,/Point4/LED_C*%
X95250000Y-45720000D03*
%TO.P,J4,5,Pin_5*%
%TO.N,/Point4/LED_R*%
X97790000Y-45720000D03*
%TD*%
D14*
%TO.P,SW5,1,A*%
%TO.N,/Point5/SW_R*%
X104600000Y-98395000D03*
X98600000Y-98395000D03*
%TO.P,SW5,2,B*%
%TO.N,/Point5/SW_L*%
X104600000Y-94645000D03*
X98600000Y-94645000D03*
%TD*%
D11*
%TO.P,R6,1*%
%TO.N,/Point6/LED_C*%
X130810000Y-50165000D03*
%TO.P,R6,2*%
%TO.N,Net-(D11-A)*%
X132635000Y-50165000D03*
%TD*%
D10*
%TO.P,D4,1,K*%
%TO.N,/Point2/LED_L*%
X90502500Y-72390000D03*
%TO.P,D4,2,A*%
%TO.N,Net-(D3-A)*%
X92377500Y-72390000D03*
%TD*%
D11*
%TO.P,R2,1*%
%TO.N,/Point2/LED_C*%
X59690000Y-50165000D03*
%TO.P,R2,2*%
%TO.N,Net-(D3-A)*%
X61515000Y-50165000D03*
%TD*%
D12*
%TO.P,J6,1,Pin_1*%
%TO.N,/Point6/SW_L*%
X123190000Y-45720000D03*
D13*
%TO.P,J6,2,Pin_2*%
%TO.N,/Point6/SW_R*%
X125730000Y-45720000D03*
%TO.P,J6,3,Pin_3*%
%TO.N,/Point6/LED_L*%
X128270000Y-45720000D03*
%TO.P,J6,4,Pin_4*%
%TO.N,/Point6/LED_C*%
X130810000Y-45720000D03*
%TO.P,J6,5,Pin_5*%
%TO.N,/Point6/LED_R*%
X133350000Y-45720000D03*
%TD*%
D11*
%TO.P,R4,1*%
%TO.N,/Point4/LED_C*%
X95250000Y-50165000D03*
%TO.P,R4,2*%
%TO.N,Net-(D7-A)*%
X97075000Y-50165000D03*
%TD*%
D10*
%TO.P,D13,1,K*%
%TO.N,/Point7/LED_R*%
X136857500Y-76200000D03*
%TO.P,D13,2,A*%
%TO.N,Net-(D13-A)*%
X138732500Y-76200000D03*
%TD*%
%TO.P,D10,1,K*%
%TO.N,/Point5/LED_L*%
X90502500Y-95250000D03*
%TO.P,D10,2,A*%
%TO.N,Net-(D10-A)*%
X92377500Y-95250000D03*
%TD*%
%TO.P,D2,1,K*%
%TO.N,/Point1/LED_L*%
X72722500Y-66040000D03*
%TO.P,D2,2,A*%
%TO.N,Net-(D1-A)*%
X74597500Y-66040000D03*
%TD*%
D12*
%TO.P,J7,1,Pin_1*%
%TO.N,/Point7/SW_L*%
X140970000Y-45720000D03*
D13*
%TO.P,J7,2,Pin_2*%
%TO.N,/Point7/SW_R*%
X143510000Y-45720000D03*
%TO.P,J7,3,Pin_3*%
%TO.N,/Point7/LED_L*%
X146050000Y-45720000D03*
%TO.P,J7,4,Pin_4*%
%TO.N,/Point7/LED_C*%
X148590000Y-45720000D03*
%TO.P,J7,5,Pin_5*%
%TO.N,/Point7/LED_R*%
X151130000Y-45720000D03*
%TD*%
D10*
%TO.P,D5,1,K*%
%TO.N,/Point3/LED_R*%
X103202500Y-74930000D03*
%TO.P,D5,2,A*%
%TO.N,Net-(D5-A)*%
X105077500Y-74930000D03*
%TD*%
%TO.P,D12,1,K*%
%TO.N,/Point6/LED_L*%
X103202500Y-88900000D03*
%TO.P,D12,2,A*%
%TO.N,Net-(D11-A)*%
X105077500Y-88900000D03*
%TD*%
D14*
%TO.P,SW6,1,A*%
%TO.N,/Point6/SW_R*%
X117935000Y-91410000D03*
X111935000Y-91410000D03*
%TO.P,SW6,2,B*%
%TO.N,/Point6/SW_L*%
X117935000Y-87660000D03*
X111935000Y-87660000D03*
%TD*%
D10*
%TO.P,D7,1,K*%
%TO.N,/Point4/LED_R*%
X72722500Y-97790000D03*
%TO.P,D7,2,A*%
%TO.N,Net-(D7-A)*%
X74597500Y-97790000D03*
%TD*%
%TO.P,D6,1,K*%
%TO.N,/Point3/LED_L*%
X103202500Y-78740000D03*
%TO.P,D6,2,A*%
%TO.N,Net-(D5-A)*%
X105077500Y-78740000D03*
%TD*%
%TO.P,D8,1,K*%
%TO.N,/Point4/LED_L*%
X72722500Y-104140000D03*
%TO.P,D8,2,A*%
%TO.N,Net-(D7-A)*%
X74597500Y-104140000D03*
%TD*%
D12*
%TO.P,J2,1,Pin_1*%
%TO.N,/Point2/SW_L*%
X52070000Y-45720000D03*
D13*
%TO.P,J2,2,Pin_2*%
%TO.N,/Point2/SW_R*%
X54610000Y-45720000D03*
%TO.P,J2,3,Pin_3*%
%TO.N,/Point2/LED_L*%
X57150000Y-45720000D03*
%TO.P,J2,4,Pin_4*%
%TO.N,/Point2/LED_C*%
X59690000Y-45720000D03*
%TO.P,J2,5,Pin_5*%
%TO.N,/Point2/LED_R*%
X62230000Y-45720000D03*
%TD*%
D10*
%TO.P,D1,1,K*%
%TO.N,/Point1/LED_R*%
X72722500Y-59690000D03*
%TO.P,D1,2,A*%
%TO.N,Net-(D1-A)*%
X74597500Y-59690000D03*
%TD*%
%TO.P,D11,1,K*%
%TO.N,/Point6/LED_R*%
X103202500Y-85090000D03*
%TO.P,D11,2,A*%
%TO.N,Net-(D11-A)*%
X105077500Y-85090000D03*
%TD*%
%TO.P,D14,1,K*%
%TO.N,/Point7/LED_L*%
X136857500Y-81915000D03*
%TO.P,D14,2,A*%
%TO.N,Net-(D13-A)*%
X138732500Y-81915000D03*
%TD*%
D14*
%TO.P,SW3,1,A*%
%TO.N,/Point3/SW_R*%
X111935000Y-72420000D03*
X117935000Y-72420000D03*
%TO.P,SW3,2,B*%
%TO.N,/Point3/SW_L*%
X111935000Y-76170000D03*
X117935000Y-76170000D03*
%TD*%
%TO.P,SW2,1,A*%
%TO.N,/Point2/SW_R*%
X98600000Y-65435000D03*
X104600000Y-65435000D03*
%TO.P,SW2,2,B*%
%TO.N,/Point2/SW_L*%
X98600000Y-69185000D03*
X104600000Y-69185000D03*
%TD*%
D12*
%TO.P,J3,1,Pin_1*%
%TO.N,/Point3/SW_L*%
X69850000Y-45720000D03*
D13*
%TO.P,J3,2,Pin_2*%
%TO.N,/Point3/SW_R*%
X72390000Y-45720000D03*
%TO.P,J3,3,Pin_3*%
%TO.N,/Point3/LED_L*%
X74930000Y-45720000D03*
%TO.P,J3,4,Pin_4*%
%TO.N,/Point3/LED_C*%
X77470000Y-45720000D03*
%TO.P,J3,5,Pin_5*%
%TO.N,/Point3/LED_R*%
X80010000Y-45720000D03*
%TD*%
D15*
%TO.N,/Point1/LED_R*%
X72390000Y-57785000D03*
%TO.N,Net-(D1-A)*%
X45085000Y-50165000D03*
X74930000Y-57785000D03*
X74930000Y-64135000D03*
%TO.N,/Point1/LED_L*%
X72390000Y-64135000D03*
%TO.N,/Point2/LED_R*%
X90170000Y-66675000D03*
%TO.N,Net-(D3-A)*%
X92710000Y-70485000D03*
X62865000Y-50165000D03*
X92710000Y-66675000D03*
%TO.N,/Point2/LED_L*%
X90170000Y-70485000D03*
%TO.N,/Point3/LED_R*%
X102870000Y-73025000D03*
%TO.N,Net-(D5-A)*%
X80645000Y-50165000D03*
X105410000Y-76835000D03*
X105410000Y-73025000D03*
%TO.N,/Point3/LED_L*%
X102870000Y-76835000D03*
%TO.N,/Point4/LED_R*%
X72390000Y-99695000D03*
%TO.N,Net-(D7-A)*%
X74930000Y-99695000D03*
X98425000Y-50165000D03*
X74930000Y-106045000D03*
%TO.N,/Point4/LED_L*%
X72390000Y-106045000D03*
%TO.N,/Point5/LED_R*%
X90170000Y-93345000D03*
%TO.N,Net-(D10-A)*%
X92710000Y-93345000D03*
X92710000Y-97155000D03*
X116205000Y-50165000D03*
%TO.N,/Point5/LED_L*%
X90170000Y-97155000D03*
%TO.N,/Point6/LED_R*%
X102870000Y-86995000D03*
%TO.N,Net-(D11-A)*%
X133985000Y-50165000D03*
X105410000Y-90805000D03*
X105410000Y-86995000D03*
%TO.N,/Point6/LED_L*%
X102870000Y-90805000D03*
%TO.N,/Point7/LED_R*%
X136525000Y-74295000D03*
%TO.N,Net-(D13-A)*%
X139065000Y-80010000D03*
X139065000Y-74295000D03*
X151765000Y-50165000D03*
%TO.N,/Point7/LED_L*%
X136525000Y-80010000D03*
%TO.N,/Point1/SW_L*%
X86360000Y-62170000D03*
%TO.N,/Point1/SW_R*%
X86360000Y-58420000D03*
%TO.N,/Point2/SW_L*%
X101600000Y-69185000D03*
%TO.N,/Point2/SW_R*%
X101600000Y-65435000D03*
%TO.N,/Point3/SW_L*%
X114935000Y-76140000D03*
%TO.N,/Point3/SW_R*%
X114935000Y-72390000D03*
%TO.N,/Point4/SW_L*%
X86360000Y-101660000D03*
%TO.N,/Point4/SW_R*%
X86360000Y-105410000D03*
%TO.N,/Point5/SW_L*%
X101600000Y-94645000D03*
%TO.N,/Point5/SW_R*%
X101600000Y-98395000D03*
%TO.N,/Point6/SW_L*%
X114935000Y-87630000D03*
%TO.N,/Point6/SW_R*%
X114935000Y-91380000D03*
%TO.N,/Point7/SW_L*%
X137795000Y-92680000D03*
%TO.N,/Point7/SW_R*%
X137795000Y-88930000D03*
%TD*%
D16*
%TO.N,Net-(D13-A)*%
X151765000Y-50165000D02*
X150415000Y-50165000D01*
%TO.N,/Point1/LED_R*%
X72722500Y-59690000D02*
X72722500Y-58117500D01*
X72722500Y-58117500D02*
X72390000Y-57785000D01*
%TO.N,Net-(D1-A)*%
X43735000Y-50165000D02*
X45085000Y-50165000D01*
X74597500Y-64467500D02*
X74930000Y-64135000D01*
X74597500Y-58117500D02*
X74930000Y-57785000D01*
X74597500Y-59690000D02*
X74597500Y-58117500D01*
X74597500Y-66040000D02*
X74597500Y-64467500D01*
%TO.N,/Point1/LED_L*%
X72722500Y-66040000D02*
X72722500Y-64467500D01*
X72722500Y-64467500D02*
X72390000Y-64135000D01*
%TO.N,/Point2/LED_R*%
X90502500Y-67007500D02*
X90170000Y-66675000D01*
X90502500Y-68580000D02*
X90502500Y-67007500D01*
%TO.N,Net-(D3-A)*%
X61515000Y-50165000D02*
X62865000Y-50165000D01*
X92377500Y-68580000D02*
X92377500Y-67007500D01*
X92377500Y-72390000D02*
X92377500Y-70817500D01*
X92377500Y-67007500D02*
X92710000Y-66675000D01*
X92377500Y-70817500D02*
X92710000Y-70485000D01*
%TO.N,/Point2/LED_L*%
X90502500Y-72390000D02*
X90502500Y-70817500D01*
X90502500Y-70817500D02*
X90170000Y-70485000D01*
%TO.N,/Point3/LED_R*%
X103202500Y-73357500D02*
X102870000Y-73025000D01*
X103202500Y-74930000D02*
X103202500Y-73357500D01*
%TO.N,Net-(D5-A)*%
X105077500Y-73357500D02*
X105410000Y-73025000D01*
X105077500Y-77167500D02*
X105410000Y-76835000D01*
X105077500Y-74930000D02*
X105077500Y-73357500D01*
X105077500Y-78740000D02*
X105077500Y-77167500D01*
X79295000Y-50165000D02*
X80645000Y-50165000D01*
%TO.N,/Point3/LED_L*%
X103202500Y-78740000D02*
X103202500Y-77167500D01*
X103202500Y-77167500D02*
X102870000Y-76835000D01*
%TO.N,/Point4/LED_R*%
X72722500Y-97790000D02*
X72722500Y-99362500D01*
X72722500Y-99362500D02*
X72390000Y-99695000D01*
%TO.N,Net-(D7-A)*%
X74597500Y-104140000D02*
X74597500Y-105712500D01*
X74597500Y-97790000D02*
X74597500Y-99362500D01*
X97075000Y-50165000D02*
X98425000Y-50165000D01*
X74597500Y-105712500D02*
X74930000Y-106045000D01*
X74597500Y-99362500D02*
X74930000Y-99695000D01*
%TO.N,/Point4/LED_L*%
X72722500Y-104140000D02*
X72722500Y-105712500D01*
X72722500Y-105712500D02*
X72390000Y-106045000D01*
%TO.N,/Point5/LED_R*%
X90502500Y-93012500D02*
X90170000Y-93345000D01*
X90502500Y-91440000D02*
X90502500Y-93012500D01*
%TO.N,Net-(D10-A)*%
X92377500Y-96822500D02*
X92710000Y-97155000D01*
X114855000Y-50165000D02*
X116205000Y-50165000D01*
X92377500Y-95250000D02*
X92377500Y-96822500D01*
X92377500Y-91440000D02*
X92377500Y-93012500D01*
X92377500Y-93012500D02*
X92710000Y-93345000D01*
%TO.N,/Point5/LED_L*%
X90502500Y-96822500D02*
X90170000Y-97155000D01*
X90502500Y-95250000D02*
X90502500Y-96822500D01*
%TO.N,/Point6/LED_R*%
X103202500Y-85090000D02*
X103202500Y-86662500D01*
X103202500Y-86662500D02*
X102870000Y-86995000D01*
%TO.N,Net-(D11-A)*%
X132635000Y-50165000D02*
X133985000Y-50165000D01*
X105077500Y-90472500D02*
X105410000Y-90805000D01*
X105077500Y-88900000D02*
X105077500Y-90472500D01*
X105077500Y-85090000D02*
X105077500Y-86662500D01*
X105077500Y-86662500D02*
X105410000Y-86995000D01*
%TO.N,/Point6/LED_L*%
X103202500Y-90472500D02*
X102870000Y-90805000D01*
X103202500Y-88900000D02*
X103202500Y-90472500D01*
%TO.N,/Point7/LED_R*%
X136857500Y-76200000D02*
X136857500Y-74627500D01*
X136857500Y-74627500D02*
X136525000Y-74295000D01*
%TO.N,Net-(D13-A)*%
X138732500Y-81915000D02*
X138732500Y-80342500D01*
X138732500Y-74627500D02*
X139065000Y-74295000D01*
X138732500Y-80342500D02*
X139065000Y-80010000D01*
X138732500Y-76200000D02*
X138732500Y-74627500D01*
%TO.N,/Point7/LED_L*%
X136857500Y-80342500D02*
X136525000Y-80010000D01*
X136857500Y-81915000D02*
X136857500Y-80342500D01*
%TO.N,/Point1/SW_L*%
X86360000Y-62170000D02*
X83360000Y-62170000D01*
X89360000Y-62170000D02*
X86360000Y-62170000D01*
%TO.N,/Point1/SW_R*%
X83360000Y-58420000D02*
X86360000Y-58420000D01*
X89360000Y-58420000D02*
X86360000Y-58420000D01*
%TO.N,/Point1/LED_C*%
X41910000Y-45720000D02*
X41910000Y-50165000D01*
%TO.N,/Point2/SW_L*%
X104600000Y-69185000D02*
X101600000Y-69185000D01*
X98600000Y-69185000D02*
X101600000Y-69185000D01*
%TO.N,/Point2/SW_R*%
X98600000Y-65435000D02*
X101600000Y-65435000D01*
X104600000Y-65435000D02*
X101600000Y-65435000D01*
%TO.N,/Point2/LED_C*%
X59690000Y-45720000D02*
X59690000Y-50165000D01*
%TO.N,/Point3/SW_L*%
X111760000Y-76140000D02*
X114935000Y-76140000D01*
X117760000Y-76140000D02*
X114935000Y-76140000D01*
%TO.N,/Point3/SW_R*%
X111760000Y-72390000D02*
X114935000Y-72390000D01*
X117760000Y-72390000D02*
X114935000Y-72390000D01*
%TO.N,/Point3/LED_C*%
X77470000Y-45720000D02*
X77470000Y-50165000D01*
%TO.N,/Point4/SW_L*%
X83360000Y-101660000D02*
X89360000Y-101660000D01*
%TO.N,/Point4/SW_R*%
X89360000Y-105410000D02*
X86360000Y-105410000D01*
X83360000Y-105410000D02*
X86360000Y-105410000D01*
%TO.N,/Point4/LED_C*%
X95250000Y-45720000D02*
X95250000Y-50165000D01*
%TO.N,/Point5/SW_L*%
X104600000Y-94645000D02*
X101600000Y-94645000D01*
X98600000Y-94645000D02*
X101600000Y-94645000D01*
%TO.N,/Point5/SW_R*%
X98600000Y-98395000D02*
X101600000Y-98395000D01*
X104600000Y-98395000D02*
X101600000Y-98395000D01*
%TO.N,/Point5/LED_C*%
X113030000Y-50165000D02*
X113030000Y-45720000D01*
%TO.N,/Point6/SW_L*%
X117760000Y-87630000D02*
X114935000Y-87630000D01*
X111760000Y-87630000D02*
X114935000Y-87630000D01*
%TO.N,/Point6/SW_R*%
X117760000Y-91380000D02*
X114935000Y-91380000D01*
X111760000Y-91380000D02*
X114935000Y-91380000D01*
%TO.N,/Point6/LED_C*%
X130810000Y-45720000D02*
X130810000Y-50165000D01*
%TO.N,/Point7/SW_L*%
X134795000Y-92680000D02*
X140795000Y-92680000D01*
%TO.N,/Point7/SW_R*%
X134795000Y-88930000D02*
X137795000Y-88930000D01*
X140795000Y-88930000D02*
X137795000Y-88930000D01*
%TO.N,/Point7/LED_C*%
X148590000Y-45720000D02*
X148590000Y-49530000D01*
%TD*%
M02*
