%TF.GenerationSoftware,KiCad,Pcbnew,7.0.11+1*%
%TF.CreationDate,2024-06-09T21:21:38+01:00*%
%TF.ProjectId,crowland-green,63726f77-6c61-46e6-942d-677265656e2e,Rev 1*%
%TF.SameCoordinates,Original*%
%TF.FileFunction,Paste,Top*%
%TF.FilePolarity,Positive*%
%FSLAX46Y46*%
G04 Gerber Fmt 4.6, Leading zero omitted, Abs format (unit mm)*
G04 Created by KiCad (PCBNEW 7.0.11+1) date 2024-06-09 21:21:38*
%MOMM*%
%LPD*%
G01*
G04 APERTURE LIST*
G04 Aperture macros list*
%AMRoundRect*
0 Rectangle with rounded corners*
0 $1 Rounding radius*
0 $2 $3 $4 $5 $6 $7 $8 $9 X,Y pos of 4 corners*
0 Add a 4 corners polygon primitive as box body*
4,1,4,$2,$3,$4,$5,$6,$7,$8,$9,$2,$3,0*
0 Add four circle primitives for the rounded corners*
1,1,$1+$1,$2,$3*
1,1,$1+$1,$4,$5*
1,1,$1+$1,$6,$7*
1,1,$1+$1,$8,$9*
0 Add four rect primitives between the rounded corners*
20,1,$1+$1,$2,$3,$4,$5,0*
20,1,$1+$1,$4,$5,$6,$7,0*
20,1,$1+$1,$6,$7,$8,$9,0*
20,1,$1+$1,$8,$9,$2,$3,0*%
G04 Aperture macros list end*
%ADD10RoundRect,0.243750X-0.243750X-0.456250X0.243750X-0.456250X0.243750X0.456250X-0.243750X0.456250X0*%
%ADD11RoundRect,0.250000X-0.262500X-0.450000X0.262500X-0.450000X0.262500X0.450000X-0.262500X0.450000X0*%
%ADD12R,1.000000X0.750000*%
G04 APERTURE END LIST*
D10*
%TO.C,D3*%
X90502500Y-68580000D03*
X92377500Y-68580000D03*
%TD*%
D11*
%TO.C,R1*%
X41910000Y-50165000D03*
X43735000Y-50165000D03*
%TD*%
%TO.C,R3*%
X77470000Y-50165000D03*
X79295000Y-50165000D03*
%TD*%
%TO.C,R5*%
X113030000Y-50165000D03*
X114855000Y-50165000D03*
%TD*%
%TO.C,R7*%
X150415000Y-50165000D03*
X148590000Y-50165000D03*
%TD*%
D12*
%TO.C,SW7*%
X134795000Y-88930000D03*
X140795000Y-88930000D03*
X134795000Y-92680000D03*
X140795000Y-92680000D03*
%TD*%
D10*
%TO.C,D9*%
X90502500Y-91440000D03*
X92377500Y-91440000D03*
%TD*%
D12*
%TO.C,SW1*%
X83360000Y-58480000D03*
X89360000Y-58480000D03*
X83360000Y-62230000D03*
X89360000Y-62230000D03*
%TD*%
%TO.C,SW4*%
X89360000Y-105410000D03*
X83360000Y-105410000D03*
X89360000Y-101660000D03*
X83360000Y-101660000D03*
%TD*%
%TO.C,SW5*%
X104600000Y-98395000D03*
X98600000Y-98395000D03*
X104600000Y-94645000D03*
X98600000Y-94645000D03*
%TD*%
D11*
%TO.C,R6*%
X130810000Y-50165000D03*
X132635000Y-50165000D03*
%TD*%
D10*
%TO.C,D4*%
X90502500Y-72390000D03*
X92377500Y-72390000D03*
%TD*%
D11*
%TO.C,R2*%
X59690000Y-50165000D03*
X61515000Y-50165000D03*
%TD*%
%TO.C,R4*%
X95250000Y-50165000D03*
X97075000Y-50165000D03*
%TD*%
D10*
%TO.C,D13*%
X136857500Y-76200000D03*
X138732500Y-76200000D03*
%TD*%
%TO.C,D10*%
X90502500Y-95250000D03*
X92377500Y-95250000D03*
%TD*%
%TO.C,D2*%
X72722500Y-66040000D03*
X74597500Y-66040000D03*
%TD*%
%TO.C,D5*%
X103202500Y-74930000D03*
X105077500Y-74930000D03*
%TD*%
%TO.C,D12*%
X103202500Y-88900000D03*
X105077500Y-88900000D03*
%TD*%
D12*
%TO.C,SW6*%
X117935000Y-91410000D03*
X111935000Y-91410000D03*
X117935000Y-87660000D03*
X111935000Y-87660000D03*
%TD*%
D10*
%TO.C,D7*%
X72722500Y-97790000D03*
X74597500Y-97790000D03*
%TD*%
%TO.C,D6*%
X103202500Y-78740000D03*
X105077500Y-78740000D03*
%TD*%
%TO.C,D8*%
X72722500Y-104140000D03*
X74597500Y-104140000D03*
%TD*%
%TO.C,D1*%
X72722500Y-59690000D03*
X74597500Y-59690000D03*
%TD*%
%TO.C,D11*%
X103202500Y-85090000D03*
X105077500Y-85090000D03*
%TD*%
%TO.C,D14*%
X136857500Y-81915000D03*
X138732500Y-81915000D03*
%TD*%
D12*
%TO.C,SW3*%
X111935000Y-72420000D03*
X117935000Y-72420000D03*
X111935000Y-76170000D03*
X117935000Y-76170000D03*
%TD*%
%TO.C,SW2*%
X98600000Y-65435000D03*
X104600000Y-65435000D03*
X98600000Y-69185000D03*
X104600000Y-69185000D03*
%TD*%
M02*
