M48
; DRILL file {KiCad 7.0.11+1} date Sun 09 Jun 2024 21:21:36 BST
; FORMAT={-:-/ absolute / inch / decimal}
; #@! TF.CreationDate,2024-06-09T21:21:36+01:00
; #@! TF.GenerationSoftware,Kicad,Pcbnew,7.0.11+1
; #@! TF.FileFunction,Plated,1,2,PTH
FMAT,2
INCH
; #@! TA.AperFunction,Plated,PTH,ViaDrill
T1C0.0118
; #@! TA.AperFunction,Plated,PTH,ComponentDrill
T2C0.0394
%
G90
G05
T1
X1.775Y-1.975
X2.475Y-1.975
X2.85Y-2.275
X2.85Y-2.525
X2.85Y-3.925
X2.85Y-4.175
X2.95Y-2.275
X2.95Y-2.525
X2.95Y-3.925
X2.95Y-4.175
X3.175Y-1.975
X3.4Y-2.3
X3.4Y-2.4476
X3.4Y-4.0024
X3.4Y-4.15
X3.55Y-2.625
X3.55Y-2.775
X3.55Y-3.675
X3.55Y-3.825
X3.65Y-2.625
X3.65Y-2.775
X3.65Y-3.675
X3.65Y-3.825
X3.875Y-1.975
X4.0Y-2.5762
X4.0Y-2.7238
X4.0Y-3.7262
X4.0Y-3.8738
X4.05Y-2.875
X4.05Y-3.025
X4.05Y-3.425
X4.05Y-3.575
X4.15Y-2.875
X4.15Y-3.025
X4.15Y-3.425
X4.15Y-3.575
X4.525Y-2.85
X4.525Y-2.9976
X4.525Y-3.45
X4.525Y-3.5976
X4.575Y-1.975
X5.275Y-1.975
X5.375Y-2.925
X5.375Y-3.15
X5.425Y-3.5012
X5.425Y-3.6488
X5.475Y-2.925
X5.475Y-3.15
X5.975Y-1.975
T2
X1.35Y-1.8
X1.45Y-1.8
X1.55Y-1.8
X1.65Y-1.8
X1.75Y-1.8
X2.05Y-1.8
X2.15Y-1.8
X2.25Y-1.8
X2.35Y-1.8
X2.45Y-1.8
X2.75Y-1.8
X2.85Y-1.8
X2.95Y-1.8
X3.05Y-1.8
X3.15Y-1.8
X3.45Y-1.8
X3.55Y-1.8
X3.65Y-1.8
X3.75Y-1.8
X3.85Y-1.8
X4.15Y-1.8
X4.25Y-1.8
X4.35Y-1.8
X4.45Y-1.8
X4.55Y-1.8
X4.85Y-1.8
X4.95Y-1.8
X5.05Y-1.8
X5.15Y-1.8
X5.25Y-1.8
X5.55Y-1.8
X5.65Y-1.8
X5.75Y-1.8
X5.85Y-1.8
X5.95Y-1.8
M30
