%TF.GenerationSoftware,KiCad,Pcbnew,7.0.11+1*%
%TF.CreationDate,2024-06-09T21:21:38+01:00*%
%TF.ProjectId,crowland-green,63726f77-6c61-46e6-942d-677265656e2e,Rev 1*%
%TF.SameCoordinates,Original*%
%TF.FileFunction,Legend,Top*%
%TF.FilePolarity,Positive*%
%FSLAX46Y46*%
G04 Gerber Fmt 4.6, Leading zero omitted, Abs format (unit mm)*
G04 Created by KiCad (PCBNEW 7.0.11+1) date 2024-06-09 21:21:38*
%MOMM*%
%LPD*%
G01*
G04 APERTURE LIST*
%ADD10C,0.150000*%
%ADD11C,0.200000*%
%ADD12C,0.300000*%
%ADD13C,0.120000*%
G04 APERTURE END LIST*
D10*
G36*
X39063668Y-48459077D02*
G01*
X39094075Y-48489484D01*
X39128333Y-48558000D01*
X39128333Y-48665447D01*
X39094075Y-48733963D01*
X39063668Y-48764370D01*
X38995152Y-48798628D01*
X38706905Y-48798628D01*
X38706905Y-48424819D01*
X38995152Y-48424819D01*
X39063668Y-48459077D01*
G37*
G36*
X40372432Y-49567676D02*
G01*
X38414048Y-49567676D01*
X38414048Y-49349819D01*
X38556905Y-49349819D01*
X38574452Y-49398028D01*
X38618881Y-49423680D01*
X38669405Y-49414771D01*
X38702382Y-49375471D01*
X38706905Y-49349819D01*
X38706905Y-49336795D01*
X39510425Y-49336795D01*
X39519334Y-49387319D01*
X39558634Y-49420296D01*
X39584286Y-49424819D01*
X40155714Y-49424819D01*
X40203923Y-49407272D01*
X40229575Y-49362843D01*
X40220666Y-49312319D01*
X40181366Y-49279342D01*
X40155714Y-49274819D01*
X39945000Y-49274819D01*
X39945000Y-48349819D01*
X39943524Y-48345765D01*
X39944545Y-48341576D01*
X39934897Y-48322063D01*
X39927453Y-48301610D01*
X39923718Y-48299454D01*
X39921807Y-48295587D01*
X39901872Y-48286840D01*
X39883024Y-48275958D01*
X39878776Y-48276706D01*
X39874827Y-48274974D01*
X39853932Y-48281087D01*
X39832500Y-48284867D01*
X39829728Y-48288169D01*
X39825589Y-48289381D01*
X39807596Y-48308216D01*
X39716476Y-48444896D01*
X39635097Y-48526275D01*
X39550745Y-48568451D01*
X39515473Y-48605705D01*
X39512398Y-48656916D01*
X39542962Y-48698121D01*
X39592860Y-48710041D01*
X39617827Y-48702615D01*
X39713065Y-48654996D01*
X39714190Y-48653806D01*
X39732557Y-48640947D01*
X39795000Y-48578504D01*
X39795000Y-49274819D01*
X39584286Y-49274819D01*
X39536077Y-49292366D01*
X39510425Y-49336795D01*
X38706905Y-49336795D01*
X38706905Y-48948628D01*
X39012857Y-48948628D01*
X39017070Y-48947094D01*
X39021431Y-48948136D01*
X39046398Y-48940710D01*
X39141636Y-48893091D01*
X39142761Y-48891901D01*
X39161128Y-48879042D01*
X39208747Y-48831423D01*
X39209438Y-48829941D01*
X39222796Y-48811931D01*
X39270415Y-48716693D01*
X39270927Y-48712239D01*
X39273810Y-48708804D01*
X39278333Y-48683152D01*
X39278333Y-48540295D01*
X39276799Y-48536081D01*
X39277841Y-48531720D01*
X39270415Y-48506754D01*
X39222796Y-48411516D01*
X39221606Y-48410390D01*
X39208747Y-48392024D01*
X39161128Y-48344405D01*
X39159646Y-48343714D01*
X39141636Y-48330356D01*
X39046398Y-48282737D01*
X39041944Y-48282224D01*
X39038509Y-48279342D01*
X39012857Y-48274819D01*
X38631905Y-48274819D01*
X38613596Y-48281482D01*
X38594405Y-48284867D01*
X38590054Y-48290051D01*
X38583696Y-48292366D01*
X38573953Y-48309239D01*
X38561428Y-48324167D01*
X38559710Y-48333909D01*
X38558044Y-48336795D01*
X38558622Y-48340077D01*
X38556905Y-48349819D01*
X38556905Y-49349819D01*
X38414048Y-49349819D01*
X38414048Y-48131962D01*
X40372432Y-48131962D01*
X40372432Y-49567676D01*
G37*
G36*
X56843668Y-48459077D02*
G01*
X56874075Y-48489484D01*
X56908333Y-48558000D01*
X56908333Y-48665447D01*
X56874075Y-48733963D01*
X56843668Y-48764370D01*
X56775152Y-48798628D01*
X56486905Y-48798628D01*
X56486905Y-48424819D01*
X56775152Y-48424819D01*
X56843668Y-48459077D01*
G37*
G36*
X58153571Y-49567676D02*
G01*
X56194048Y-49567676D01*
X56194048Y-49349819D01*
X56336905Y-49349819D01*
X56354452Y-49398028D01*
X56398881Y-49423680D01*
X56449405Y-49414771D01*
X56482382Y-49375471D01*
X56486905Y-49349819D01*
X56486905Y-49343283D01*
X57241953Y-49343283D01*
X57247794Y-49365085D01*
X57251715Y-49387319D01*
X57254342Y-49389523D01*
X57255230Y-49392837D01*
X57273721Y-49405785D01*
X57291015Y-49420296D01*
X57295599Y-49421104D01*
X57297256Y-49422264D01*
X57300544Y-49421976D01*
X57316667Y-49424819D01*
X57935714Y-49424819D01*
X57983923Y-49407272D01*
X58009575Y-49362843D01*
X58000666Y-49312319D01*
X57961366Y-49279342D01*
X57935714Y-49274819D01*
X57497733Y-49274819D01*
X57941128Y-48831423D01*
X57943023Y-48827358D01*
X57946843Y-48825012D01*
X57959246Y-48802107D01*
X58006865Y-48659251D01*
X58006820Y-48657615D01*
X58010714Y-48635533D01*
X58010714Y-48540295D01*
X58009180Y-48536081D01*
X58010222Y-48531720D01*
X58002796Y-48506754D01*
X57955177Y-48411516D01*
X57953987Y-48410390D01*
X57941128Y-48392024D01*
X57893509Y-48344405D01*
X57892027Y-48343714D01*
X57874017Y-48330356D01*
X57778779Y-48282737D01*
X57774325Y-48282224D01*
X57770890Y-48279342D01*
X57745238Y-48274819D01*
X57507143Y-48274819D01*
X57502929Y-48276352D01*
X57498568Y-48275311D01*
X57473602Y-48282737D01*
X57378364Y-48330356D01*
X57377238Y-48331545D01*
X57358872Y-48344405D01*
X57311253Y-48392024D01*
X57289572Y-48438521D01*
X57302849Y-48488075D01*
X57344875Y-48517502D01*
X57395982Y-48513030D01*
X57417319Y-48498090D01*
X57456332Y-48459077D01*
X57524848Y-48424819D01*
X57727533Y-48424819D01*
X57796049Y-48459077D01*
X57826456Y-48489484D01*
X57860714Y-48558000D01*
X57860714Y-48623363D01*
X57822542Y-48737876D01*
X57263634Y-49296786D01*
X57254096Y-49317239D01*
X57242806Y-49336795D01*
X57243402Y-49340175D01*
X57241953Y-49343283D01*
X56486905Y-49343283D01*
X56486905Y-48948628D01*
X56792857Y-48948628D01*
X56797070Y-48947094D01*
X56801431Y-48948136D01*
X56826398Y-48940710D01*
X56921636Y-48893091D01*
X56922761Y-48891901D01*
X56941128Y-48879042D01*
X56988747Y-48831423D01*
X56989438Y-48829941D01*
X57002796Y-48811931D01*
X57050415Y-48716693D01*
X57050927Y-48712239D01*
X57053810Y-48708804D01*
X57058333Y-48683152D01*
X57058333Y-48540295D01*
X57056799Y-48536081D01*
X57057841Y-48531720D01*
X57050415Y-48506754D01*
X57002796Y-48411516D01*
X57001606Y-48410390D01*
X56988747Y-48392024D01*
X56941128Y-48344405D01*
X56939646Y-48343714D01*
X56921636Y-48330356D01*
X56826398Y-48282737D01*
X56821944Y-48282224D01*
X56818509Y-48279342D01*
X56792857Y-48274819D01*
X56411905Y-48274819D01*
X56393596Y-48281482D01*
X56374405Y-48284867D01*
X56370054Y-48290051D01*
X56363696Y-48292366D01*
X56353953Y-48309239D01*
X56341428Y-48324167D01*
X56339710Y-48333909D01*
X56338044Y-48336795D01*
X56338622Y-48340077D01*
X56336905Y-48349819D01*
X56336905Y-49349819D01*
X56194048Y-49349819D01*
X56194048Y-48131962D01*
X58153571Y-48131962D01*
X58153571Y-49567676D01*
G37*
G36*
X74623668Y-48459077D02*
G01*
X74654075Y-48489484D01*
X74688333Y-48558000D01*
X74688333Y-48665447D01*
X74654075Y-48733963D01*
X74623668Y-48764370D01*
X74555152Y-48798628D01*
X74266905Y-48798628D01*
X74266905Y-48424819D01*
X74555152Y-48424819D01*
X74623668Y-48459077D01*
G37*
G36*
X75933571Y-49567676D02*
G01*
X73974048Y-49567676D01*
X73974048Y-49349819D01*
X74116905Y-49349819D01*
X74134452Y-49398028D01*
X74178881Y-49423680D01*
X74229405Y-49414771D01*
X74262382Y-49375471D01*
X74266905Y-49349819D01*
X74266905Y-48948628D01*
X74572857Y-48948628D01*
X74577070Y-48947094D01*
X74581431Y-48948136D01*
X74606398Y-48940710D01*
X74701636Y-48893091D01*
X74702761Y-48891901D01*
X74721128Y-48879042D01*
X74768747Y-48831423D01*
X74769438Y-48829941D01*
X74782796Y-48811931D01*
X74830415Y-48716693D01*
X74830927Y-48712239D01*
X74833810Y-48708804D01*
X74838333Y-48683152D01*
X74838333Y-48540295D01*
X74836799Y-48536081D01*
X74837841Y-48531720D01*
X74830415Y-48506754D01*
X74782796Y-48411516D01*
X74781606Y-48410390D01*
X74768747Y-48392024D01*
X74721128Y-48344405D01*
X74719646Y-48343714D01*
X74710317Y-48336795D01*
X75022806Y-48336795D01*
X75031715Y-48387319D01*
X75071015Y-48420296D01*
X75096667Y-48424819D01*
X75550432Y-48424819D01*
X75325938Y-48681383D01*
X75318631Y-48700234D01*
X75308520Y-48717747D01*
X75309559Y-48723640D01*
X75307397Y-48729219D01*
X75313917Y-48748358D01*
X75317429Y-48768271D01*
X75322012Y-48772116D01*
X75323942Y-48777781D01*
X75341240Y-48788251D01*
X75356729Y-48801248D01*
X75365172Y-48802736D01*
X75367831Y-48804346D01*
X75371272Y-48803812D01*
X75382381Y-48805771D01*
X75507533Y-48805771D01*
X75576049Y-48840029D01*
X75606456Y-48870436D01*
X75640714Y-48938952D01*
X75640714Y-49141637D01*
X75606455Y-49210153D01*
X75576048Y-49240561D01*
X75507533Y-49274819D01*
X75257229Y-49274819D01*
X75188713Y-49240561D01*
X75149701Y-49201548D01*
X75103204Y-49179866D01*
X75053649Y-49193143D01*
X75024223Y-49235168D01*
X75028693Y-49286275D01*
X75043633Y-49307612D01*
X75091252Y-49355232D01*
X75092733Y-49355922D01*
X75110745Y-49369282D01*
X75205983Y-49416901D01*
X75210436Y-49417413D01*
X75213872Y-49420296D01*
X75239524Y-49424819D01*
X75525238Y-49424819D01*
X75529451Y-49423285D01*
X75533812Y-49424327D01*
X75558779Y-49416901D01*
X75654017Y-49369282D01*
X75655141Y-49368094D01*
X75673510Y-49355232D01*
X75721128Y-49307613D01*
X75721818Y-49306131D01*
X75735177Y-49288121D01*
X75782796Y-49192883D01*
X75783308Y-49188429D01*
X75786191Y-49184994D01*
X75790714Y-49159342D01*
X75790714Y-48921247D01*
X75789180Y-48917033D01*
X75790222Y-48912672D01*
X75782796Y-48887706D01*
X75735177Y-48792468D01*
X75733987Y-48791342D01*
X75721128Y-48772976D01*
X75673509Y-48725357D01*
X75672027Y-48724666D01*
X75654017Y-48711308D01*
X75558779Y-48663689D01*
X75554325Y-48663176D01*
X75550890Y-48660294D01*
X75544666Y-48659196D01*
X75772157Y-48399207D01*
X75779463Y-48380355D01*
X75789575Y-48362843D01*
X75788535Y-48356949D01*
X75790698Y-48351371D01*
X75784177Y-48332231D01*
X75780666Y-48312319D01*
X75776082Y-48308473D01*
X75774153Y-48302809D01*
X75756854Y-48292338D01*
X75741366Y-48279342D01*
X75732922Y-48277853D01*
X75730264Y-48276244D01*
X75726822Y-48276777D01*
X75715714Y-48274819D01*
X75096667Y-48274819D01*
X75048458Y-48292366D01*
X75022806Y-48336795D01*
X74710317Y-48336795D01*
X74701636Y-48330356D01*
X74606398Y-48282737D01*
X74601944Y-48282224D01*
X74598509Y-48279342D01*
X74572857Y-48274819D01*
X74191905Y-48274819D01*
X74173596Y-48281482D01*
X74154405Y-48284867D01*
X74150054Y-48290051D01*
X74143696Y-48292366D01*
X74133953Y-48309239D01*
X74121428Y-48324167D01*
X74119710Y-48333909D01*
X74118044Y-48336795D01*
X74118622Y-48340077D01*
X74116905Y-48349819D01*
X74116905Y-49349819D01*
X73974048Y-49349819D01*
X73974048Y-48131962D01*
X75933571Y-48131962D01*
X75933571Y-49567676D01*
G37*
G36*
X92403668Y-48459077D02*
G01*
X92434075Y-48489484D01*
X92468333Y-48558000D01*
X92468333Y-48665447D01*
X92434075Y-48733963D01*
X92403668Y-48764370D01*
X92335152Y-48798628D01*
X92046905Y-48798628D01*
X92046905Y-48424819D01*
X92335152Y-48424819D01*
X92403668Y-48459077D01*
G37*
G36*
X93760051Y-49566537D02*
G01*
X91754048Y-49566537D01*
X91754048Y-49349819D01*
X91896905Y-49349819D01*
X91914452Y-49398028D01*
X91958881Y-49423680D01*
X92009405Y-49414771D01*
X92042382Y-49375471D01*
X92046905Y-49349819D01*
X92046905Y-49003461D01*
X92850425Y-49003461D01*
X92853977Y-49023607D01*
X92854536Y-49044052D01*
X92858338Y-49048340D01*
X92859334Y-49053985D01*
X92875001Y-49067131D01*
X92888573Y-49082437D01*
X92894243Y-49083277D01*
X92898634Y-49086962D01*
X92924286Y-49091485D01*
X93325476Y-49091485D01*
X93325476Y-49349819D01*
X93343023Y-49398028D01*
X93387452Y-49423680D01*
X93437976Y-49414771D01*
X93470953Y-49375471D01*
X93475476Y-49349819D01*
X93475476Y-49091485D01*
X93543333Y-49091485D01*
X93591542Y-49073938D01*
X93617194Y-49029509D01*
X93608285Y-48978985D01*
X93568985Y-48946008D01*
X93543333Y-48941485D01*
X93475476Y-48941485D01*
X93475476Y-48683152D01*
X93457929Y-48634943D01*
X93413500Y-48609291D01*
X93362976Y-48618200D01*
X93329999Y-48657500D01*
X93325476Y-48683152D01*
X93325476Y-48941485D01*
X93028343Y-48941485D01*
X93233532Y-48325918D01*
X93232131Y-48274634D01*
X93198093Y-48236248D01*
X93147345Y-48228723D01*
X93103632Y-48255578D01*
X93091230Y-48278483D01*
X92853135Y-48992768D01*
X92853291Y-48998496D01*
X92850425Y-49003461D01*
X92046905Y-49003461D01*
X92046905Y-48948628D01*
X92352857Y-48948628D01*
X92357070Y-48947094D01*
X92361431Y-48948136D01*
X92386398Y-48940710D01*
X92481636Y-48893091D01*
X92482761Y-48891901D01*
X92501128Y-48879042D01*
X92548747Y-48831423D01*
X92549438Y-48829941D01*
X92562796Y-48811931D01*
X92610415Y-48716693D01*
X92610927Y-48712239D01*
X92613810Y-48708804D01*
X92618333Y-48683152D01*
X92618333Y-48540295D01*
X92616799Y-48536081D01*
X92617841Y-48531720D01*
X92610415Y-48506754D01*
X92562796Y-48411516D01*
X92561606Y-48410390D01*
X92548747Y-48392024D01*
X92501128Y-48344405D01*
X92499646Y-48343714D01*
X92481636Y-48330356D01*
X92386398Y-48282737D01*
X92381944Y-48282224D01*
X92378509Y-48279342D01*
X92352857Y-48274819D01*
X91971905Y-48274819D01*
X91953596Y-48281482D01*
X91934405Y-48284867D01*
X91930054Y-48290051D01*
X91923696Y-48292366D01*
X91913953Y-48309239D01*
X91901428Y-48324167D01*
X91899710Y-48333909D01*
X91898044Y-48336795D01*
X91898622Y-48340077D01*
X91896905Y-48349819D01*
X91896905Y-49349819D01*
X91754048Y-49349819D01*
X91754048Y-48085866D01*
X93760051Y-48085866D01*
X93760051Y-49566537D01*
G37*
G36*
X110183668Y-48459077D02*
G01*
X110214075Y-48489484D01*
X110248333Y-48558000D01*
X110248333Y-48665447D01*
X110214075Y-48733963D01*
X110183668Y-48764370D01*
X110115152Y-48798628D01*
X109826905Y-48798628D01*
X109826905Y-48424819D01*
X110115152Y-48424819D01*
X110183668Y-48459077D01*
G37*
G36*
X111493571Y-49567676D02*
G01*
X109534048Y-49567676D01*
X109534048Y-49349819D01*
X109676905Y-49349819D01*
X109694452Y-49398028D01*
X109738881Y-49423680D01*
X109789405Y-49414771D01*
X109822382Y-49375471D01*
X109826905Y-49349819D01*
X109826905Y-48948628D01*
X110132857Y-48948628D01*
X110137070Y-48947094D01*
X110141431Y-48948136D01*
X110166398Y-48940710D01*
X110261636Y-48893091D01*
X110262761Y-48891901D01*
X110281128Y-48879042D01*
X110328747Y-48831423D01*
X110329438Y-48829941D01*
X110337202Y-48819473D01*
X110629572Y-48819473D01*
X110636090Y-48843800D01*
X110642321Y-48868262D01*
X110642721Y-48868549D01*
X110642849Y-48869027D01*
X110663483Y-48883475D01*
X110683977Y-48898208D01*
X110684470Y-48898170D01*
X110684875Y-48898454D01*
X110709978Y-48896257D01*
X110735137Y-48894370D01*
X110735490Y-48894024D01*
X110735982Y-48893982D01*
X110757319Y-48879042D01*
X110796332Y-48840029D01*
X110864848Y-48805771D01*
X111067533Y-48805771D01*
X111136049Y-48840029D01*
X111166456Y-48870436D01*
X111200714Y-48938952D01*
X111200714Y-49141637D01*
X111166455Y-49210153D01*
X111136048Y-49240561D01*
X111067533Y-49274819D01*
X110864848Y-49274819D01*
X110796332Y-49240561D01*
X110757320Y-49201548D01*
X110710823Y-49179866D01*
X110661268Y-49193143D01*
X110631842Y-49235168D01*
X110636312Y-49286275D01*
X110651252Y-49307612D01*
X110698871Y-49355232D01*
X110700352Y-49355922D01*
X110718364Y-49369282D01*
X110813602Y-49416901D01*
X110818055Y-49417413D01*
X110821491Y-49420296D01*
X110847143Y-49424819D01*
X111085238Y-49424819D01*
X111089451Y-49423285D01*
X111093812Y-49424327D01*
X111118779Y-49416901D01*
X111214017Y-49369282D01*
X111215141Y-49368094D01*
X111233510Y-49355232D01*
X111281128Y-49307613D01*
X111281818Y-49306131D01*
X111295177Y-49288121D01*
X111342796Y-49192883D01*
X111343308Y-49188429D01*
X111346191Y-49184994D01*
X111350714Y-49159342D01*
X111350714Y-48921247D01*
X111349180Y-48917033D01*
X111350222Y-48912672D01*
X111342796Y-48887706D01*
X111295177Y-48792468D01*
X111293987Y-48791342D01*
X111281128Y-48772976D01*
X111233509Y-48725357D01*
X111232027Y-48724666D01*
X111214017Y-48711308D01*
X111118779Y-48663689D01*
X111114325Y-48663176D01*
X111110890Y-48660294D01*
X111085238Y-48655771D01*
X110847143Y-48655771D01*
X110842929Y-48657304D01*
X110838568Y-48656263D01*
X110813602Y-48663689D01*
X110794960Y-48673009D01*
X110819779Y-48424819D01*
X111228095Y-48424819D01*
X111276304Y-48407272D01*
X111301956Y-48362843D01*
X111293047Y-48312319D01*
X111253747Y-48279342D01*
X111228095Y-48274819D01*
X110751905Y-48274819D01*
X110736937Y-48280266D01*
X110721054Y-48281458D01*
X110713547Y-48288780D01*
X110703696Y-48292366D01*
X110695732Y-48306159D01*
X110684330Y-48317282D01*
X110679598Y-48334102D01*
X110678044Y-48336795D01*
X110678351Y-48338537D01*
X110677277Y-48342356D01*
X110629658Y-48818546D01*
X110629780Y-48819026D01*
X110629572Y-48819473D01*
X110337202Y-48819473D01*
X110342796Y-48811931D01*
X110390415Y-48716693D01*
X110390927Y-48712239D01*
X110393810Y-48708804D01*
X110398333Y-48683152D01*
X110398333Y-48540295D01*
X110396799Y-48536081D01*
X110397841Y-48531720D01*
X110390415Y-48506754D01*
X110342796Y-48411516D01*
X110341606Y-48410390D01*
X110328747Y-48392024D01*
X110281128Y-48344405D01*
X110279646Y-48343714D01*
X110261636Y-48330356D01*
X110166398Y-48282737D01*
X110161944Y-48282224D01*
X110158509Y-48279342D01*
X110132857Y-48274819D01*
X109751905Y-48274819D01*
X109733596Y-48281482D01*
X109714405Y-48284867D01*
X109710054Y-48290051D01*
X109703696Y-48292366D01*
X109693953Y-48309239D01*
X109681428Y-48324167D01*
X109679710Y-48333909D01*
X109678044Y-48336795D01*
X109678622Y-48340077D01*
X109676905Y-48349819D01*
X109676905Y-49349819D01*
X109534048Y-49349819D01*
X109534048Y-48131962D01*
X111493571Y-48131962D01*
X111493571Y-49567676D01*
G37*
G36*
X128916049Y-48840029D02*
G01*
X128946456Y-48870436D01*
X128980714Y-48938952D01*
X128980714Y-49141637D01*
X128946455Y-49210153D01*
X128916048Y-49240561D01*
X128847533Y-49274819D01*
X128692467Y-49274819D01*
X128623951Y-49240561D01*
X128593544Y-49210153D01*
X128559286Y-49141637D01*
X128559286Y-48938952D01*
X128593544Y-48870436D01*
X128623951Y-48840029D01*
X128692467Y-48805771D01*
X128847533Y-48805771D01*
X128916049Y-48840029D01*
G37*
G36*
X127963668Y-48459077D02*
G01*
X127994075Y-48489484D01*
X128028333Y-48558000D01*
X128028333Y-48665447D01*
X127994075Y-48733963D01*
X127963668Y-48764370D01*
X127895152Y-48798628D01*
X127606905Y-48798628D01*
X127606905Y-48424819D01*
X127895152Y-48424819D01*
X127963668Y-48459077D01*
G37*
G36*
X129273571Y-49567676D02*
G01*
X127314048Y-49567676D01*
X127314048Y-49349819D01*
X127456905Y-49349819D01*
X127474452Y-49398028D01*
X127518881Y-49423680D01*
X127569405Y-49414771D01*
X127602382Y-49375471D01*
X127606905Y-49349819D01*
X127606905Y-49159342D01*
X128409286Y-49159342D01*
X128410819Y-49163555D01*
X128409778Y-49167916D01*
X128417204Y-49192883D01*
X128464823Y-49288121D01*
X128466011Y-49289246D01*
X128478871Y-49307612D01*
X128526490Y-49355232D01*
X128527971Y-49355922D01*
X128545983Y-49369282D01*
X128641221Y-49416901D01*
X128645674Y-49417413D01*
X128649110Y-49420296D01*
X128674762Y-49424819D01*
X128865238Y-49424819D01*
X128869451Y-49423285D01*
X128873812Y-49424327D01*
X128898779Y-49416901D01*
X128994017Y-49369282D01*
X128995141Y-49368094D01*
X129013510Y-49355232D01*
X129061128Y-49307613D01*
X129061818Y-49306131D01*
X129075177Y-49288121D01*
X129122796Y-49192883D01*
X129123308Y-49188429D01*
X129126191Y-49184994D01*
X129130714Y-49159342D01*
X129130714Y-48921247D01*
X129129180Y-48917033D01*
X129130222Y-48912672D01*
X129122796Y-48887706D01*
X129075177Y-48792468D01*
X129073987Y-48791342D01*
X129061128Y-48772976D01*
X129013509Y-48725357D01*
X129012027Y-48724666D01*
X128994017Y-48711308D01*
X128898779Y-48663689D01*
X128894325Y-48663176D01*
X128890890Y-48660294D01*
X128865238Y-48655771D01*
X128674762Y-48655771D01*
X128670548Y-48657304D01*
X128666187Y-48656263D01*
X128641221Y-48663689D01*
X128582991Y-48692804D01*
X128601515Y-48618707D01*
X128685427Y-48492838D01*
X128719189Y-48459077D01*
X128787705Y-48424819D01*
X128960476Y-48424819D01*
X129008685Y-48407272D01*
X129034337Y-48362843D01*
X129025428Y-48312319D01*
X128986128Y-48279342D01*
X128960476Y-48274819D01*
X128770000Y-48274819D01*
X128765786Y-48276352D01*
X128761425Y-48275311D01*
X128736459Y-48282737D01*
X128641221Y-48330356D01*
X128640095Y-48331545D01*
X128621729Y-48344405D01*
X128574110Y-48392024D01*
X128572633Y-48395189D01*
X128564739Y-48403454D01*
X128469501Y-48546311D01*
X128469398Y-48546732D01*
X128459144Y-48569724D01*
X128411525Y-48760200D01*
X128411885Y-48763648D01*
X128409286Y-48778390D01*
X128409286Y-49159342D01*
X127606905Y-49159342D01*
X127606905Y-48948628D01*
X127912857Y-48948628D01*
X127917070Y-48947094D01*
X127921431Y-48948136D01*
X127946398Y-48940710D01*
X128041636Y-48893091D01*
X128042761Y-48891901D01*
X128061128Y-48879042D01*
X128108747Y-48831423D01*
X128109438Y-48829941D01*
X128122796Y-48811931D01*
X128170415Y-48716693D01*
X128170927Y-48712239D01*
X128173810Y-48708804D01*
X128178333Y-48683152D01*
X128178333Y-48540295D01*
X128176799Y-48536081D01*
X128177841Y-48531720D01*
X128170415Y-48506754D01*
X128122796Y-48411516D01*
X128121606Y-48410390D01*
X128108747Y-48392024D01*
X128061128Y-48344405D01*
X128059646Y-48343714D01*
X128041636Y-48330356D01*
X127946398Y-48282737D01*
X127941944Y-48282224D01*
X127938509Y-48279342D01*
X127912857Y-48274819D01*
X127531905Y-48274819D01*
X127513596Y-48281482D01*
X127494405Y-48284867D01*
X127490054Y-48290051D01*
X127483696Y-48292366D01*
X127473953Y-48309239D01*
X127461428Y-48324167D01*
X127459710Y-48333909D01*
X127458044Y-48336795D01*
X127458622Y-48340077D01*
X127456905Y-48349819D01*
X127456905Y-49349819D01*
X127314048Y-49349819D01*
X127314048Y-48131962D01*
X129273571Y-48131962D01*
X129273571Y-49567676D01*
G37*
G36*
X145743668Y-48459077D02*
G01*
X145774075Y-48489484D01*
X145808333Y-48558000D01*
X145808333Y-48665447D01*
X145774075Y-48733963D01*
X145743668Y-48764370D01*
X145675152Y-48798628D01*
X145386905Y-48798628D01*
X145386905Y-48424819D01*
X145675152Y-48424819D01*
X145743668Y-48459077D01*
G37*
G36*
X147100051Y-49567148D02*
G01*
X145094048Y-49567148D01*
X145094048Y-49349819D01*
X145236905Y-49349819D01*
X145254452Y-49398028D01*
X145298881Y-49423680D01*
X145349405Y-49414771D01*
X145382382Y-49375471D01*
X145386905Y-49349819D01*
X145386905Y-48948628D01*
X145692857Y-48948628D01*
X145697070Y-48947094D01*
X145701431Y-48948136D01*
X145726398Y-48940710D01*
X145821636Y-48893091D01*
X145822761Y-48891901D01*
X145841128Y-48879042D01*
X145888747Y-48831423D01*
X145889438Y-48829941D01*
X145902796Y-48811931D01*
X145950415Y-48716693D01*
X145950927Y-48712239D01*
X145953810Y-48708804D01*
X145958333Y-48683152D01*
X145958333Y-48540295D01*
X145956799Y-48536081D01*
X145957841Y-48531720D01*
X145950415Y-48506754D01*
X145902796Y-48411516D01*
X145901606Y-48410390D01*
X145888747Y-48392024D01*
X145841128Y-48344405D01*
X145839646Y-48343714D01*
X145830317Y-48336795D01*
X146142806Y-48336795D01*
X146151715Y-48387319D01*
X146191015Y-48420296D01*
X146216667Y-48424819D01*
X146769592Y-48424819D01*
X146385826Y-49320275D01*
X146382964Y-49371498D01*
X146413696Y-49412578D01*
X146463644Y-49424291D01*
X146509436Y-49401159D01*
X146523698Y-49379363D01*
X146952269Y-48379363D01*
X146952763Y-48370517D01*
X146957194Y-48362843D01*
X146954154Y-48345608D01*
X146955131Y-48328140D01*
X146949823Y-48321046D01*
X146948285Y-48312319D01*
X146934879Y-48301070D01*
X146924399Y-48287061D01*
X146915773Y-48285038D01*
X146908985Y-48279342D01*
X146883333Y-48274819D01*
X146216667Y-48274819D01*
X146168458Y-48292366D01*
X146142806Y-48336795D01*
X145830317Y-48336795D01*
X145821636Y-48330356D01*
X145726398Y-48282737D01*
X145721944Y-48282224D01*
X145718509Y-48279342D01*
X145692857Y-48274819D01*
X145311905Y-48274819D01*
X145293596Y-48281482D01*
X145274405Y-48284867D01*
X145270054Y-48290051D01*
X145263696Y-48292366D01*
X145253953Y-48309239D01*
X145241428Y-48324167D01*
X145239710Y-48333909D01*
X145238044Y-48336795D01*
X145238622Y-48340077D01*
X145236905Y-48349819D01*
X145236905Y-49349819D01*
X145094048Y-49349819D01*
X145094048Y-48131962D01*
X147100051Y-48131962D01*
X147100051Y-49567148D01*
G37*
D11*
X115983420Y-102926028D02*
X115983420Y-101426028D01*
X115983420Y-101426028D02*
X116840563Y-102926028D01*
X116840563Y-102926028D02*
X116840563Y-101426028D01*
X117769135Y-102926028D02*
X117626278Y-102854600D01*
X117626278Y-102854600D02*
X117554849Y-102783171D01*
X117554849Y-102783171D02*
X117483421Y-102640314D01*
X117483421Y-102640314D02*
X117483421Y-102211742D01*
X117483421Y-102211742D02*
X117554849Y-102068885D01*
X117554849Y-102068885D02*
X117626278Y-101997457D01*
X117626278Y-101997457D02*
X117769135Y-101926028D01*
X117769135Y-101926028D02*
X117983421Y-101926028D01*
X117983421Y-101926028D02*
X118126278Y-101997457D01*
X118126278Y-101997457D02*
X118197707Y-102068885D01*
X118197707Y-102068885D02*
X118269135Y-102211742D01*
X118269135Y-102211742D02*
X118269135Y-102640314D01*
X118269135Y-102640314D02*
X118197707Y-102783171D01*
X118197707Y-102783171D02*
X118126278Y-102854600D01*
X118126278Y-102854600D02*
X117983421Y-102926028D01*
X117983421Y-102926028D02*
X117769135Y-102926028D01*
X118911992Y-102926028D02*
X118911992Y-101926028D01*
X118911992Y-102211742D02*
X118983421Y-102068885D01*
X118983421Y-102068885D02*
X119054850Y-101997457D01*
X119054850Y-101997457D02*
X119197707Y-101926028D01*
X119197707Y-101926028D02*
X119340564Y-101926028D01*
X119626278Y-101926028D02*
X120197706Y-101926028D01*
X119840563Y-101426028D02*
X119840563Y-102711742D01*
X119840563Y-102711742D02*
X119911992Y-102854600D01*
X119911992Y-102854600D02*
X120054849Y-102926028D01*
X120054849Y-102926028D02*
X120197706Y-102926028D01*
X120697706Y-102926028D02*
X120697706Y-101426028D01*
X121340564Y-102926028D02*
X121340564Y-102140314D01*
X121340564Y-102140314D02*
X121269135Y-101997457D01*
X121269135Y-101997457D02*
X121126278Y-101926028D01*
X121126278Y-101926028D02*
X120911992Y-101926028D01*
X120911992Y-101926028D02*
X120769135Y-101997457D01*
X120769135Y-101997457D02*
X120697706Y-102068885D01*
X122697707Y-102926028D02*
X122697707Y-102140314D01*
X122697707Y-102140314D02*
X122626278Y-101997457D01*
X122626278Y-101997457D02*
X122483421Y-101926028D01*
X122483421Y-101926028D02*
X122197707Y-101926028D01*
X122197707Y-101926028D02*
X122054849Y-101997457D01*
X122697707Y-102854600D02*
X122554849Y-102926028D01*
X122554849Y-102926028D02*
X122197707Y-102926028D01*
X122197707Y-102926028D02*
X122054849Y-102854600D01*
X122054849Y-102854600D02*
X121983421Y-102711742D01*
X121983421Y-102711742D02*
X121983421Y-102568885D01*
X121983421Y-102568885D02*
X122054849Y-102426028D01*
X122054849Y-102426028D02*
X122197707Y-102354600D01*
X122197707Y-102354600D02*
X122554849Y-102354600D01*
X122554849Y-102354600D02*
X122697707Y-102283171D01*
X123411992Y-101926028D02*
X123411992Y-102926028D01*
X123411992Y-102068885D02*
X123483421Y-101997457D01*
X123483421Y-101997457D02*
X123626278Y-101926028D01*
X123626278Y-101926028D02*
X123840564Y-101926028D01*
X123840564Y-101926028D02*
X123983421Y-101997457D01*
X123983421Y-101997457D02*
X124054850Y-102140314D01*
X124054850Y-102140314D02*
X124054850Y-102926028D01*
X124554850Y-101926028D02*
X125126278Y-101926028D01*
X124769135Y-101426028D02*
X124769135Y-102711742D01*
X124769135Y-102711742D02*
X124840564Y-102854600D01*
X124840564Y-102854600D02*
X124983421Y-102926028D01*
X124983421Y-102926028D02*
X125126278Y-102926028D01*
X125554850Y-102854600D02*
X125697707Y-102926028D01*
X125697707Y-102926028D02*
X125983421Y-102926028D01*
X125983421Y-102926028D02*
X126126278Y-102854600D01*
X126126278Y-102854600D02*
X126197707Y-102711742D01*
X126197707Y-102711742D02*
X126197707Y-102640314D01*
X126197707Y-102640314D02*
X126126278Y-102497457D01*
X126126278Y-102497457D02*
X125983421Y-102426028D01*
X125983421Y-102426028D02*
X125769136Y-102426028D01*
X125769136Y-102426028D02*
X125626278Y-102354600D01*
X125626278Y-102354600D02*
X125554850Y-102211742D01*
X125554850Y-102211742D02*
X125554850Y-102140314D01*
X125554850Y-102140314D02*
X125626278Y-101997457D01*
X125626278Y-101997457D02*
X125769136Y-101926028D01*
X125769136Y-101926028D02*
X125983421Y-101926028D01*
X125983421Y-101926028D02*
X126126278Y-101997457D01*
X129197707Y-102926028D02*
X129126279Y-102926028D01*
X129126279Y-102926028D02*
X128983421Y-102854600D01*
X128983421Y-102854600D02*
X128769136Y-102640314D01*
X128769136Y-102640314D02*
X128411993Y-102211742D01*
X128411993Y-102211742D02*
X128269136Y-101997457D01*
X128269136Y-101997457D02*
X128197707Y-101783171D01*
X128197707Y-101783171D02*
X128197707Y-101640314D01*
X128197707Y-101640314D02*
X128269136Y-101497457D01*
X128269136Y-101497457D02*
X128411993Y-101426028D01*
X128411993Y-101426028D02*
X128483421Y-101426028D01*
X128483421Y-101426028D02*
X128626279Y-101497457D01*
X128626279Y-101497457D02*
X128697707Y-101640314D01*
X128697707Y-101640314D02*
X128697707Y-101711742D01*
X128697707Y-101711742D02*
X128626279Y-101854600D01*
X128626279Y-101854600D02*
X128554850Y-101926028D01*
X128554850Y-101926028D02*
X128126279Y-102211742D01*
X128126279Y-102211742D02*
X128054850Y-102283171D01*
X128054850Y-102283171D02*
X127983421Y-102426028D01*
X127983421Y-102426028D02*
X127983421Y-102640314D01*
X127983421Y-102640314D02*
X128054850Y-102783171D01*
X128054850Y-102783171D02*
X128126279Y-102854600D01*
X128126279Y-102854600D02*
X128269136Y-102926028D01*
X128269136Y-102926028D02*
X128483421Y-102926028D01*
X128483421Y-102926028D02*
X128626279Y-102854600D01*
X128626279Y-102854600D02*
X128697707Y-102783171D01*
X128697707Y-102783171D02*
X128911993Y-102497457D01*
X128911993Y-102497457D02*
X128983421Y-102283171D01*
X128983421Y-102283171D02*
X128983421Y-102140314D01*
X131840564Y-102783171D02*
X131769136Y-102854600D01*
X131769136Y-102854600D02*
X131554850Y-102926028D01*
X131554850Y-102926028D02*
X131411993Y-102926028D01*
X131411993Y-102926028D02*
X131197707Y-102854600D01*
X131197707Y-102854600D02*
X131054850Y-102711742D01*
X131054850Y-102711742D02*
X130983421Y-102568885D01*
X130983421Y-102568885D02*
X130911993Y-102283171D01*
X130911993Y-102283171D02*
X130911993Y-102068885D01*
X130911993Y-102068885D02*
X130983421Y-101783171D01*
X130983421Y-101783171D02*
X131054850Y-101640314D01*
X131054850Y-101640314D02*
X131197707Y-101497457D01*
X131197707Y-101497457D02*
X131411993Y-101426028D01*
X131411993Y-101426028D02*
X131554850Y-101426028D01*
X131554850Y-101426028D02*
X131769136Y-101497457D01*
X131769136Y-101497457D02*
X131840564Y-101568885D01*
X133126279Y-102926028D02*
X133126279Y-102140314D01*
X133126279Y-102140314D02*
X133054850Y-101997457D01*
X133054850Y-101997457D02*
X132911993Y-101926028D01*
X132911993Y-101926028D02*
X132626279Y-101926028D01*
X132626279Y-101926028D02*
X132483421Y-101997457D01*
X133126279Y-102854600D02*
X132983421Y-102926028D01*
X132983421Y-102926028D02*
X132626279Y-102926028D01*
X132626279Y-102926028D02*
X132483421Y-102854600D01*
X132483421Y-102854600D02*
X132411993Y-102711742D01*
X132411993Y-102711742D02*
X132411993Y-102568885D01*
X132411993Y-102568885D02*
X132483421Y-102426028D01*
X132483421Y-102426028D02*
X132626279Y-102354600D01*
X132626279Y-102354600D02*
X132983421Y-102354600D01*
X132983421Y-102354600D02*
X133126279Y-102283171D01*
X133840564Y-102926028D02*
X133840564Y-101926028D01*
X133840564Y-102068885D02*
X133911993Y-101997457D01*
X133911993Y-101997457D02*
X134054850Y-101926028D01*
X134054850Y-101926028D02*
X134269136Y-101926028D01*
X134269136Y-101926028D02*
X134411993Y-101997457D01*
X134411993Y-101997457D02*
X134483422Y-102140314D01*
X134483422Y-102140314D02*
X134483422Y-102926028D01*
X134483422Y-102140314D02*
X134554850Y-101997457D01*
X134554850Y-101997457D02*
X134697707Y-101926028D01*
X134697707Y-101926028D02*
X134911993Y-101926028D01*
X134911993Y-101926028D02*
X135054850Y-101997457D01*
X135054850Y-101997457D02*
X135126279Y-102140314D01*
X135126279Y-102140314D02*
X135126279Y-102926028D01*
X135840564Y-102926028D02*
X135840564Y-101426028D01*
X135840564Y-101997457D02*
X135983422Y-101926028D01*
X135983422Y-101926028D02*
X136269136Y-101926028D01*
X136269136Y-101926028D02*
X136411993Y-101997457D01*
X136411993Y-101997457D02*
X136483422Y-102068885D01*
X136483422Y-102068885D02*
X136554850Y-102211742D01*
X136554850Y-102211742D02*
X136554850Y-102640314D01*
X136554850Y-102640314D02*
X136483422Y-102783171D01*
X136483422Y-102783171D02*
X136411993Y-102854600D01*
X136411993Y-102854600D02*
X136269136Y-102926028D01*
X136269136Y-102926028D02*
X135983422Y-102926028D01*
X135983422Y-102926028D02*
X135840564Y-102854600D01*
X137126279Y-102854600D02*
X137269136Y-102926028D01*
X137269136Y-102926028D02*
X137554850Y-102926028D01*
X137554850Y-102926028D02*
X137697707Y-102854600D01*
X137697707Y-102854600D02*
X137769136Y-102711742D01*
X137769136Y-102711742D02*
X137769136Y-102640314D01*
X137769136Y-102640314D02*
X137697707Y-102497457D01*
X137697707Y-102497457D02*
X137554850Y-102426028D01*
X137554850Y-102426028D02*
X137340565Y-102426028D01*
X137340565Y-102426028D02*
X137197707Y-102354600D01*
X137197707Y-102354600D02*
X137126279Y-102211742D01*
X137126279Y-102211742D02*
X137126279Y-102140314D01*
X137126279Y-102140314D02*
X137197707Y-101997457D01*
X137197707Y-101997457D02*
X137340565Y-101926028D01*
X137340565Y-101926028D02*
X137554850Y-101926028D01*
X137554850Y-101926028D02*
X137697707Y-101997457D01*
X139554850Y-102926028D02*
X139554850Y-101426028D01*
X139554850Y-101426028D02*
X140411993Y-102926028D01*
X140411993Y-102926028D02*
X140411993Y-101426028D01*
X143054851Y-101497457D02*
X142911994Y-101426028D01*
X142911994Y-101426028D02*
X142697708Y-101426028D01*
X142697708Y-101426028D02*
X142483422Y-101497457D01*
X142483422Y-101497457D02*
X142340565Y-101640314D01*
X142340565Y-101640314D02*
X142269136Y-101783171D01*
X142269136Y-101783171D02*
X142197708Y-102068885D01*
X142197708Y-102068885D02*
X142197708Y-102283171D01*
X142197708Y-102283171D02*
X142269136Y-102568885D01*
X142269136Y-102568885D02*
X142340565Y-102711742D01*
X142340565Y-102711742D02*
X142483422Y-102854600D01*
X142483422Y-102854600D02*
X142697708Y-102926028D01*
X142697708Y-102926028D02*
X142840565Y-102926028D01*
X142840565Y-102926028D02*
X143054851Y-102854600D01*
X143054851Y-102854600D02*
X143126279Y-102783171D01*
X143126279Y-102783171D02*
X143126279Y-102283171D01*
X143126279Y-102283171D02*
X142840565Y-102283171D01*
X144411994Y-102926028D02*
X144411994Y-102140314D01*
X144411994Y-102140314D02*
X144340565Y-101997457D01*
X144340565Y-101997457D02*
X144197708Y-101926028D01*
X144197708Y-101926028D02*
X143911994Y-101926028D01*
X143911994Y-101926028D02*
X143769136Y-101997457D01*
X144411994Y-102854600D02*
X144269136Y-102926028D01*
X144269136Y-102926028D02*
X143911994Y-102926028D01*
X143911994Y-102926028D02*
X143769136Y-102854600D01*
X143769136Y-102854600D02*
X143697708Y-102711742D01*
X143697708Y-102711742D02*
X143697708Y-102568885D01*
X143697708Y-102568885D02*
X143769136Y-102426028D01*
X143769136Y-102426028D02*
X143911994Y-102354600D01*
X143911994Y-102354600D02*
X144269136Y-102354600D01*
X144269136Y-102354600D02*
X144411994Y-102283171D01*
X145769137Y-101926028D02*
X145769137Y-102926028D01*
X145126279Y-101926028D02*
X145126279Y-102711742D01*
X145126279Y-102711742D02*
X145197708Y-102854600D01*
X145197708Y-102854600D02*
X145340565Y-102926028D01*
X145340565Y-102926028D02*
X145554851Y-102926028D01*
X145554851Y-102926028D02*
X145697708Y-102854600D01*
X145697708Y-102854600D02*
X145769137Y-102783171D01*
X147126280Y-101926028D02*
X147126280Y-103140314D01*
X147126280Y-103140314D02*
X147054851Y-103283171D01*
X147054851Y-103283171D02*
X146983422Y-103354600D01*
X146983422Y-103354600D02*
X146840565Y-103426028D01*
X146840565Y-103426028D02*
X146626280Y-103426028D01*
X146626280Y-103426028D02*
X146483422Y-103354600D01*
X147126280Y-102854600D02*
X146983422Y-102926028D01*
X146983422Y-102926028D02*
X146697708Y-102926028D01*
X146697708Y-102926028D02*
X146554851Y-102854600D01*
X146554851Y-102854600D02*
X146483422Y-102783171D01*
X146483422Y-102783171D02*
X146411994Y-102640314D01*
X146411994Y-102640314D02*
X146411994Y-102211742D01*
X146411994Y-102211742D02*
X146483422Y-102068885D01*
X146483422Y-102068885D02*
X146554851Y-101997457D01*
X146554851Y-101997457D02*
X146697708Y-101926028D01*
X146697708Y-101926028D02*
X146983422Y-101926028D01*
X146983422Y-101926028D02*
X147126280Y-101997457D01*
X148411994Y-102854600D02*
X148269137Y-102926028D01*
X148269137Y-102926028D02*
X147983423Y-102926028D01*
X147983423Y-102926028D02*
X147840565Y-102854600D01*
X147840565Y-102854600D02*
X147769137Y-102711742D01*
X147769137Y-102711742D02*
X147769137Y-102140314D01*
X147769137Y-102140314D02*
X147840565Y-101997457D01*
X147840565Y-101997457D02*
X147983423Y-101926028D01*
X147983423Y-101926028D02*
X148269137Y-101926028D01*
X148269137Y-101926028D02*
X148411994Y-101997457D01*
X148411994Y-101997457D02*
X148483423Y-102140314D01*
X148483423Y-102140314D02*
X148483423Y-102283171D01*
X148483423Y-102283171D02*
X147769137Y-102426028D01*
X150197708Y-102854600D02*
X150411994Y-102926028D01*
X150411994Y-102926028D02*
X150769136Y-102926028D01*
X150769136Y-102926028D02*
X150911994Y-102854600D01*
X150911994Y-102854600D02*
X150983422Y-102783171D01*
X150983422Y-102783171D02*
X151054851Y-102640314D01*
X151054851Y-102640314D02*
X151054851Y-102497457D01*
X151054851Y-102497457D02*
X150983422Y-102354600D01*
X150983422Y-102354600D02*
X150911994Y-102283171D01*
X150911994Y-102283171D02*
X150769136Y-102211742D01*
X150769136Y-102211742D02*
X150483422Y-102140314D01*
X150483422Y-102140314D02*
X150340565Y-102068885D01*
X150340565Y-102068885D02*
X150269136Y-101997457D01*
X150269136Y-101997457D02*
X150197708Y-101854600D01*
X150197708Y-101854600D02*
X150197708Y-101711742D01*
X150197708Y-101711742D02*
X150269136Y-101568885D01*
X150269136Y-101568885D02*
X150340565Y-101497457D01*
X150340565Y-101497457D02*
X150483422Y-101426028D01*
X150483422Y-101426028D02*
X150840565Y-101426028D01*
X150840565Y-101426028D02*
X151054851Y-101497457D01*
X151911993Y-102926028D02*
X151769136Y-102854600D01*
X151769136Y-102854600D02*
X151697707Y-102783171D01*
X151697707Y-102783171D02*
X151626279Y-102640314D01*
X151626279Y-102640314D02*
X151626279Y-102211742D01*
X151626279Y-102211742D02*
X151697707Y-102068885D01*
X151697707Y-102068885D02*
X151769136Y-101997457D01*
X151769136Y-101997457D02*
X151911993Y-101926028D01*
X151911993Y-101926028D02*
X152126279Y-101926028D01*
X152126279Y-101926028D02*
X152269136Y-101997457D01*
X152269136Y-101997457D02*
X152340565Y-102068885D01*
X152340565Y-102068885D02*
X152411993Y-102211742D01*
X152411993Y-102211742D02*
X152411993Y-102640314D01*
X152411993Y-102640314D02*
X152340565Y-102783171D01*
X152340565Y-102783171D02*
X152269136Y-102854600D01*
X152269136Y-102854600D02*
X152126279Y-102926028D01*
X152126279Y-102926028D02*
X151911993Y-102926028D01*
X153697708Y-102854600D02*
X153554850Y-102926028D01*
X153554850Y-102926028D02*
X153269136Y-102926028D01*
X153269136Y-102926028D02*
X153126279Y-102854600D01*
X153126279Y-102854600D02*
X153054850Y-102783171D01*
X153054850Y-102783171D02*
X152983422Y-102640314D01*
X152983422Y-102640314D02*
X152983422Y-102211742D01*
X152983422Y-102211742D02*
X153054850Y-102068885D01*
X153054850Y-102068885D02*
X153126279Y-101997457D01*
X153126279Y-101997457D02*
X153269136Y-101926028D01*
X153269136Y-101926028D02*
X153554850Y-101926028D01*
X153554850Y-101926028D02*
X153697708Y-101997457D01*
X154340564Y-102926028D02*
X154340564Y-101926028D01*
X154340564Y-101426028D02*
X154269136Y-101497457D01*
X154269136Y-101497457D02*
X154340564Y-101568885D01*
X154340564Y-101568885D02*
X154411993Y-101497457D01*
X154411993Y-101497457D02*
X154340564Y-101426028D01*
X154340564Y-101426028D02*
X154340564Y-101568885D01*
X155626279Y-102854600D02*
X155483422Y-102926028D01*
X155483422Y-102926028D02*
X155197708Y-102926028D01*
X155197708Y-102926028D02*
X155054850Y-102854600D01*
X155054850Y-102854600D02*
X154983422Y-102711742D01*
X154983422Y-102711742D02*
X154983422Y-102140314D01*
X154983422Y-102140314D02*
X155054850Y-101997457D01*
X155054850Y-101997457D02*
X155197708Y-101926028D01*
X155197708Y-101926028D02*
X155483422Y-101926028D01*
X155483422Y-101926028D02*
X155626279Y-101997457D01*
X155626279Y-101997457D02*
X155697708Y-102140314D01*
X155697708Y-102140314D02*
X155697708Y-102283171D01*
X155697708Y-102283171D02*
X154983422Y-102426028D01*
X156126279Y-101926028D02*
X156697707Y-101926028D01*
X156340564Y-101426028D02*
X156340564Y-102711742D01*
X156340564Y-102711742D02*
X156411993Y-102854600D01*
X156411993Y-102854600D02*
X156554850Y-102926028D01*
X156554850Y-102926028D02*
X156697707Y-102926028D01*
X157054850Y-101926028D02*
X157411993Y-102926028D01*
X157769136Y-101926028D02*
X157411993Y-102926028D01*
X157411993Y-102926028D02*
X157269136Y-103283171D01*
X157269136Y-103283171D02*
X157197707Y-103354600D01*
X157197707Y-103354600D02*
X157054850Y-103426028D01*
X103197709Y-105198171D02*
X103126281Y-105269600D01*
X103126281Y-105269600D02*
X102911995Y-105341028D01*
X102911995Y-105341028D02*
X102769138Y-105341028D01*
X102769138Y-105341028D02*
X102554852Y-105269600D01*
X102554852Y-105269600D02*
X102411995Y-105126742D01*
X102411995Y-105126742D02*
X102340566Y-104983885D01*
X102340566Y-104983885D02*
X102269138Y-104698171D01*
X102269138Y-104698171D02*
X102269138Y-104483885D01*
X102269138Y-104483885D02*
X102340566Y-104198171D01*
X102340566Y-104198171D02*
X102411995Y-104055314D01*
X102411995Y-104055314D02*
X102554852Y-103912457D01*
X102554852Y-103912457D02*
X102769138Y-103841028D01*
X102769138Y-103841028D02*
X102911995Y-103841028D01*
X102911995Y-103841028D02*
X103126281Y-103912457D01*
X103126281Y-103912457D02*
X103197709Y-103983885D01*
X103840566Y-105341028D02*
X103840566Y-104341028D01*
X103840566Y-104626742D02*
X103911995Y-104483885D01*
X103911995Y-104483885D02*
X103983424Y-104412457D01*
X103983424Y-104412457D02*
X104126281Y-104341028D01*
X104126281Y-104341028D02*
X104269138Y-104341028D01*
X104983423Y-105341028D02*
X104840566Y-105269600D01*
X104840566Y-105269600D02*
X104769137Y-105198171D01*
X104769137Y-105198171D02*
X104697709Y-105055314D01*
X104697709Y-105055314D02*
X104697709Y-104626742D01*
X104697709Y-104626742D02*
X104769137Y-104483885D01*
X104769137Y-104483885D02*
X104840566Y-104412457D01*
X104840566Y-104412457D02*
X104983423Y-104341028D01*
X104983423Y-104341028D02*
X105197709Y-104341028D01*
X105197709Y-104341028D02*
X105340566Y-104412457D01*
X105340566Y-104412457D02*
X105411995Y-104483885D01*
X105411995Y-104483885D02*
X105483423Y-104626742D01*
X105483423Y-104626742D02*
X105483423Y-105055314D01*
X105483423Y-105055314D02*
X105411995Y-105198171D01*
X105411995Y-105198171D02*
X105340566Y-105269600D01*
X105340566Y-105269600D02*
X105197709Y-105341028D01*
X105197709Y-105341028D02*
X104983423Y-105341028D01*
X105983423Y-104341028D02*
X106269138Y-105341028D01*
X106269138Y-105341028D02*
X106554852Y-104626742D01*
X106554852Y-104626742D02*
X106840566Y-105341028D01*
X106840566Y-105341028D02*
X107126280Y-104341028D01*
X107911995Y-105341028D02*
X107769138Y-105269600D01*
X107769138Y-105269600D02*
X107697709Y-105126742D01*
X107697709Y-105126742D02*
X107697709Y-103841028D01*
X109126281Y-105341028D02*
X109126281Y-104555314D01*
X109126281Y-104555314D02*
X109054852Y-104412457D01*
X109054852Y-104412457D02*
X108911995Y-104341028D01*
X108911995Y-104341028D02*
X108626281Y-104341028D01*
X108626281Y-104341028D02*
X108483423Y-104412457D01*
X109126281Y-105269600D02*
X108983423Y-105341028D01*
X108983423Y-105341028D02*
X108626281Y-105341028D01*
X108626281Y-105341028D02*
X108483423Y-105269600D01*
X108483423Y-105269600D02*
X108411995Y-105126742D01*
X108411995Y-105126742D02*
X108411995Y-104983885D01*
X108411995Y-104983885D02*
X108483423Y-104841028D01*
X108483423Y-104841028D02*
X108626281Y-104769600D01*
X108626281Y-104769600D02*
X108983423Y-104769600D01*
X108983423Y-104769600D02*
X109126281Y-104698171D01*
X109840566Y-104341028D02*
X109840566Y-105341028D01*
X109840566Y-104483885D02*
X109911995Y-104412457D01*
X109911995Y-104412457D02*
X110054852Y-104341028D01*
X110054852Y-104341028D02*
X110269138Y-104341028D01*
X110269138Y-104341028D02*
X110411995Y-104412457D01*
X110411995Y-104412457D02*
X110483424Y-104555314D01*
X110483424Y-104555314D02*
X110483424Y-105341028D01*
X111840567Y-105341028D02*
X111840567Y-103841028D01*
X111840567Y-105269600D02*
X111697709Y-105341028D01*
X111697709Y-105341028D02*
X111411995Y-105341028D01*
X111411995Y-105341028D02*
X111269138Y-105269600D01*
X111269138Y-105269600D02*
X111197709Y-105198171D01*
X111197709Y-105198171D02*
X111126281Y-105055314D01*
X111126281Y-105055314D02*
X111126281Y-104626742D01*
X111126281Y-104626742D02*
X111197709Y-104483885D01*
X111197709Y-104483885D02*
X111269138Y-104412457D01*
X111269138Y-104412457D02*
X111411995Y-104341028D01*
X111411995Y-104341028D02*
X111697709Y-104341028D01*
X111697709Y-104341028D02*
X111840567Y-104412457D01*
X114483424Y-103912457D02*
X114340567Y-103841028D01*
X114340567Y-103841028D02*
X114126281Y-103841028D01*
X114126281Y-103841028D02*
X113911995Y-103912457D01*
X113911995Y-103912457D02*
X113769138Y-104055314D01*
X113769138Y-104055314D02*
X113697709Y-104198171D01*
X113697709Y-104198171D02*
X113626281Y-104483885D01*
X113626281Y-104483885D02*
X113626281Y-104698171D01*
X113626281Y-104698171D02*
X113697709Y-104983885D01*
X113697709Y-104983885D02*
X113769138Y-105126742D01*
X113769138Y-105126742D02*
X113911995Y-105269600D01*
X113911995Y-105269600D02*
X114126281Y-105341028D01*
X114126281Y-105341028D02*
X114269138Y-105341028D01*
X114269138Y-105341028D02*
X114483424Y-105269600D01*
X114483424Y-105269600D02*
X114554852Y-105198171D01*
X114554852Y-105198171D02*
X114554852Y-104698171D01*
X114554852Y-104698171D02*
X114269138Y-104698171D01*
X115197709Y-105341028D02*
X115197709Y-104341028D01*
X115197709Y-104626742D02*
X115269138Y-104483885D01*
X115269138Y-104483885D02*
X115340567Y-104412457D01*
X115340567Y-104412457D02*
X115483424Y-104341028D01*
X115483424Y-104341028D02*
X115626281Y-104341028D01*
X116697709Y-105269600D02*
X116554852Y-105341028D01*
X116554852Y-105341028D02*
X116269138Y-105341028D01*
X116269138Y-105341028D02*
X116126280Y-105269600D01*
X116126280Y-105269600D02*
X116054852Y-105126742D01*
X116054852Y-105126742D02*
X116054852Y-104555314D01*
X116054852Y-104555314D02*
X116126280Y-104412457D01*
X116126280Y-104412457D02*
X116269138Y-104341028D01*
X116269138Y-104341028D02*
X116554852Y-104341028D01*
X116554852Y-104341028D02*
X116697709Y-104412457D01*
X116697709Y-104412457D02*
X116769138Y-104555314D01*
X116769138Y-104555314D02*
X116769138Y-104698171D01*
X116769138Y-104698171D02*
X116054852Y-104841028D01*
X117983423Y-105269600D02*
X117840566Y-105341028D01*
X117840566Y-105341028D02*
X117554852Y-105341028D01*
X117554852Y-105341028D02*
X117411994Y-105269600D01*
X117411994Y-105269600D02*
X117340566Y-105126742D01*
X117340566Y-105126742D02*
X117340566Y-104555314D01*
X117340566Y-104555314D02*
X117411994Y-104412457D01*
X117411994Y-104412457D02*
X117554852Y-104341028D01*
X117554852Y-104341028D02*
X117840566Y-104341028D01*
X117840566Y-104341028D02*
X117983423Y-104412457D01*
X117983423Y-104412457D02*
X118054852Y-104555314D01*
X118054852Y-104555314D02*
X118054852Y-104698171D01*
X118054852Y-104698171D02*
X117340566Y-104841028D01*
X118697708Y-104341028D02*
X118697708Y-105341028D01*
X118697708Y-104483885D02*
X118769137Y-104412457D01*
X118769137Y-104412457D02*
X118911994Y-104341028D01*
X118911994Y-104341028D02*
X119126280Y-104341028D01*
X119126280Y-104341028D02*
X119269137Y-104412457D01*
X119269137Y-104412457D02*
X119340566Y-104555314D01*
X119340566Y-104555314D02*
X119340566Y-105341028D01*
X121697708Y-104555314D02*
X121197708Y-104555314D01*
X121197708Y-105341028D02*
X121197708Y-103841028D01*
X121197708Y-103841028D02*
X121911994Y-103841028D01*
X122483422Y-105341028D02*
X122483422Y-104341028D01*
X122483422Y-103841028D02*
X122411994Y-103912457D01*
X122411994Y-103912457D02*
X122483422Y-103983885D01*
X122483422Y-103983885D02*
X122554851Y-103912457D01*
X122554851Y-103912457D02*
X122483422Y-103841028D01*
X122483422Y-103841028D02*
X122483422Y-103983885D01*
X123840566Y-105341028D02*
X123840566Y-103841028D01*
X123840566Y-105269600D02*
X123697708Y-105341028D01*
X123697708Y-105341028D02*
X123411994Y-105341028D01*
X123411994Y-105341028D02*
X123269137Y-105269600D01*
X123269137Y-105269600D02*
X123197708Y-105198171D01*
X123197708Y-105198171D02*
X123126280Y-105055314D01*
X123126280Y-105055314D02*
X123126280Y-104626742D01*
X123126280Y-104626742D02*
X123197708Y-104483885D01*
X123197708Y-104483885D02*
X123269137Y-104412457D01*
X123269137Y-104412457D02*
X123411994Y-104341028D01*
X123411994Y-104341028D02*
X123697708Y-104341028D01*
X123697708Y-104341028D02*
X123840566Y-104412457D01*
X125197709Y-105341028D02*
X125197709Y-103841028D01*
X125197709Y-105269600D02*
X125054851Y-105341028D01*
X125054851Y-105341028D02*
X124769137Y-105341028D01*
X124769137Y-105341028D02*
X124626280Y-105269600D01*
X124626280Y-105269600D02*
X124554851Y-105198171D01*
X124554851Y-105198171D02*
X124483423Y-105055314D01*
X124483423Y-105055314D02*
X124483423Y-104626742D01*
X124483423Y-104626742D02*
X124554851Y-104483885D01*
X124554851Y-104483885D02*
X124626280Y-104412457D01*
X124626280Y-104412457D02*
X124769137Y-104341028D01*
X124769137Y-104341028D02*
X125054851Y-104341028D01*
X125054851Y-104341028D02*
X125197709Y-104412457D01*
X126126280Y-105341028D02*
X125983423Y-105269600D01*
X125983423Y-105269600D02*
X125911994Y-105126742D01*
X125911994Y-105126742D02*
X125911994Y-103841028D01*
X127269137Y-105269600D02*
X127126280Y-105341028D01*
X127126280Y-105341028D02*
X126840566Y-105341028D01*
X126840566Y-105341028D02*
X126697708Y-105269600D01*
X126697708Y-105269600D02*
X126626280Y-105126742D01*
X126626280Y-105126742D02*
X126626280Y-104555314D01*
X126626280Y-104555314D02*
X126697708Y-104412457D01*
X126697708Y-104412457D02*
X126840566Y-104341028D01*
X126840566Y-104341028D02*
X127126280Y-104341028D01*
X127126280Y-104341028D02*
X127269137Y-104412457D01*
X127269137Y-104412457D02*
X127340566Y-104555314D01*
X127340566Y-104555314D02*
X127340566Y-104698171D01*
X127340566Y-104698171D02*
X126626280Y-104841028D01*
X129411994Y-104626742D02*
X129411994Y-105341028D01*
X128911994Y-103841028D02*
X129411994Y-104626742D01*
X129411994Y-104626742D02*
X129911994Y-103841028D01*
X131054851Y-105341028D02*
X131054851Y-104555314D01*
X131054851Y-104555314D02*
X130983422Y-104412457D01*
X130983422Y-104412457D02*
X130840565Y-104341028D01*
X130840565Y-104341028D02*
X130554851Y-104341028D01*
X130554851Y-104341028D02*
X130411993Y-104412457D01*
X131054851Y-105269600D02*
X130911993Y-105341028D01*
X130911993Y-105341028D02*
X130554851Y-105341028D01*
X130554851Y-105341028D02*
X130411993Y-105269600D01*
X130411993Y-105269600D02*
X130340565Y-105126742D01*
X130340565Y-105126742D02*
X130340565Y-104983885D01*
X130340565Y-104983885D02*
X130411993Y-104841028D01*
X130411993Y-104841028D02*
X130554851Y-104769600D01*
X130554851Y-104769600D02*
X130911993Y-104769600D01*
X130911993Y-104769600D02*
X131054851Y-104698171D01*
X131769136Y-105341028D02*
X131769136Y-104341028D01*
X131769136Y-104626742D02*
X131840565Y-104483885D01*
X131840565Y-104483885D02*
X131911994Y-104412457D01*
X131911994Y-104412457D02*
X132054851Y-104341028D01*
X132054851Y-104341028D02*
X132197708Y-104341028D01*
X133340565Y-105341028D02*
X133340565Y-103841028D01*
X133340565Y-105269600D02*
X133197707Y-105341028D01*
X133197707Y-105341028D02*
X132911993Y-105341028D01*
X132911993Y-105341028D02*
X132769136Y-105269600D01*
X132769136Y-105269600D02*
X132697707Y-105198171D01*
X132697707Y-105198171D02*
X132626279Y-105055314D01*
X132626279Y-105055314D02*
X132626279Y-104626742D01*
X132626279Y-104626742D02*
X132697707Y-104483885D01*
X132697707Y-104483885D02*
X132769136Y-104412457D01*
X132769136Y-104412457D02*
X132911993Y-104341028D01*
X132911993Y-104341028D02*
X133197707Y-104341028D01*
X133197707Y-104341028D02*
X133340565Y-104412457D01*
X135197707Y-104769600D02*
X136340565Y-104769600D01*
X138197707Y-105341028D02*
X138197707Y-103841028D01*
X138197707Y-103841028D02*
X138769136Y-103841028D01*
X138769136Y-103841028D02*
X138911993Y-103912457D01*
X138911993Y-103912457D02*
X138983422Y-103983885D01*
X138983422Y-103983885D02*
X139054850Y-104126742D01*
X139054850Y-104126742D02*
X139054850Y-104341028D01*
X139054850Y-104341028D02*
X138983422Y-104483885D01*
X138983422Y-104483885D02*
X138911993Y-104555314D01*
X138911993Y-104555314D02*
X138769136Y-104626742D01*
X138769136Y-104626742D02*
X138197707Y-104626742D01*
X140269136Y-105269600D02*
X140126279Y-105341028D01*
X140126279Y-105341028D02*
X139840565Y-105341028D01*
X139840565Y-105341028D02*
X139697707Y-105269600D01*
X139697707Y-105269600D02*
X139626279Y-105126742D01*
X139626279Y-105126742D02*
X139626279Y-104555314D01*
X139626279Y-104555314D02*
X139697707Y-104412457D01*
X139697707Y-104412457D02*
X139840565Y-104341028D01*
X139840565Y-104341028D02*
X140126279Y-104341028D01*
X140126279Y-104341028D02*
X140269136Y-104412457D01*
X140269136Y-104412457D02*
X140340565Y-104555314D01*
X140340565Y-104555314D02*
X140340565Y-104698171D01*
X140340565Y-104698171D02*
X139626279Y-104841028D01*
X140769136Y-104341028D02*
X141340564Y-104341028D01*
X140983421Y-103841028D02*
X140983421Y-105126742D01*
X140983421Y-105126742D02*
X141054850Y-105269600D01*
X141054850Y-105269600D02*
X141197707Y-105341028D01*
X141197707Y-105341028D02*
X141340564Y-105341028D01*
X142411993Y-105269600D02*
X142269136Y-105341028D01*
X142269136Y-105341028D02*
X141983422Y-105341028D01*
X141983422Y-105341028D02*
X141840564Y-105269600D01*
X141840564Y-105269600D02*
X141769136Y-105126742D01*
X141769136Y-105126742D02*
X141769136Y-104555314D01*
X141769136Y-104555314D02*
X141840564Y-104412457D01*
X141840564Y-104412457D02*
X141983422Y-104341028D01*
X141983422Y-104341028D02*
X142269136Y-104341028D01*
X142269136Y-104341028D02*
X142411993Y-104412457D01*
X142411993Y-104412457D02*
X142483422Y-104555314D01*
X142483422Y-104555314D02*
X142483422Y-104698171D01*
X142483422Y-104698171D02*
X141769136Y-104841028D01*
X143126278Y-105341028D02*
X143126278Y-104341028D01*
X143126278Y-104626742D02*
X143197707Y-104483885D01*
X143197707Y-104483885D02*
X143269136Y-104412457D01*
X143269136Y-104412457D02*
X143411993Y-104341028D01*
X143411993Y-104341028D02*
X143554850Y-104341028D01*
X144054849Y-105341028D02*
X144054849Y-103841028D01*
X144054849Y-104412457D02*
X144197707Y-104341028D01*
X144197707Y-104341028D02*
X144483421Y-104341028D01*
X144483421Y-104341028D02*
X144626278Y-104412457D01*
X144626278Y-104412457D02*
X144697707Y-104483885D01*
X144697707Y-104483885D02*
X144769135Y-104626742D01*
X144769135Y-104626742D02*
X144769135Y-105055314D01*
X144769135Y-105055314D02*
X144697707Y-105198171D01*
X144697707Y-105198171D02*
X144626278Y-105269600D01*
X144626278Y-105269600D02*
X144483421Y-105341028D01*
X144483421Y-105341028D02*
X144197707Y-105341028D01*
X144197707Y-105341028D02*
X144054849Y-105269600D01*
X145626278Y-105341028D02*
X145483421Y-105269600D01*
X145483421Y-105269600D02*
X145411992Y-105198171D01*
X145411992Y-105198171D02*
X145340564Y-105055314D01*
X145340564Y-105055314D02*
X145340564Y-104626742D01*
X145340564Y-104626742D02*
X145411992Y-104483885D01*
X145411992Y-104483885D02*
X145483421Y-104412457D01*
X145483421Y-104412457D02*
X145626278Y-104341028D01*
X145626278Y-104341028D02*
X145840564Y-104341028D01*
X145840564Y-104341028D02*
X145983421Y-104412457D01*
X145983421Y-104412457D02*
X146054850Y-104483885D01*
X146054850Y-104483885D02*
X146126278Y-104626742D01*
X146126278Y-104626742D02*
X146126278Y-105055314D01*
X146126278Y-105055314D02*
X146054850Y-105198171D01*
X146054850Y-105198171D02*
X145983421Y-105269600D01*
X145983421Y-105269600D02*
X145840564Y-105341028D01*
X145840564Y-105341028D02*
X145626278Y-105341028D01*
X146769135Y-105341028D02*
X146769135Y-104341028D01*
X146769135Y-104626742D02*
X146840564Y-104483885D01*
X146840564Y-104483885D02*
X146911993Y-104412457D01*
X146911993Y-104412457D02*
X147054850Y-104341028D01*
X147054850Y-104341028D02*
X147197707Y-104341028D01*
X147911992Y-105341028D02*
X147769135Y-105269600D01*
X147769135Y-105269600D02*
X147697706Y-105198171D01*
X147697706Y-105198171D02*
X147626278Y-105055314D01*
X147626278Y-105055314D02*
X147626278Y-104626742D01*
X147626278Y-104626742D02*
X147697706Y-104483885D01*
X147697706Y-104483885D02*
X147769135Y-104412457D01*
X147769135Y-104412457D02*
X147911992Y-104341028D01*
X147911992Y-104341028D02*
X148126278Y-104341028D01*
X148126278Y-104341028D02*
X148269135Y-104412457D01*
X148269135Y-104412457D02*
X148340564Y-104483885D01*
X148340564Y-104483885D02*
X148411992Y-104626742D01*
X148411992Y-104626742D02*
X148411992Y-105055314D01*
X148411992Y-105055314D02*
X148340564Y-105198171D01*
X148340564Y-105198171D02*
X148269135Y-105269600D01*
X148269135Y-105269600D02*
X148126278Y-105341028D01*
X148126278Y-105341028D02*
X147911992Y-105341028D01*
X149697707Y-104341028D02*
X149697707Y-105341028D01*
X149054849Y-104341028D02*
X149054849Y-105126742D01*
X149054849Y-105126742D02*
X149126278Y-105269600D01*
X149126278Y-105269600D02*
X149269135Y-105341028D01*
X149269135Y-105341028D02*
X149483421Y-105341028D01*
X149483421Y-105341028D02*
X149626278Y-105269600D01*
X149626278Y-105269600D02*
X149697707Y-105198171D01*
X151054850Y-104341028D02*
X151054850Y-105555314D01*
X151054850Y-105555314D02*
X150983421Y-105698171D01*
X150983421Y-105698171D02*
X150911992Y-105769600D01*
X150911992Y-105769600D02*
X150769135Y-105841028D01*
X150769135Y-105841028D02*
X150554850Y-105841028D01*
X150554850Y-105841028D02*
X150411992Y-105769600D01*
X151054850Y-105269600D02*
X150911992Y-105341028D01*
X150911992Y-105341028D02*
X150626278Y-105341028D01*
X150626278Y-105341028D02*
X150483421Y-105269600D01*
X150483421Y-105269600D02*
X150411992Y-105198171D01*
X150411992Y-105198171D02*
X150340564Y-105055314D01*
X150340564Y-105055314D02*
X150340564Y-104626742D01*
X150340564Y-104626742D02*
X150411992Y-104483885D01*
X150411992Y-104483885D02*
X150483421Y-104412457D01*
X150483421Y-104412457D02*
X150626278Y-104341028D01*
X150626278Y-104341028D02*
X150911992Y-104341028D01*
X150911992Y-104341028D02*
X151054850Y-104412457D01*
X151769135Y-105341028D02*
X151769135Y-103841028D01*
X152411993Y-105341028D02*
X152411993Y-104555314D01*
X152411993Y-104555314D02*
X152340564Y-104412457D01*
X152340564Y-104412457D02*
X152197707Y-104341028D01*
X152197707Y-104341028D02*
X151983421Y-104341028D01*
X151983421Y-104341028D02*
X151840564Y-104412457D01*
X151840564Y-104412457D02*
X151769135Y-104483885D01*
X154269135Y-104555314D02*
X154769135Y-104555314D01*
X154983421Y-105341028D02*
X154269135Y-105341028D01*
X154269135Y-105341028D02*
X154269135Y-103841028D01*
X154269135Y-103841028D02*
X154983421Y-103841028D01*
X155626278Y-104341028D02*
X155626278Y-105341028D01*
X155626278Y-104483885D02*
X155697707Y-104412457D01*
X155697707Y-104412457D02*
X155840564Y-104341028D01*
X155840564Y-104341028D02*
X156054850Y-104341028D01*
X156054850Y-104341028D02*
X156197707Y-104412457D01*
X156197707Y-104412457D02*
X156269136Y-104555314D01*
X156269136Y-104555314D02*
X156269136Y-105341028D01*
X157626279Y-105341028D02*
X157626279Y-103841028D01*
X157626279Y-105269600D02*
X157483421Y-105341028D01*
X157483421Y-105341028D02*
X157197707Y-105341028D01*
X157197707Y-105341028D02*
X157054850Y-105269600D01*
X157054850Y-105269600D02*
X156983421Y-105198171D01*
X156983421Y-105198171D02*
X156911993Y-105055314D01*
X156911993Y-105055314D02*
X156911993Y-104626742D01*
X156911993Y-104626742D02*
X156983421Y-104483885D01*
X156983421Y-104483885D02*
X157054850Y-104412457D01*
X157054850Y-104412457D02*
X157197707Y-104341028D01*
X157197707Y-104341028D02*
X157483421Y-104341028D01*
X157483421Y-104341028D02*
X157626279Y-104412457D01*
X143126282Y-106398885D02*
X143197710Y-106327457D01*
X143197710Y-106327457D02*
X143340568Y-106256028D01*
X143340568Y-106256028D02*
X143697710Y-106256028D01*
X143697710Y-106256028D02*
X143840568Y-106327457D01*
X143840568Y-106327457D02*
X143911996Y-106398885D01*
X143911996Y-106398885D02*
X143983425Y-106541742D01*
X143983425Y-106541742D02*
X143983425Y-106684600D01*
X143983425Y-106684600D02*
X143911996Y-106898885D01*
X143911996Y-106898885D02*
X143054853Y-107756028D01*
X143054853Y-107756028D02*
X143983425Y-107756028D01*
X144911996Y-106256028D02*
X145054853Y-106256028D01*
X145054853Y-106256028D02*
X145197710Y-106327457D01*
X145197710Y-106327457D02*
X145269139Y-106398885D01*
X145269139Y-106398885D02*
X145340567Y-106541742D01*
X145340567Y-106541742D02*
X145411996Y-106827457D01*
X145411996Y-106827457D02*
X145411996Y-107184600D01*
X145411996Y-107184600D02*
X145340567Y-107470314D01*
X145340567Y-107470314D02*
X145269139Y-107613171D01*
X145269139Y-107613171D02*
X145197710Y-107684600D01*
X145197710Y-107684600D02*
X145054853Y-107756028D01*
X145054853Y-107756028D02*
X144911996Y-107756028D01*
X144911996Y-107756028D02*
X144769139Y-107684600D01*
X144769139Y-107684600D02*
X144697710Y-107613171D01*
X144697710Y-107613171D02*
X144626281Y-107470314D01*
X144626281Y-107470314D02*
X144554853Y-107184600D01*
X144554853Y-107184600D02*
X144554853Y-106827457D01*
X144554853Y-106827457D02*
X144626281Y-106541742D01*
X144626281Y-106541742D02*
X144697710Y-106398885D01*
X144697710Y-106398885D02*
X144769139Y-106327457D01*
X144769139Y-106327457D02*
X144911996Y-106256028D01*
X145983424Y-106398885D02*
X146054852Y-106327457D01*
X146054852Y-106327457D02*
X146197710Y-106256028D01*
X146197710Y-106256028D02*
X146554852Y-106256028D01*
X146554852Y-106256028D02*
X146697710Y-106327457D01*
X146697710Y-106327457D02*
X146769138Y-106398885D01*
X146769138Y-106398885D02*
X146840567Y-106541742D01*
X146840567Y-106541742D02*
X146840567Y-106684600D01*
X146840567Y-106684600D02*
X146769138Y-106898885D01*
X146769138Y-106898885D02*
X145911995Y-107756028D01*
X145911995Y-107756028D02*
X146840567Y-107756028D01*
X148126281Y-106756028D02*
X148126281Y-107756028D01*
X147769138Y-106184600D02*
X147411995Y-107256028D01*
X147411995Y-107256028D02*
X148340566Y-107256028D01*
X148911994Y-107184600D02*
X150054852Y-107184600D01*
X151054852Y-106256028D02*
X151197709Y-106256028D01*
X151197709Y-106256028D02*
X151340566Y-106327457D01*
X151340566Y-106327457D02*
X151411995Y-106398885D01*
X151411995Y-106398885D02*
X151483423Y-106541742D01*
X151483423Y-106541742D02*
X151554852Y-106827457D01*
X151554852Y-106827457D02*
X151554852Y-107184600D01*
X151554852Y-107184600D02*
X151483423Y-107470314D01*
X151483423Y-107470314D02*
X151411995Y-107613171D01*
X151411995Y-107613171D02*
X151340566Y-107684600D01*
X151340566Y-107684600D02*
X151197709Y-107756028D01*
X151197709Y-107756028D02*
X151054852Y-107756028D01*
X151054852Y-107756028D02*
X150911995Y-107684600D01*
X150911995Y-107684600D02*
X150840566Y-107613171D01*
X150840566Y-107613171D02*
X150769137Y-107470314D01*
X150769137Y-107470314D02*
X150697709Y-107184600D01*
X150697709Y-107184600D02*
X150697709Y-106827457D01*
X150697709Y-106827457D02*
X150769137Y-106541742D01*
X150769137Y-106541742D02*
X150840566Y-106398885D01*
X150840566Y-106398885D02*
X150911995Y-106327457D01*
X150911995Y-106327457D02*
X151054852Y-106256028D01*
X152840566Y-106256028D02*
X152554851Y-106256028D01*
X152554851Y-106256028D02*
X152411994Y-106327457D01*
X152411994Y-106327457D02*
X152340566Y-106398885D01*
X152340566Y-106398885D02*
X152197708Y-106613171D01*
X152197708Y-106613171D02*
X152126280Y-106898885D01*
X152126280Y-106898885D02*
X152126280Y-107470314D01*
X152126280Y-107470314D02*
X152197708Y-107613171D01*
X152197708Y-107613171D02*
X152269137Y-107684600D01*
X152269137Y-107684600D02*
X152411994Y-107756028D01*
X152411994Y-107756028D02*
X152697708Y-107756028D01*
X152697708Y-107756028D02*
X152840566Y-107684600D01*
X152840566Y-107684600D02*
X152911994Y-107613171D01*
X152911994Y-107613171D02*
X152983423Y-107470314D01*
X152983423Y-107470314D02*
X152983423Y-107113171D01*
X152983423Y-107113171D02*
X152911994Y-106970314D01*
X152911994Y-106970314D02*
X152840566Y-106898885D01*
X152840566Y-106898885D02*
X152697708Y-106827457D01*
X152697708Y-106827457D02*
X152411994Y-106827457D01*
X152411994Y-106827457D02*
X152269137Y-106898885D01*
X152269137Y-106898885D02*
X152197708Y-106970314D01*
X152197708Y-106970314D02*
X152126280Y-107113171D01*
X153626279Y-107184600D02*
X154769137Y-107184600D01*
X155769137Y-106256028D02*
X155911994Y-106256028D01*
X155911994Y-106256028D02*
X156054851Y-106327457D01*
X156054851Y-106327457D02*
X156126280Y-106398885D01*
X156126280Y-106398885D02*
X156197708Y-106541742D01*
X156197708Y-106541742D02*
X156269137Y-106827457D01*
X156269137Y-106827457D02*
X156269137Y-107184600D01*
X156269137Y-107184600D02*
X156197708Y-107470314D01*
X156197708Y-107470314D02*
X156126280Y-107613171D01*
X156126280Y-107613171D02*
X156054851Y-107684600D01*
X156054851Y-107684600D02*
X155911994Y-107756028D01*
X155911994Y-107756028D02*
X155769137Y-107756028D01*
X155769137Y-107756028D02*
X155626280Y-107684600D01*
X155626280Y-107684600D02*
X155554851Y-107613171D01*
X155554851Y-107613171D02*
X155483422Y-107470314D01*
X155483422Y-107470314D02*
X155411994Y-107184600D01*
X155411994Y-107184600D02*
X155411994Y-106827457D01*
X155411994Y-106827457D02*
X155483422Y-106541742D01*
X155483422Y-106541742D02*
X155554851Y-106398885D01*
X155554851Y-106398885D02*
X155626280Y-106327457D01*
X155626280Y-106327457D02*
X155769137Y-106256028D01*
X156983422Y-107756028D02*
X157269136Y-107756028D01*
X157269136Y-107756028D02*
X157411993Y-107684600D01*
X157411993Y-107684600D02*
X157483422Y-107613171D01*
X157483422Y-107613171D02*
X157626279Y-107398885D01*
X157626279Y-107398885D02*
X157697708Y-107113171D01*
X157697708Y-107113171D02*
X157697708Y-106541742D01*
X157697708Y-106541742D02*
X157626279Y-106398885D01*
X157626279Y-106398885D02*
X157554851Y-106327457D01*
X157554851Y-106327457D02*
X157411993Y-106256028D01*
X157411993Y-106256028D02*
X157126279Y-106256028D01*
X157126279Y-106256028D02*
X156983422Y-106327457D01*
X156983422Y-106327457D02*
X156911993Y-106398885D01*
X156911993Y-106398885D02*
X156840565Y-106541742D01*
X156840565Y-106541742D02*
X156840565Y-106898885D01*
X156840565Y-106898885D02*
X156911993Y-107041742D01*
X156911993Y-107041742D02*
X156983422Y-107113171D01*
X156983422Y-107113171D02*
X157126279Y-107184600D01*
X157126279Y-107184600D02*
X157411993Y-107184600D01*
X157411993Y-107184600D02*
X157554851Y-107113171D01*
X157554851Y-107113171D02*
X157626279Y-107041742D01*
X157626279Y-107041742D02*
X157697708Y-106898885D01*
D12*
X88900000Y-96520000D02*
X86360000Y-97790000D01*
X135890000Y-82550000D02*
X128270000Y-85090000D01*
X139700000Y-81280000D02*
X147320000Y-78740000D01*
X106045000Y-78740000D02*
X153670000Y-78740000D01*
X93345000Y-91440000D02*
X99060000Y-91440000D01*
X86360000Y-97790000D02*
X75565000Y-97790000D01*
X76200000Y-102870000D02*
X86360000Y-97790000D01*
X101600000Y-73660000D02*
X99060000Y-72390000D01*
X93980000Y-69850000D02*
X99060000Y-72390000D01*
X71120000Y-66040000D02*
X38100000Y-66040000D01*
X106045000Y-85090000D02*
X153670000Y-85090000D01*
X38100000Y-78740000D02*
X101600000Y-78740000D01*
X99060000Y-72390000D02*
X93345000Y-72390000D01*
X111760000Y-78740000D02*
X106680000Y-76200000D01*
X88900000Y-91440000D02*
X38100000Y-91440000D01*
X86360000Y-66040000D02*
X76200000Y-66040000D01*
X101600000Y-90170000D02*
X93980000Y-93980000D01*
X38100000Y-85090000D02*
X101600000Y-85090000D01*
X76200000Y-60960000D02*
X88900000Y-67310000D01*
X71120000Y-104140000D02*
X38100000Y-104140000D01*
X71120000Y-97790000D02*
X38100000Y-97790000D01*
X111760000Y-85090000D02*
X106680000Y-87630000D01*
X38100000Y-72390000D02*
X88900000Y-72390000D01*
X71120000Y-59690000D02*
X38100000Y-59690000D01*
D10*
G36*
X129419962Y-83229180D02*
G01*
X129446456Y-83255674D01*
X129480714Y-83324190D01*
X129480714Y-83431637D01*
X129446455Y-83500153D01*
X129416048Y-83530561D01*
X129347533Y-83564819D01*
X129059286Y-83564819D01*
X129059286Y-83191009D01*
X129305449Y-83191009D01*
X129419962Y-83229180D01*
G37*
G36*
X129368430Y-82749077D02*
G01*
X129398837Y-82779484D01*
X129433095Y-82848000D01*
X129433095Y-82907828D01*
X129398837Y-82976344D01*
X129368430Y-83006751D01*
X129299914Y-83041009D01*
X129059286Y-83041009D01*
X129059286Y-82714819D01*
X129299914Y-82714819D01*
X129368430Y-82749077D01*
G37*
G36*
X127463668Y-82749077D02*
G01*
X127494075Y-82779484D01*
X127528333Y-82848000D01*
X127528333Y-82955447D01*
X127494075Y-83023963D01*
X127463668Y-83054370D01*
X127395152Y-83088628D01*
X127106905Y-83088628D01*
X127106905Y-82714819D01*
X127395152Y-82714819D01*
X127463668Y-82749077D01*
G37*
G36*
X129773571Y-83857676D02*
G01*
X126814048Y-83857676D01*
X126814048Y-83639819D01*
X126956905Y-83639819D01*
X126974452Y-83688028D01*
X127018881Y-83713680D01*
X127069405Y-83704771D01*
X127102382Y-83665471D01*
X127106905Y-83639819D01*
X127106905Y-83238628D01*
X127412857Y-83238628D01*
X127417070Y-83237094D01*
X127421431Y-83238136D01*
X127446398Y-83230710D01*
X127541636Y-83183091D01*
X127542761Y-83181901D01*
X127561128Y-83169042D01*
X127608747Y-83121423D01*
X127609438Y-83119941D01*
X127622796Y-83101931D01*
X127670415Y-83006693D01*
X127670927Y-83002239D01*
X127673810Y-82998804D01*
X127678333Y-82973152D01*
X127678333Y-82830295D01*
X127676799Y-82826081D01*
X127677841Y-82821720D01*
X127670415Y-82796754D01*
X127622796Y-82701516D01*
X127621606Y-82700390D01*
X127608747Y-82682024D01*
X127561128Y-82634405D01*
X127559646Y-82633714D01*
X127550317Y-82626795D01*
X127862806Y-82626795D01*
X127871715Y-82677319D01*
X127911015Y-82710296D01*
X127936667Y-82714819D01*
X128489592Y-82714819D01*
X128105826Y-83610275D01*
X128102964Y-83661498D01*
X128133696Y-83702578D01*
X128183644Y-83714291D01*
X128229436Y-83691159D01*
X128243698Y-83669363D01*
X128256360Y-83639819D01*
X128909286Y-83639819D01*
X128915949Y-83658127D01*
X128919334Y-83677319D01*
X128924518Y-83681669D01*
X128926833Y-83688028D01*
X128943706Y-83697770D01*
X128958634Y-83710296D01*
X128968376Y-83712013D01*
X128971262Y-83713680D01*
X128974544Y-83713101D01*
X128984286Y-83714819D01*
X129365238Y-83714819D01*
X129369451Y-83713285D01*
X129373812Y-83714327D01*
X129398779Y-83706901D01*
X129494017Y-83659282D01*
X129495141Y-83658094D01*
X129513510Y-83645232D01*
X129561128Y-83597613D01*
X129561818Y-83596131D01*
X129575177Y-83578121D01*
X129622796Y-83482883D01*
X129623308Y-83478429D01*
X129626191Y-83474994D01*
X129630714Y-83449342D01*
X129630714Y-83306485D01*
X129629180Y-83302271D01*
X129630222Y-83297910D01*
X129622796Y-83272944D01*
X129575177Y-83177706D01*
X129573987Y-83176580D01*
X129561128Y-83158214D01*
X129513509Y-83110595D01*
X129509445Y-83108700D01*
X129507098Y-83104879D01*
X129491097Y-83096215D01*
X129513509Y-83073804D01*
X129514200Y-83072322D01*
X129527558Y-83054312D01*
X129575177Y-82959074D01*
X129575689Y-82954620D01*
X129578572Y-82951185D01*
X129583095Y-82925533D01*
X129583095Y-82830295D01*
X129581561Y-82826081D01*
X129582603Y-82821720D01*
X129575177Y-82796754D01*
X129527558Y-82701516D01*
X129526368Y-82700390D01*
X129513509Y-82682024D01*
X129465890Y-82634405D01*
X129464408Y-82633714D01*
X129446398Y-82620356D01*
X129351160Y-82572737D01*
X129346706Y-82572224D01*
X129343271Y-82569342D01*
X129317619Y-82564819D01*
X128984286Y-82564819D01*
X128965977Y-82571482D01*
X128946786Y-82574867D01*
X128942435Y-82580051D01*
X128936077Y-82582366D01*
X128926334Y-82599239D01*
X128913809Y-82614167D01*
X128912091Y-82623909D01*
X128910425Y-82626795D01*
X128911003Y-82630077D01*
X128909286Y-82639819D01*
X128909286Y-83639819D01*
X128256360Y-83639819D01*
X128672269Y-82669363D01*
X128672763Y-82660517D01*
X128677194Y-82652843D01*
X128674154Y-82635608D01*
X128675131Y-82618140D01*
X128669823Y-82611046D01*
X128668285Y-82602319D01*
X128654879Y-82591070D01*
X128644399Y-82577061D01*
X128635773Y-82575038D01*
X128628985Y-82569342D01*
X128603333Y-82564819D01*
X127936667Y-82564819D01*
X127888458Y-82582366D01*
X127862806Y-82626795D01*
X127550317Y-82626795D01*
X127541636Y-82620356D01*
X127446398Y-82572737D01*
X127441944Y-82572224D01*
X127438509Y-82569342D01*
X127412857Y-82564819D01*
X127031905Y-82564819D01*
X127013596Y-82571482D01*
X126994405Y-82574867D01*
X126990054Y-82580051D01*
X126983696Y-82582366D01*
X126973953Y-82599239D01*
X126961428Y-82614167D01*
X126959710Y-82623909D01*
X126958044Y-82626795D01*
X126958622Y-82630077D01*
X126956905Y-82639819D01*
X126956905Y-83639819D01*
X126814048Y-83639819D01*
X126814048Y-82421962D01*
X129773571Y-82421962D01*
X129773571Y-83857676D01*
G37*
G36*
X111516168Y-79574077D02*
G01*
X111546575Y-79604484D01*
X111580833Y-79673000D01*
X111580833Y-79780447D01*
X111546575Y-79848963D01*
X111516168Y-79879370D01*
X111447652Y-79913628D01*
X111159405Y-79913628D01*
X111159405Y-79539819D01*
X111447652Y-79539819D01*
X111516168Y-79574077D01*
G37*
G36*
X112826071Y-80682676D02*
G01*
X110866548Y-80682676D01*
X110866548Y-80464819D01*
X111009405Y-80464819D01*
X111026952Y-80513028D01*
X111071381Y-80538680D01*
X111121905Y-80529771D01*
X111154882Y-80490471D01*
X111159405Y-80464819D01*
X111159405Y-80063628D01*
X111465357Y-80063628D01*
X111469570Y-80062094D01*
X111473931Y-80063136D01*
X111498898Y-80055710D01*
X111594136Y-80008091D01*
X111595261Y-80006901D01*
X111613628Y-79994042D01*
X111661247Y-79946423D01*
X111661938Y-79944941D01*
X111675296Y-79926931D01*
X111722915Y-79831693D01*
X111723427Y-79827239D01*
X111726310Y-79823804D01*
X111730833Y-79798152D01*
X111730833Y-79655295D01*
X111729299Y-79651081D01*
X111730341Y-79646720D01*
X111722915Y-79621754D01*
X111675296Y-79526516D01*
X111674106Y-79525390D01*
X111661247Y-79507024D01*
X111613628Y-79459405D01*
X111612146Y-79458714D01*
X111602817Y-79451795D01*
X111915306Y-79451795D01*
X111924215Y-79502319D01*
X111963515Y-79535296D01*
X111989167Y-79539819D01*
X112442932Y-79539819D01*
X112218438Y-79796383D01*
X112211131Y-79815234D01*
X112201020Y-79832747D01*
X112202059Y-79838640D01*
X112199897Y-79844219D01*
X112206417Y-79863358D01*
X112209929Y-79883271D01*
X112214512Y-79887116D01*
X112216442Y-79892781D01*
X112233740Y-79903251D01*
X112249229Y-79916248D01*
X112257672Y-79917736D01*
X112260331Y-79919346D01*
X112263772Y-79918812D01*
X112274881Y-79920771D01*
X112400033Y-79920771D01*
X112468549Y-79955029D01*
X112498956Y-79985436D01*
X112533214Y-80053952D01*
X112533214Y-80256637D01*
X112498955Y-80325153D01*
X112468548Y-80355561D01*
X112400033Y-80389819D01*
X112149729Y-80389819D01*
X112081213Y-80355561D01*
X112042201Y-80316548D01*
X111995704Y-80294866D01*
X111946149Y-80308143D01*
X111916723Y-80350168D01*
X111921193Y-80401275D01*
X111936133Y-80422612D01*
X111983752Y-80470232D01*
X111985233Y-80470922D01*
X112003245Y-80484282D01*
X112098483Y-80531901D01*
X112102936Y-80532413D01*
X112106372Y-80535296D01*
X112132024Y-80539819D01*
X112417738Y-80539819D01*
X112421951Y-80538285D01*
X112426312Y-80539327D01*
X112451279Y-80531901D01*
X112546517Y-80484282D01*
X112547641Y-80483094D01*
X112566010Y-80470232D01*
X112613628Y-80422613D01*
X112614318Y-80421131D01*
X112627677Y-80403121D01*
X112675296Y-80307883D01*
X112675808Y-80303429D01*
X112678691Y-80299994D01*
X112683214Y-80274342D01*
X112683214Y-80036247D01*
X112681680Y-80032033D01*
X112682722Y-80027672D01*
X112675296Y-80002706D01*
X112627677Y-79907468D01*
X112626487Y-79906342D01*
X112613628Y-79887976D01*
X112566009Y-79840357D01*
X112564527Y-79839666D01*
X112546517Y-79826308D01*
X112451279Y-79778689D01*
X112446825Y-79778176D01*
X112443390Y-79775294D01*
X112437166Y-79774196D01*
X112664657Y-79514207D01*
X112671963Y-79495355D01*
X112682075Y-79477843D01*
X112681035Y-79471949D01*
X112683198Y-79466371D01*
X112676677Y-79447231D01*
X112673166Y-79427319D01*
X112668582Y-79423473D01*
X112666653Y-79417809D01*
X112649354Y-79407338D01*
X112633866Y-79394342D01*
X112625422Y-79392853D01*
X112622764Y-79391244D01*
X112619322Y-79391777D01*
X112608214Y-79389819D01*
X111989167Y-79389819D01*
X111940958Y-79407366D01*
X111915306Y-79451795D01*
X111602817Y-79451795D01*
X111594136Y-79445356D01*
X111498898Y-79397737D01*
X111494444Y-79397224D01*
X111491009Y-79394342D01*
X111465357Y-79389819D01*
X111084405Y-79389819D01*
X111066096Y-79396482D01*
X111046905Y-79399867D01*
X111042554Y-79405051D01*
X111036196Y-79407366D01*
X111026453Y-79424239D01*
X111013928Y-79439167D01*
X111012210Y-79448909D01*
X111010544Y-79451795D01*
X111011122Y-79455077D01*
X111009405Y-79464819D01*
X111009405Y-80464819D01*
X110866548Y-80464819D01*
X110866548Y-79246962D01*
X112826071Y-79246962D01*
X112826071Y-80682676D01*
G37*
G36*
X148430228Y-80739104D02*
G01*
X148162152Y-80739104D01*
X148296190Y-80336989D01*
X148430228Y-80739104D01*
G37*
G36*
X146585096Y-80209077D02*
G01*
X146615503Y-80239484D01*
X146649761Y-80308000D01*
X146649761Y-80415447D01*
X146615503Y-80483963D01*
X146585096Y-80514370D01*
X146516580Y-80548628D01*
X146228333Y-80548628D01*
X146228333Y-80174819D01*
X146516580Y-80174819D01*
X146585096Y-80209077D01*
G37*
G36*
X148847352Y-81317148D02*
G01*
X145935476Y-81317148D01*
X145935476Y-81099819D01*
X146078333Y-81099819D01*
X146095880Y-81148028D01*
X146140309Y-81173680D01*
X146190833Y-81164771D01*
X146223810Y-81125471D01*
X146228333Y-81099819D01*
X146228333Y-80698628D01*
X146534285Y-80698628D01*
X146538498Y-80697094D01*
X146542859Y-80698136D01*
X146567826Y-80690710D01*
X146663064Y-80643091D01*
X146664189Y-80641901D01*
X146682556Y-80629042D01*
X146730175Y-80581423D01*
X146730866Y-80579941D01*
X146744224Y-80561931D01*
X146791843Y-80466693D01*
X146792355Y-80462239D01*
X146795238Y-80458804D01*
X146799761Y-80433152D01*
X146799761Y-80290295D01*
X146798227Y-80286081D01*
X146799269Y-80281720D01*
X146791843Y-80256754D01*
X146744224Y-80161516D01*
X146743034Y-80160390D01*
X146730175Y-80142024D01*
X146682556Y-80094405D01*
X146681074Y-80093714D01*
X146671745Y-80086795D01*
X146984234Y-80086795D01*
X146993143Y-80137319D01*
X147032443Y-80170296D01*
X147058095Y-80174819D01*
X147611020Y-80174819D01*
X147227254Y-81070275D01*
X147224392Y-81121498D01*
X147255124Y-81162578D01*
X147305072Y-81174291D01*
X147350864Y-81151159D01*
X147365126Y-81129363D01*
X147387952Y-81076102D01*
X147891706Y-81076102D01*
X147893107Y-81127386D01*
X147927144Y-81165771D01*
X147977893Y-81173296D01*
X148021605Y-81146441D01*
X148034008Y-81123536D01*
X148112152Y-80889104D01*
X148480228Y-80889104D01*
X148558372Y-81123536D01*
X148590263Y-81163722D01*
X148640524Y-81174008D01*
X148685638Y-81149579D01*
X148704495Y-81101867D01*
X148700674Y-81076102D01*
X148367341Y-80076102D01*
X148365998Y-80074410D01*
X148365940Y-80072253D01*
X148350198Y-80054500D01*
X148335450Y-80035916D01*
X148333335Y-80035483D01*
X148331902Y-80033867D01*
X148308433Y-80030387D01*
X148285189Y-80025630D01*
X148283289Y-80026658D01*
X148281154Y-80026342D01*
X148260936Y-80038762D01*
X148240075Y-80050059D01*
X148239281Y-80052066D01*
X148237441Y-80053197D01*
X148225039Y-80076102D01*
X147891706Y-81076102D01*
X147387952Y-81076102D01*
X147793697Y-80129363D01*
X147794191Y-80120517D01*
X147798622Y-80112843D01*
X147795582Y-80095608D01*
X147796559Y-80078140D01*
X147791251Y-80071046D01*
X147789713Y-80062319D01*
X147776307Y-80051070D01*
X147765827Y-80037061D01*
X147757201Y-80035038D01*
X147750413Y-80029342D01*
X147724761Y-80024819D01*
X147058095Y-80024819D01*
X147009886Y-80042366D01*
X146984234Y-80086795D01*
X146671745Y-80086795D01*
X146663064Y-80080356D01*
X146567826Y-80032737D01*
X146563372Y-80032224D01*
X146559937Y-80029342D01*
X146534285Y-80024819D01*
X146153333Y-80024819D01*
X146135024Y-80031482D01*
X146115833Y-80034867D01*
X146111482Y-80040051D01*
X146105124Y-80042366D01*
X146095381Y-80059239D01*
X146082856Y-80074167D01*
X146081138Y-80083909D01*
X146079472Y-80086795D01*
X146080050Y-80090077D01*
X146078333Y-80099819D01*
X146078333Y-81099819D01*
X145935476Y-81099819D01*
X145935476Y-79881962D01*
X148847352Y-79881962D01*
X148847352Y-81317148D01*
G37*
G36*
X86053668Y-63699077D02*
G01*
X86084075Y-63729484D01*
X86118333Y-63798000D01*
X86118333Y-63905447D01*
X86084075Y-63973963D01*
X86053668Y-64004370D01*
X85985152Y-64038628D01*
X85696905Y-64038628D01*
X85696905Y-63664819D01*
X85985152Y-63664819D01*
X86053668Y-63699077D01*
G37*
G36*
X87362432Y-64807676D02*
G01*
X85404048Y-64807676D01*
X85404048Y-64589819D01*
X85546905Y-64589819D01*
X85564452Y-64638028D01*
X85608881Y-64663680D01*
X85659405Y-64654771D01*
X85692382Y-64615471D01*
X85696905Y-64589819D01*
X85696905Y-64576795D01*
X86500425Y-64576795D01*
X86509334Y-64627319D01*
X86548634Y-64660296D01*
X86574286Y-64664819D01*
X87145714Y-64664819D01*
X87193923Y-64647272D01*
X87219575Y-64602843D01*
X87210666Y-64552319D01*
X87171366Y-64519342D01*
X87145714Y-64514819D01*
X86935000Y-64514819D01*
X86935000Y-63589819D01*
X86933524Y-63585765D01*
X86934545Y-63581576D01*
X86924897Y-63562063D01*
X86917453Y-63541610D01*
X86913718Y-63539454D01*
X86911807Y-63535587D01*
X86891872Y-63526840D01*
X86873024Y-63515958D01*
X86868776Y-63516706D01*
X86864827Y-63514974D01*
X86843932Y-63521087D01*
X86822500Y-63524867D01*
X86819728Y-63528169D01*
X86815589Y-63529381D01*
X86797596Y-63548216D01*
X86706476Y-63684896D01*
X86625097Y-63766275D01*
X86540745Y-63808451D01*
X86505473Y-63845705D01*
X86502398Y-63896916D01*
X86532962Y-63938121D01*
X86582860Y-63950041D01*
X86607827Y-63942615D01*
X86703065Y-63894996D01*
X86704190Y-63893806D01*
X86722557Y-63880947D01*
X86785000Y-63818504D01*
X86785000Y-64514819D01*
X86574286Y-64514819D01*
X86526077Y-64532366D01*
X86500425Y-64576795D01*
X85696905Y-64576795D01*
X85696905Y-64188628D01*
X86002857Y-64188628D01*
X86007070Y-64187094D01*
X86011431Y-64188136D01*
X86036398Y-64180710D01*
X86131636Y-64133091D01*
X86132761Y-64131901D01*
X86151128Y-64119042D01*
X86198747Y-64071423D01*
X86199438Y-64069941D01*
X86212796Y-64051931D01*
X86260415Y-63956693D01*
X86260927Y-63952239D01*
X86263810Y-63948804D01*
X86268333Y-63923152D01*
X86268333Y-63780295D01*
X86266799Y-63776081D01*
X86267841Y-63771720D01*
X86260415Y-63746754D01*
X86212796Y-63651516D01*
X86211606Y-63650390D01*
X86198747Y-63632024D01*
X86151128Y-63584405D01*
X86149646Y-63583714D01*
X86131636Y-63570356D01*
X86036398Y-63522737D01*
X86031944Y-63522224D01*
X86028509Y-63519342D01*
X86002857Y-63514819D01*
X85621905Y-63514819D01*
X85603596Y-63521482D01*
X85584405Y-63524867D01*
X85580054Y-63530051D01*
X85573696Y-63532366D01*
X85563953Y-63549239D01*
X85551428Y-63564167D01*
X85549710Y-63573909D01*
X85548044Y-63576795D01*
X85548622Y-63580077D01*
X85546905Y-63589819D01*
X85546905Y-64589819D01*
X85404048Y-64589819D01*
X85404048Y-63371962D01*
X87362432Y-63371962D01*
X87362432Y-64807676D01*
G37*
G36*
X98118668Y-70049077D02*
G01*
X98149075Y-70079484D01*
X98183333Y-70148000D01*
X98183333Y-70255447D01*
X98149075Y-70323963D01*
X98118668Y-70354370D01*
X98050152Y-70388628D01*
X97761905Y-70388628D01*
X97761905Y-70014819D01*
X98050152Y-70014819D01*
X98118668Y-70049077D01*
G37*
G36*
X99428571Y-71157676D02*
G01*
X97469048Y-71157676D01*
X97469048Y-70939819D01*
X97611905Y-70939819D01*
X97629452Y-70988028D01*
X97673881Y-71013680D01*
X97724405Y-71004771D01*
X97757382Y-70965471D01*
X97761905Y-70939819D01*
X97761905Y-70933283D01*
X98516953Y-70933283D01*
X98522794Y-70955085D01*
X98526715Y-70977319D01*
X98529342Y-70979523D01*
X98530230Y-70982837D01*
X98548721Y-70995785D01*
X98566015Y-71010296D01*
X98570599Y-71011104D01*
X98572256Y-71012264D01*
X98575544Y-71011976D01*
X98591667Y-71014819D01*
X99210714Y-71014819D01*
X99258923Y-70997272D01*
X99284575Y-70952843D01*
X99275666Y-70902319D01*
X99236366Y-70869342D01*
X99210714Y-70864819D01*
X98772733Y-70864819D01*
X99216128Y-70421423D01*
X99218023Y-70417358D01*
X99221843Y-70415012D01*
X99234246Y-70392107D01*
X99281865Y-70249251D01*
X99281820Y-70247615D01*
X99285714Y-70225533D01*
X99285714Y-70130295D01*
X99284180Y-70126081D01*
X99285222Y-70121720D01*
X99277796Y-70096754D01*
X99230177Y-70001516D01*
X99228987Y-70000390D01*
X99216128Y-69982024D01*
X99168509Y-69934405D01*
X99167027Y-69933714D01*
X99149017Y-69920356D01*
X99053779Y-69872737D01*
X99049325Y-69872224D01*
X99045890Y-69869342D01*
X99020238Y-69864819D01*
X98782143Y-69864819D01*
X98777929Y-69866352D01*
X98773568Y-69865311D01*
X98748602Y-69872737D01*
X98653364Y-69920356D01*
X98652238Y-69921545D01*
X98633872Y-69934405D01*
X98586253Y-69982024D01*
X98564572Y-70028521D01*
X98577849Y-70078075D01*
X98619875Y-70107502D01*
X98670982Y-70103030D01*
X98692319Y-70088090D01*
X98731332Y-70049077D01*
X98799848Y-70014819D01*
X99002533Y-70014819D01*
X99071049Y-70049077D01*
X99101456Y-70079484D01*
X99135714Y-70148000D01*
X99135714Y-70213363D01*
X99097542Y-70327876D01*
X98538634Y-70886786D01*
X98529096Y-70907239D01*
X98517806Y-70926795D01*
X98518402Y-70930175D01*
X98516953Y-70933283D01*
X97761905Y-70933283D01*
X97761905Y-70538628D01*
X98067857Y-70538628D01*
X98072070Y-70537094D01*
X98076431Y-70538136D01*
X98101398Y-70530710D01*
X98196636Y-70483091D01*
X98197761Y-70481901D01*
X98216128Y-70469042D01*
X98263747Y-70421423D01*
X98264438Y-70419941D01*
X98277796Y-70401931D01*
X98325415Y-70306693D01*
X98325927Y-70302239D01*
X98328810Y-70298804D01*
X98333333Y-70273152D01*
X98333333Y-70130295D01*
X98331799Y-70126081D01*
X98332841Y-70121720D01*
X98325415Y-70096754D01*
X98277796Y-70001516D01*
X98276606Y-70000390D01*
X98263747Y-69982024D01*
X98216128Y-69934405D01*
X98214646Y-69933714D01*
X98196636Y-69920356D01*
X98101398Y-69872737D01*
X98096944Y-69872224D01*
X98093509Y-69869342D01*
X98067857Y-69864819D01*
X97686905Y-69864819D01*
X97668596Y-69871482D01*
X97649405Y-69874867D01*
X97645054Y-69880051D01*
X97638696Y-69882366D01*
X97628953Y-69899239D01*
X97616428Y-69914167D01*
X97614710Y-69923909D01*
X97613044Y-69926795D01*
X97613622Y-69930077D01*
X97611905Y-69939819D01*
X97611905Y-70939819D01*
X97469048Y-70939819D01*
X97469048Y-69721962D01*
X99428571Y-69721962D01*
X99428571Y-71157676D01*
G37*
G36*
X112406049Y-83765029D02*
G01*
X112436456Y-83795436D01*
X112470714Y-83863952D01*
X112470714Y-84066637D01*
X112436455Y-84135153D01*
X112406048Y-84165561D01*
X112337533Y-84199819D01*
X112182467Y-84199819D01*
X112113951Y-84165561D01*
X112083544Y-84135153D01*
X112049286Y-84066637D01*
X112049286Y-83863952D01*
X112083544Y-83795436D01*
X112113951Y-83765029D01*
X112182467Y-83730771D01*
X112337533Y-83730771D01*
X112406049Y-83765029D01*
G37*
G36*
X111453668Y-83384077D02*
G01*
X111484075Y-83414484D01*
X111518333Y-83483000D01*
X111518333Y-83590447D01*
X111484075Y-83658963D01*
X111453668Y-83689370D01*
X111385152Y-83723628D01*
X111096905Y-83723628D01*
X111096905Y-83349819D01*
X111385152Y-83349819D01*
X111453668Y-83384077D01*
G37*
G36*
X112763571Y-84492676D02*
G01*
X110804048Y-84492676D01*
X110804048Y-84274819D01*
X110946905Y-84274819D01*
X110964452Y-84323028D01*
X111008881Y-84348680D01*
X111059405Y-84339771D01*
X111092382Y-84300471D01*
X111096905Y-84274819D01*
X111096905Y-84084342D01*
X111899286Y-84084342D01*
X111900819Y-84088555D01*
X111899778Y-84092916D01*
X111907204Y-84117883D01*
X111954823Y-84213121D01*
X111956011Y-84214246D01*
X111968871Y-84232612D01*
X112016490Y-84280232D01*
X112017971Y-84280922D01*
X112035983Y-84294282D01*
X112131221Y-84341901D01*
X112135674Y-84342413D01*
X112139110Y-84345296D01*
X112164762Y-84349819D01*
X112355238Y-84349819D01*
X112359451Y-84348285D01*
X112363812Y-84349327D01*
X112388779Y-84341901D01*
X112484017Y-84294282D01*
X112485141Y-84293094D01*
X112503510Y-84280232D01*
X112551128Y-84232613D01*
X112551818Y-84231131D01*
X112565177Y-84213121D01*
X112612796Y-84117883D01*
X112613308Y-84113429D01*
X112616191Y-84109994D01*
X112620714Y-84084342D01*
X112620714Y-83846247D01*
X112619180Y-83842033D01*
X112620222Y-83837672D01*
X112612796Y-83812706D01*
X112565177Y-83717468D01*
X112563987Y-83716342D01*
X112551128Y-83697976D01*
X112503509Y-83650357D01*
X112502027Y-83649666D01*
X112484017Y-83636308D01*
X112388779Y-83588689D01*
X112384325Y-83588176D01*
X112380890Y-83585294D01*
X112355238Y-83580771D01*
X112164762Y-83580771D01*
X112160548Y-83582304D01*
X112156187Y-83581263D01*
X112131221Y-83588689D01*
X112072991Y-83617804D01*
X112091515Y-83543707D01*
X112175427Y-83417838D01*
X112209189Y-83384077D01*
X112277705Y-83349819D01*
X112450476Y-83349819D01*
X112498685Y-83332272D01*
X112524337Y-83287843D01*
X112515428Y-83237319D01*
X112476128Y-83204342D01*
X112450476Y-83199819D01*
X112260000Y-83199819D01*
X112255786Y-83201352D01*
X112251425Y-83200311D01*
X112226459Y-83207737D01*
X112131221Y-83255356D01*
X112130095Y-83256545D01*
X112111729Y-83269405D01*
X112064110Y-83317024D01*
X112062633Y-83320189D01*
X112054739Y-83328454D01*
X111959501Y-83471311D01*
X111959398Y-83471732D01*
X111949144Y-83494724D01*
X111901525Y-83685200D01*
X111901885Y-83688648D01*
X111899286Y-83703390D01*
X111899286Y-84084342D01*
X111096905Y-84084342D01*
X111096905Y-83873628D01*
X111402857Y-83873628D01*
X111407070Y-83872094D01*
X111411431Y-83873136D01*
X111436398Y-83865710D01*
X111531636Y-83818091D01*
X111532761Y-83816901D01*
X111551128Y-83804042D01*
X111598747Y-83756423D01*
X111599438Y-83754941D01*
X111612796Y-83736931D01*
X111660415Y-83641693D01*
X111660927Y-83637239D01*
X111663810Y-83633804D01*
X111668333Y-83608152D01*
X111668333Y-83465295D01*
X111666799Y-83461081D01*
X111667841Y-83456720D01*
X111660415Y-83431754D01*
X111612796Y-83336516D01*
X111611606Y-83335390D01*
X111598747Y-83317024D01*
X111551128Y-83269405D01*
X111549646Y-83268714D01*
X111531636Y-83255356D01*
X111436398Y-83207737D01*
X111431944Y-83207224D01*
X111428509Y-83204342D01*
X111402857Y-83199819D01*
X111021905Y-83199819D01*
X111003596Y-83206482D01*
X110984405Y-83209867D01*
X110980054Y-83215051D01*
X110973696Y-83217366D01*
X110963953Y-83234239D01*
X110951428Y-83249167D01*
X110949710Y-83258909D01*
X110948044Y-83261795D01*
X110948622Y-83265077D01*
X110946905Y-83274819D01*
X110946905Y-84274819D01*
X110804048Y-84274819D01*
X110804048Y-83056962D01*
X112763571Y-83056962D01*
X112763571Y-84492676D01*
G37*
G36*
X86053668Y-99259077D02*
G01*
X86084075Y-99289484D01*
X86118333Y-99358000D01*
X86118333Y-99465447D01*
X86084075Y-99533963D01*
X86053668Y-99564370D01*
X85985152Y-99598628D01*
X85696905Y-99598628D01*
X85696905Y-99224819D01*
X85985152Y-99224819D01*
X86053668Y-99259077D01*
G37*
G36*
X87410051Y-100366537D02*
G01*
X85404048Y-100366537D01*
X85404048Y-100149819D01*
X85546905Y-100149819D01*
X85564452Y-100198028D01*
X85608881Y-100223680D01*
X85659405Y-100214771D01*
X85692382Y-100175471D01*
X85696905Y-100149819D01*
X85696905Y-99803461D01*
X86500425Y-99803461D01*
X86503977Y-99823607D01*
X86504536Y-99844052D01*
X86508338Y-99848340D01*
X86509334Y-99853985D01*
X86525001Y-99867131D01*
X86538573Y-99882437D01*
X86544243Y-99883277D01*
X86548634Y-99886962D01*
X86574286Y-99891485D01*
X86975476Y-99891485D01*
X86975476Y-100149819D01*
X86993023Y-100198028D01*
X87037452Y-100223680D01*
X87087976Y-100214771D01*
X87120953Y-100175471D01*
X87125476Y-100149819D01*
X87125476Y-99891485D01*
X87193333Y-99891485D01*
X87241542Y-99873938D01*
X87267194Y-99829509D01*
X87258285Y-99778985D01*
X87218985Y-99746008D01*
X87193333Y-99741485D01*
X87125476Y-99741485D01*
X87125476Y-99483152D01*
X87107929Y-99434943D01*
X87063500Y-99409291D01*
X87012976Y-99418200D01*
X86979999Y-99457500D01*
X86975476Y-99483152D01*
X86975476Y-99741485D01*
X86678343Y-99741485D01*
X86883532Y-99125918D01*
X86882131Y-99074634D01*
X86848093Y-99036248D01*
X86797345Y-99028723D01*
X86753632Y-99055578D01*
X86741230Y-99078483D01*
X86503135Y-99792768D01*
X86503291Y-99798496D01*
X86500425Y-99803461D01*
X85696905Y-99803461D01*
X85696905Y-99748628D01*
X86002857Y-99748628D01*
X86007070Y-99747094D01*
X86011431Y-99748136D01*
X86036398Y-99740710D01*
X86131636Y-99693091D01*
X86132761Y-99691901D01*
X86151128Y-99679042D01*
X86198747Y-99631423D01*
X86199438Y-99629941D01*
X86212796Y-99611931D01*
X86260415Y-99516693D01*
X86260927Y-99512239D01*
X86263810Y-99508804D01*
X86268333Y-99483152D01*
X86268333Y-99340295D01*
X86266799Y-99336081D01*
X86267841Y-99331720D01*
X86260415Y-99306754D01*
X86212796Y-99211516D01*
X86211606Y-99210390D01*
X86198747Y-99192024D01*
X86151128Y-99144405D01*
X86149646Y-99143714D01*
X86131636Y-99130356D01*
X86036398Y-99082737D01*
X86031944Y-99082224D01*
X86028509Y-99079342D01*
X86002857Y-99074819D01*
X85621905Y-99074819D01*
X85603596Y-99081482D01*
X85584405Y-99084867D01*
X85580054Y-99090051D01*
X85573696Y-99092366D01*
X85563953Y-99109239D01*
X85551428Y-99124167D01*
X85549710Y-99133909D01*
X85548044Y-99136795D01*
X85548622Y-99140077D01*
X85546905Y-99149819D01*
X85546905Y-100149819D01*
X85404048Y-100149819D01*
X85404048Y-98885866D01*
X87410051Y-98885866D01*
X87410051Y-100366537D01*
G37*
G36*
X99388668Y-92274077D02*
G01*
X99419075Y-92304484D01*
X99453333Y-92373000D01*
X99453333Y-92480447D01*
X99419075Y-92548963D01*
X99388668Y-92579370D01*
X99320152Y-92613628D01*
X99031905Y-92613628D01*
X99031905Y-92239819D01*
X99320152Y-92239819D01*
X99388668Y-92274077D01*
G37*
G36*
X100698571Y-93382676D02*
G01*
X98739048Y-93382676D01*
X98739048Y-93164819D01*
X98881905Y-93164819D01*
X98899452Y-93213028D01*
X98943881Y-93238680D01*
X98994405Y-93229771D01*
X99027382Y-93190471D01*
X99031905Y-93164819D01*
X99031905Y-92763628D01*
X99337857Y-92763628D01*
X99342070Y-92762094D01*
X99346431Y-92763136D01*
X99371398Y-92755710D01*
X99466636Y-92708091D01*
X99467761Y-92706901D01*
X99486128Y-92694042D01*
X99533747Y-92646423D01*
X99534438Y-92644941D01*
X99542202Y-92634473D01*
X99834572Y-92634473D01*
X99841090Y-92658800D01*
X99847321Y-92683262D01*
X99847721Y-92683549D01*
X99847849Y-92684027D01*
X99868483Y-92698475D01*
X99888977Y-92713208D01*
X99889470Y-92713170D01*
X99889875Y-92713454D01*
X99914978Y-92711257D01*
X99940137Y-92709370D01*
X99940490Y-92709024D01*
X99940982Y-92708982D01*
X99962319Y-92694042D01*
X100001332Y-92655029D01*
X100069848Y-92620771D01*
X100272533Y-92620771D01*
X100341049Y-92655029D01*
X100371456Y-92685436D01*
X100405714Y-92753952D01*
X100405714Y-92956637D01*
X100371455Y-93025153D01*
X100341048Y-93055561D01*
X100272533Y-93089819D01*
X100069848Y-93089819D01*
X100001332Y-93055561D01*
X99962320Y-93016548D01*
X99915823Y-92994866D01*
X99866268Y-93008143D01*
X99836842Y-93050168D01*
X99841312Y-93101275D01*
X99856252Y-93122612D01*
X99903871Y-93170232D01*
X99905352Y-93170922D01*
X99923364Y-93184282D01*
X100018602Y-93231901D01*
X100023055Y-93232413D01*
X100026491Y-93235296D01*
X100052143Y-93239819D01*
X100290238Y-93239819D01*
X100294451Y-93238285D01*
X100298812Y-93239327D01*
X100323779Y-93231901D01*
X100419017Y-93184282D01*
X100420141Y-93183094D01*
X100438510Y-93170232D01*
X100486128Y-93122613D01*
X100486818Y-93121131D01*
X100500177Y-93103121D01*
X100547796Y-93007883D01*
X100548308Y-93003429D01*
X100551191Y-92999994D01*
X100555714Y-92974342D01*
X100555714Y-92736247D01*
X100554180Y-92732033D01*
X100555222Y-92727672D01*
X100547796Y-92702706D01*
X100500177Y-92607468D01*
X100498987Y-92606342D01*
X100486128Y-92587976D01*
X100438509Y-92540357D01*
X100437027Y-92539666D01*
X100419017Y-92526308D01*
X100323779Y-92478689D01*
X100319325Y-92478176D01*
X100315890Y-92475294D01*
X100290238Y-92470771D01*
X100052143Y-92470771D01*
X100047929Y-92472304D01*
X100043568Y-92471263D01*
X100018602Y-92478689D01*
X99999960Y-92488009D01*
X100024779Y-92239819D01*
X100433095Y-92239819D01*
X100481304Y-92222272D01*
X100506956Y-92177843D01*
X100498047Y-92127319D01*
X100458747Y-92094342D01*
X100433095Y-92089819D01*
X99956905Y-92089819D01*
X99941937Y-92095266D01*
X99926054Y-92096458D01*
X99918547Y-92103780D01*
X99908696Y-92107366D01*
X99900732Y-92121159D01*
X99889330Y-92132282D01*
X99884598Y-92149102D01*
X99883044Y-92151795D01*
X99883351Y-92153537D01*
X99882277Y-92157356D01*
X99834658Y-92633546D01*
X99834780Y-92634026D01*
X99834572Y-92634473D01*
X99542202Y-92634473D01*
X99547796Y-92626931D01*
X99595415Y-92531693D01*
X99595927Y-92527239D01*
X99598810Y-92523804D01*
X99603333Y-92498152D01*
X99603333Y-92355295D01*
X99601799Y-92351081D01*
X99602841Y-92346720D01*
X99595415Y-92321754D01*
X99547796Y-92226516D01*
X99546606Y-92225390D01*
X99533747Y-92207024D01*
X99486128Y-92159405D01*
X99484646Y-92158714D01*
X99466636Y-92145356D01*
X99371398Y-92097737D01*
X99366944Y-92097224D01*
X99363509Y-92094342D01*
X99337857Y-92089819D01*
X98956905Y-92089819D01*
X98938596Y-92096482D01*
X98919405Y-92099867D01*
X98915054Y-92105051D01*
X98908696Y-92107366D01*
X98898953Y-92124239D01*
X98886428Y-92139167D01*
X98884710Y-92148909D01*
X98883044Y-92151795D01*
X98883622Y-92155077D01*
X98881905Y-92164819D01*
X98881905Y-93164819D01*
X98739048Y-93164819D01*
X98739048Y-91946962D01*
X100698571Y-91946962D01*
X100698571Y-93382676D01*
G37*
X94511905Y-69034819D02*
X94511905Y-68034819D01*
X94511905Y-68034819D02*
X94750000Y-68034819D01*
X94750000Y-68034819D02*
X94892857Y-68082438D01*
X94892857Y-68082438D02*
X94988095Y-68177676D01*
X94988095Y-68177676D02*
X95035714Y-68272914D01*
X95035714Y-68272914D02*
X95083333Y-68463390D01*
X95083333Y-68463390D02*
X95083333Y-68606247D01*
X95083333Y-68606247D02*
X95035714Y-68796723D01*
X95035714Y-68796723D02*
X94988095Y-68891961D01*
X94988095Y-68891961D02*
X94892857Y-68987200D01*
X94892857Y-68987200D02*
X94750000Y-69034819D01*
X94750000Y-69034819D02*
X94511905Y-69034819D01*
X95416667Y-68034819D02*
X96035714Y-68034819D01*
X96035714Y-68034819D02*
X95702381Y-68415771D01*
X95702381Y-68415771D02*
X95845238Y-68415771D01*
X95845238Y-68415771D02*
X95940476Y-68463390D01*
X95940476Y-68463390D02*
X95988095Y-68511009D01*
X95988095Y-68511009D02*
X96035714Y-68606247D01*
X96035714Y-68606247D02*
X96035714Y-68844342D01*
X96035714Y-68844342D02*
X95988095Y-68939580D01*
X95988095Y-68939580D02*
X95940476Y-68987200D01*
X95940476Y-68987200D02*
X95845238Y-69034819D01*
X95845238Y-69034819D02*
X95559524Y-69034819D01*
X95559524Y-69034819D02*
X95464286Y-68987200D01*
X95464286Y-68987200D02*
X95416667Y-68939580D01*
X42655833Y-52524819D02*
X42322500Y-52048628D01*
X42084405Y-52524819D02*
X42084405Y-51524819D01*
X42084405Y-51524819D02*
X42465357Y-51524819D01*
X42465357Y-51524819D02*
X42560595Y-51572438D01*
X42560595Y-51572438D02*
X42608214Y-51620057D01*
X42608214Y-51620057D02*
X42655833Y-51715295D01*
X42655833Y-51715295D02*
X42655833Y-51858152D01*
X42655833Y-51858152D02*
X42608214Y-51953390D01*
X42608214Y-51953390D02*
X42560595Y-52001009D01*
X42560595Y-52001009D02*
X42465357Y-52048628D01*
X42465357Y-52048628D02*
X42084405Y-52048628D01*
X43608214Y-52524819D02*
X43036786Y-52524819D01*
X43322500Y-52524819D02*
X43322500Y-51524819D01*
X43322500Y-51524819D02*
X43227262Y-51667676D01*
X43227262Y-51667676D02*
X43132024Y-51762914D01*
X43132024Y-51762914D02*
X43036786Y-51810533D01*
X78215833Y-52524819D02*
X77882500Y-52048628D01*
X77644405Y-52524819D02*
X77644405Y-51524819D01*
X77644405Y-51524819D02*
X78025357Y-51524819D01*
X78025357Y-51524819D02*
X78120595Y-51572438D01*
X78120595Y-51572438D02*
X78168214Y-51620057D01*
X78168214Y-51620057D02*
X78215833Y-51715295D01*
X78215833Y-51715295D02*
X78215833Y-51858152D01*
X78215833Y-51858152D02*
X78168214Y-51953390D01*
X78168214Y-51953390D02*
X78120595Y-52001009D01*
X78120595Y-52001009D02*
X78025357Y-52048628D01*
X78025357Y-52048628D02*
X77644405Y-52048628D01*
X78549167Y-51524819D02*
X79168214Y-51524819D01*
X79168214Y-51524819D02*
X78834881Y-51905771D01*
X78834881Y-51905771D02*
X78977738Y-51905771D01*
X78977738Y-51905771D02*
X79072976Y-51953390D01*
X79072976Y-51953390D02*
X79120595Y-52001009D01*
X79120595Y-52001009D02*
X79168214Y-52096247D01*
X79168214Y-52096247D02*
X79168214Y-52334342D01*
X79168214Y-52334342D02*
X79120595Y-52429580D01*
X79120595Y-52429580D02*
X79072976Y-52477200D01*
X79072976Y-52477200D02*
X78977738Y-52524819D01*
X78977738Y-52524819D02*
X78692024Y-52524819D01*
X78692024Y-52524819D02*
X78596786Y-52477200D01*
X78596786Y-52477200D02*
X78549167Y-52429580D01*
X31474819Y-41668333D02*
X32189104Y-41668333D01*
X32189104Y-41668333D02*
X32331961Y-41715952D01*
X32331961Y-41715952D02*
X32427200Y-41811190D01*
X32427200Y-41811190D02*
X32474819Y-41954047D01*
X32474819Y-41954047D02*
X32474819Y-42049285D01*
X32474819Y-40668333D02*
X32474819Y-41239761D01*
X32474819Y-40954047D02*
X31474819Y-40954047D01*
X31474819Y-40954047D02*
X31617676Y-41049285D01*
X31617676Y-41049285D02*
X31712914Y-41144523D01*
X31712914Y-41144523D02*
X31760533Y-41239761D01*
X102594819Y-41668333D02*
X103309104Y-41668333D01*
X103309104Y-41668333D02*
X103451961Y-41715952D01*
X103451961Y-41715952D02*
X103547200Y-41811190D01*
X103547200Y-41811190D02*
X103594819Y-41954047D01*
X103594819Y-41954047D02*
X103594819Y-42049285D01*
X102594819Y-40715952D02*
X102594819Y-41192142D01*
X102594819Y-41192142D02*
X103071009Y-41239761D01*
X103071009Y-41239761D02*
X103023390Y-41192142D01*
X103023390Y-41192142D02*
X102975771Y-41096904D01*
X102975771Y-41096904D02*
X102975771Y-40858809D01*
X102975771Y-40858809D02*
X103023390Y-40763571D01*
X103023390Y-40763571D02*
X103071009Y-40715952D01*
X103071009Y-40715952D02*
X103166247Y-40668333D01*
X103166247Y-40668333D02*
X103404342Y-40668333D01*
X103404342Y-40668333D02*
X103499580Y-40715952D01*
X103499580Y-40715952D02*
X103547200Y-40763571D01*
X103547200Y-40763571D02*
X103594819Y-40858809D01*
X103594819Y-40858809D02*
X103594819Y-41096904D01*
X103594819Y-41096904D02*
X103547200Y-41192142D01*
X103547200Y-41192142D02*
X103499580Y-41239761D01*
X113775833Y-52524819D02*
X113442500Y-52048628D01*
X113204405Y-52524819D02*
X113204405Y-51524819D01*
X113204405Y-51524819D02*
X113585357Y-51524819D01*
X113585357Y-51524819D02*
X113680595Y-51572438D01*
X113680595Y-51572438D02*
X113728214Y-51620057D01*
X113728214Y-51620057D02*
X113775833Y-51715295D01*
X113775833Y-51715295D02*
X113775833Y-51858152D01*
X113775833Y-51858152D02*
X113728214Y-51953390D01*
X113728214Y-51953390D02*
X113680595Y-52001009D01*
X113680595Y-52001009D02*
X113585357Y-52048628D01*
X113585357Y-52048628D02*
X113204405Y-52048628D01*
X114680595Y-51524819D02*
X114204405Y-51524819D01*
X114204405Y-51524819D02*
X114156786Y-52001009D01*
X114156786Y-52001009D02*
X114204405Y-51953390D01*
X114204405Y-51953390D02*
X114299643Y-51905771D01*
X114299643Y-51905771D02*
X114537738Y-51905771D01*
X114537738Y-51905771D02*
X114632976Y-51953390D01*
X114632976Y-51953390D02*
X114680595Y-52001009D01*
X114680595Y-52001009D02*
X114728214Y-52096247D01*
X114728214Y-52096247D02*
X114728214Y-52334342D01*
X114728214Y-52334342D02*
X114680595Y-52429580D01*
X114680595Y-52429580D02*
X114632976Y-52477200D01*
X114632976Y-52477200D02*
X114537738Y-52524819D01*
X114537738Y-52524819D02*
X114299643Y-52524819D01*
X114299643Y-52524819D02*
X114204405Y-52477200D01*
X114204405Y-52477200D02*
X114156786Y-52429580D01*
X149335833Y-52524819D02*
X149002500Y-52048628D01*
X148764405Y-52524819D02*
X148764405Y-51524819D01*
X148764405Y-51524819D02*
X149145357Y-51524819D01*
X149145357Y-51524819D02*
X149240595Y-51572438D01*
X149240595Y-51572438D02*
X149288214Y-51620057D01*
X149288214Y-51620057D02*
X149335833Y-51715295D01*
X149335833Y-51715295D02*
X149335833Y-51858152D01*
X149335833Y-51858152D02*
X149288214Y-51953390D01*
X149288214Y-51953390D02*
X149240595Y-52001009D01*
X149240595Y-52001009D02*
X149145357Y-52048628D01*
X149145357Y-52048628D02*
X148764405Y-52048628D01*
X149669167Y-51524819D02*
X150335833Y-51524819D01*
X150335833Y-51524819D02*
X149907262Y-52524819D01*
X136461667Y-87462200D02*
X136604524Y-87509819D01*
X136604524Y-87509819D02*
X136842619Y-87509819D01*
X136842619Y-87509819D02*
X136937857Y-87462200D01*
X136937857Y-87462200D02*
X136985476Y-87414580D01*
X136985476Y-87414580D02*
X137033095Y-87319342D01*
X137033095Y-87319342D02*
X137033095Y-87224104D01*
X137033095Y-87224104D02*
X136985476Y-87128866D01*
X136985476Y-87128866D02*
X136937857Y-87081247D01*
X136937857Y-87081247D02*
X136842619Y-87033628D01*
X136842619Y-87033628D02*
X136652143Y-86986009D01*
X136652143Y-86986009D02*
X136556905Y-86938390D01*
X136556905Y-86938390D02*
X136509286Y-86890771D01*
X136509286Y-86890771D02*
X136461667Y-86795533D01*
X136461667Y-86795533D02*
X136461667Y-86700295D01*
X136461667Y-86700295D02*
X136509286Y-86605057D01*
X136509286Y-86605057D02*
X136556905Y-86557438D01*
X136556905Y-86557438D02*
X136652143Y-86509819D01*
X136652143Y-86509819D02*
X136890238Y-86509819D01*
X136890238Y-86509819D02*
X137033095Y-86557438D01*
X137366429Y-86509819D02*
X137604524Y-87509819D01*
X137604524Y-87509819D02*
X137795000Y-86795533D01*
X137795000Y-86795533D02*
X137985476Y-87509819D01*
X137985476Y-87509819D02*
X138223572Y-86509819D01*
X138509286Y-86509819D02*
X139175952Y-86509819D01*
X139175952Y-86509819D02*
X138747381Y-87509819D01*
X90701905Y-89354819D02*
X90701905Y-88354819D01*
X90701905Y-88354819D02*
X90940000Y-88354819D01*
X90940000Y-88354819D02*
X91082857Y-88402438D01*
X91082857Y-88402438D02*
X91178095Y-88497676D01*
X91178095Y-88497676D02*
X91225714Y-88592914D01*
X91225714Y-88592914D02*
X91273333Y-88783390D01*
X91273333Y-88783390D02*
X91273333Y-88926247D01*
X91273333Y-88926247D02*
X91225714Y-89116723D01*
X91225714Y-89116723D02*
X91178095Y-89211961D01*
X91178095Y-89211961D02*
X91082857Y-89307200D01*
X91082857Y-89307200D02*
X90940000Y-89354819D01*
X90940000Y-89354819D02*
X90701905Y-89354819D01*
X91749524Y-89354819D02*
X91940000Y-89354819D01*
X91940000Y-89354819D02*
X92035238Y-89307200D01*
X92035238Y-89307200D02*
X92082857Y-89259580D01*
X92082857Y-89259580D02*
X92178095Y-89116723D01*
X92178095Y-89116723D02*
X92225714Y-88926247D01*
X92225714Y-88926247D02*
X92225714Y-88545295D01*
X92225714Y-88545295D02*
X92178095Y-88450057D01*
X92178095Y-88450057D02*
X92130476Y-88402438D01*
X92130476Y-88402438D02*
X92035238Y-88354819D01*
X92035238Y-88354819D02*
X91844762Y-88354819D01*
X91844762Y-88354819D02*
X91749524Y-88402438D01*
X91749524Y-88402438D02*
X91701905Y-88450057D01*
X91701905Y-88450057D02*
X91654286Y-88545295D01*
X91654286Y-88545295D02*
X91654286Y-88783390D01*
X91654286Y-88783390D02*
X91701905Y-88878628D01*
X91701905Y-88878628D02*
X91749524Y-88926247D01*
X91749524Y-88926247D02*
X91844762Y-88973866D01*
X91844762Y-88973866D02*
X92035238Y-88973866D01*
X92035238Y-88973866D02*
X92130476Y-88926247D01*
X92130476Y-88926247D02*
X92178095Y-88878628D01*
X92178095Y-88878628D02*
X92225714Y-88783390D01*
X85026667Y-57012200D02*
X85169524Y-57059819D01*
X85169524Y-57059819D02*
X85407619Y-57059819D01*
X85407619Y-57059819D02*
X85502857Y-57012200D01*
X85502857Y-57012200D02*
X85550476Y-56964580D01*
X85550476Y-56964580D02*
X85598095Y-56869342D01*
X85598095Y-56869342D02*
X85598095Y-56774104D01*
X85598095Y-56774104D02*
X85550476Y-56678866D01*
X85550476Y-56678866D02*
X85502857Y-56631247D01*
X85502857Y-56631247D02*
X85407619Y-56583628D01*
X85407619Y-56583628D02*
X85217143Y-56536009D01*
X85217143Y-56536009D02*
X85121905Y-56488390D01*
X85121905Y-56488390D02*
X85074286Y-56440771D01*
X85074286Y-56440771D02*
X85026667Y-56345533D01*
X85026667Y-56345533D02*
X85026667Y-56250295D01*
X85026667Y-56250295D02*
X85074286Y-56155057D01*
X85074286Y-56155057D02*
X85121905Y-56107438D01*
X85121905Y-56107438D02*
X85217143Y-56059819D01*
X85217143Y-56059819D02*
X85455238Y-56059819D01*
X85455238Y-56059819D02*
X85598095Y-56107438D01*
X85931429Y-56059819D02*
X86169524Y-57059819D01*
X86169524Y-57059819D02*
X86360000Y-56345533D01*
X86360000Y-56345533D02*
X86550476Y-57059819D01*
X86550476Y-57059819D02*
X86788572Y-56059819D01*
X87693333Y-57059819D02*
X87121905Y-57059819D01*
X87407619Y-57059819D02*
X87407619Y-56059819D01*
X87407619Y-56059819D02*
X87312381Y-56202676D01*
X87312381Y-56202676D02*
X87217143Y-56297914D01*
X87217143Y-56297914D02*
X87121905Y-56345533D01*
X85026667Y-107692200D02*
X85169524Y-107739819D01*
X85169524Y-107739819D02*
X85407619Y-107739819D01*
X85407619Y-107739819D02*
X85502857Y-107692200D01*
X85502857Y-107692200D02*
X85550476Y-107644580D01*
X85550476Y-107644580D02*
X85598095Y-107549342D01*
X85598095Y-107549342D02*
X85598095Y-107454104D01*
X85598095Y-107454104D02*
X85550476Y-107358866D01*
X85550476Y-107358866D02*
X85502857Y-107311247D01*
X85502857Y-107311247D02*
X85407619Y-107263628D01*
X85407619Y-107263628D02*
X85217143Y-107216009D01*
X85217143Y-107216009D02*
X85121905Y-107168390D01*
X85121905Y-107168390D02*
X85074286Y-107120771D01*
X85074286Y-107120771D02*
X85026667Y-107025533D01*
X85026667Y-107025533D02*
X85026667Y-106930295D01*
X85026667Y-106930295D02*
X85074286Y-106835057D01*
X85074286Y-106835057D02*
X85121905Y-106787438D01*
X85121905Y-106787438D02*
X85217143Y-106739819D01*
X85217143Y-106739819D02*
X85455238Y-106739819D01*
X85455238Y-106739819D02*
X85598095Y-106787438D01*
X85931429Y-106739819D02*
X86169524Y-107739819D01*
X86169524Y-107739819D02*
X86360000Y-107025533D01*
X86360000Y-107025533D02*
X86550476Y-107739819D01*
X86550476Y-107739819D02*
X86788572Y-106739819D01*
X87598095Y-107073152D02*
X87598095Y-107739819D01*
X87360000Y-106692200D02*
X87121905Y-107406485D01*
X87121905Y-107406485D02*
X87740952Y-107406485D01*
X84814819Y-41668333D02*
X85529104Y-41668333D01*
X85529104Y-41668333D02*
X85671961Y-41715952D01*
X85671961Y-41715952D02*
X85767200Y-41811190D01*
X85767200Y-41811190D02*
X85814819Y-41954047D01*
X85814819Y-41954047D02*
X85814819Y-42049285D01*
X85148152Y-40763571D02*
X85814819Y-40763571D01*
X84767200Y-41001666D02*
X85481485Y-41239761D01*
X85481485Y-41239761D02*
X85481485Y-40620714D01*
X100266667Y-100677200D02*
X100409524Y-100724819D01*
X100409524Y-100724819D02*
X100647619Y-100724819D01*
X100647619Y-100724819D02*
X100742857Y-100677200D01*
X100742857Y-100677200D02*
X100790476Y-100629580D01*
X100790476Y-100629580D02*
X100838095Y-100534342D01*
X100838095Y-100534342D02*
X100838095Y-100439104D01*
X100838095Y-100439104D02*
X100790476Y-100343866D01*
X100790476Y-100343866D02*
X100742857Y-100296247D01*
X100742857Y-100296247D02*
X100647619Y-100248628D01*
X100647619Y-100248628D02*
X100457143Y-100201009D01*
X100457143Y-100201009D02*
X100361905Y-100153390D01*
X100361905Y-100153390D02*
X100314286Y-100105771D01*
X100314286Y-100105771D02*
X100266667Y-100010533D01*
X100266667Y-100010533D02*
X100266667Y-99915295D01*
X100266667Y-99915295D02*
X100314286Y-99820057D01*
X100314286Y-99820057D02*
X100361905Y-99772438D01*
X100361905Y-99772438D02*
X100457143Y-99724819D01*
X100457143Y-99724819D02*
X100695238Y-99724819D01*
X100695238Y-99724819D02*
X100838095Y-99772438D01*
X101171429Y-99724819D02*
X101409524Y-100724819D01*
X101409524Y-100724819D02*
X101600000Y-100010533D01*
X101600000Y-100010533D02*
X101790476Y-100724819D01*
X101790476Y-100724819D02*
X102028572Y-99724819D01*
X102885714Y-99724819D02*
X102409524Y-99724819D01*
X102409524Y-99724819D02*
X102361905Y-100201009D01*
X102361905Y-100201009D02*
X102409524Y-100153390D01*
X102409524Y-100153390D02*
X102504762Y-100105771D01*
X102504762Y-100105771D02*
X102742857Y-100105771D01*
X102742857Y-100105771D02*
X102838095Y-100153390D01*
X102838095Y-100153390D02*
X102885714Y-100201009D01*
X102885714Y-100201009D02*
X102933333Y-100296247D01*
X102933333Y-100296247D02*
X102933333Y-100534342D01*
X102933333Y-100534342D02*
X102885714Y-100629580D01*
X102885714Y-100629580D02*
X102838095Y-100677200D01*
X102838095Y-100677200D02*
X102742857Y-100724819D01*
X102742857Y-100724819D02*
X102504762Y-100724819D01*
X102504762Y-100724819D02*
X102409524Y-100677200D01*
X102409524Y-100677200D02*
X102361905Y-100629580D01*
X131555833Y-52524819D02*
X131222500Y-52048628D01*
X130984405Y-52524819D02*
X130984405Y-51524819D01*
X130984405Y-51524819D02*
X131365357Y-51524819D01*
X131365357Y-51524819D02*
X131460595Y-51572438D01*
X131460595Y-51572438D02*
X131508214Y-51620057D01*
X131508214Y-51620057D02*
X131555833Y-51715295D01*
X131555833Y-51715295D02*
X131555833Y-51858152D01*
X131555833Y-51858152D02*
X131508214Y-51953390D01*
X131508214Y-51953390D02*
X131460595Y-52001009D01*
X131460595Y-52001009D02*
X131365357Y-52048628D01*
X131365357Y-52048628D02*
X130984405Y-52048628D01*
X132412976Y-51524819D02*
X132222500Y-51524819D01*
X132222500Y-51524819D02*
X132127262Y-51572438D01*
X132127262Y-51572438D02*
X132079643Y-51620057D01*
X132079643Y-51620057D02*
X131984405Y-51762914D01*
X131984405Y-51762914D02*
X131936786Y-51953390D01*
X131936786Y-51953390D02*
X131936786Y-52334342D01*
X131936786Y-52334342D02*
X131984405Y-52429580D01*
X131984405Y-52429580D02*
X132032024Y-52477200D01*
X132032024Y-52477200D02*
X132127262Y-52524819D01*
X132127262Y-52524819D02*
X132317738Y-52524819D01*
X132317738Y-52524819D02*
X132412976Y-52477200D01*
X132412976Y-52477200D02*
X132460595Y-52429580D01*
X132460595Y-52429580D02*
X132508214Y-52334342D01*
X132508214Y-52334342D02*
X132508214Y-52096247D01*
X132508214Y-52096247D02*
X132460595Y-52001009D01*
X132460595Y-52001009D02*
X132412976Y-51953390D01*
X132412976Y-51953390D02*
X132317738Y-51905771D01*
X132317738Y-51905771D02*
X132127262Y-51905771D01*
X132127262Y-51905771D02*
X132032024Y-51953390D01*
X132032024Y-51953390D02*
X131984405Y-52001009D01*
X131984405Y-52001009D02*
X131936786Y-52096247D01*
X94316779Y-74114819D02*
X94316779Y-73114819D01*
X94316779Y-73114819D02*
X94554874Y-73114819D01*
X94554874Y-73114819D02*
X94697731Y-73162438D01*
X94697731Y-73162438D02*
X94792969Y-73257676D01*
X94792969Y-73257676D02*
X94840588Y-73352914D01*
X94840588Y-73352914D02*
X94888207Y-73543390D01*
X94888207Y-73543390D02*
X94888207Y-73686247D01*
X94888207Y-73686247D02*
X94840588Y-73876723D01*
X94840588Y-73876723D02*
X94792969Y-73971961D01*
X94792969Y-73971961D02*
X94697731Y-74067200D01*
X94697731Y-74067200D02*
X94554874Y-74114819D01*
X94554874Y-74114819D02*
X94316779Y-74114819D01*
X95745350Y-73448152D02*
X95745350Y-74114819D01*
X95507255Y-73067200D02*
X95269160Y-73781485D01*
X95269160Y-73781485D02*
X95888207Y-73781485D01*
X60435833Y-52524819D02*
X60102500Y-52048628D01*
X59864405Y-52524819D02*
X59864405Y-51524819D01*
X59864405Y-51524819D02*
X60245357Y-51524819D01*
X60245357Y-51524819D02*
X60340595Y-51572438D01*
X60340595Y-51572438D02*
X60388214Y-51620057D01*
X60388214Y-51620057D02*
X60435833Y-51715295D01*
X60435833Y-51715295D02*
X60435833Y-51858152D01*
X60435833Y-51858152D02*
X60388214Y-51953390D01*
X60388214Y-51953390D02*
X60340595Y-52001009D01*
X60340595Y-52001009D02*
X60245357Y-52048628D01*
X60245357Y-52048628D02*
X59864405Y-52048628D01*
X60816786Y-51620057D02*
X60864405Y-51572438D01*
X60864405Y-51572438D02*
X60959643Y-51524819D01*
X60959643Y-51524819D02*
X61197738Y-51524819D01*
X61197738Y-51524819D02*
X61292976Y-51572438D01*
X61292976Y-51572438D02*
X61340595Y-51620057D01*
X61340595Y-51620057D02*
X61388214Y-51715295D01*
X61388214Y-51715295D02*
X61388214Y-51810533D01*
X61388214Y-51810533D02*
X61340595Y-51953390D01*
X61340595Y-51953390D02*
X60769167Y-52524819D01*
X60769167Y-52524819D02*
X61388214Y-52524819D01*
X120374819Y-41668333D02*
X121089104Y-41668333D01*
X121089104Y-41668333D02*
X121231961Y-41715952D01*
X121231961Y-41715952D02*
X121327200Y-41811190D01*
X121327200Y-41811190D02*
X121374819Y-41954047D01*
X121374819Y-41954047D02*
X121374819Y-42049285D01*
X120374819Y-40763571D02*
X120374819Y-40954047D01*
X120374819Y-40954047D02*
X120422438Y-41049285D01*
X120422438Y-41049285D02*
X120470057Y-41096904D01*
X120470057Y-41096904D02*
X120612914Y-41192142D01*
X120612914Y-41192142D02*
X120803390Y-41239761D01*
X120803390Y-41239761D02*
X121184342Y-41239761D01*
X121184342Y-41239761D02*
X121279580Y-41192142D01*
X121279580Y-41192142D02*
X121327200Y-41144523D01*
X121327200Y-41144523D02*
X121374819Y-41049285D01*
X121374819Y-41049285D02*
X121374819Y-40858809D01*
X121374819Y-40858809D02*
X121327200Y-40763571D01*
X121327200Y-40763571D02*
X121279580Y-40715952D01*
X121279580Y-40715952D02*
X121184342Y-40668333D01*
X121184342Y-40668333D02*
X120946247Y-40668333D01*
X120946247Y-40668333D02*
X120851009Y-40715952D01*
X120851009Y-40715952D02*
X120803390Y-40763571D01*
X120803390Y-40763571D02*
X120755771Y-40858809D01*
X120755771Y-40858809D02*
X120755771Y-41049285D01*
X120755771Y-41049285D02*
X120803390Y-41144523D01*
X120803390Y-41144523D02*
X120851009Y-41192142D01*
X120851009Y-41192142D02*
X120946247Y-41239761D01*
X95995833Y-52524819D02*
X95662500Y-52048628D01*
X95424405Y-52524819D02*
X95424405Y-51524819D01*
X95424405Y-51524819D02*
X95805357Y-51524819D01*
X95805357Y-51524819D02*
X95900595Y-51572438D01*
X95900595Y-51572438D02*
X95948214Y-51620057D01*
X95948214Y-51620057D02*
X95995833Y-51715295D01*
X95995833Y-51715295D02*
X95995833Y-51858152D01*
X95995833Y-51858152D02*
X95948214Y-51953390D01*
X95948214Y-51953390D02*
X95900595Y-52001009D01*
X95900595Y-52001009D02*
X95805357Y-52048628D01*
X95805357Y-52048628D02*
X95424405Y-52048628D01*
X96852976Y-51858152D02*
X96852976Y-52524819D01*
X96614881Y-51477200D02*
X96376786Y-52191485D01*
X96376786Y-52191485D02*
X96995833Y-52191485D01*
X140671779Y-76654819D02*
X140671779Y-75654819D01*
X140671779Y-75654819D02*
X140909874Y-75654819D01*
X140909874Y-75654819D02*
X141052731Y-75702438D01*
X141052731Y-75702438D02*
X141147969Y-75797676D01*
X141147969Y-75797676D02*
X141195588Y-75892914D01*
X141195588Y-75892914D02*
X141243207Y-76083390D01*
X141243207Y-76083390D02*
X141243207Y-76226247D01*
X141243207Y-76226247D02*
X141195588Y-76416723D01*
X141195588Y-76416723D02*
X141147969Y-76511961D01*
X141147969Y-76511961D02*
X141052731Y-76607200D01*
X141052731Y-76607200D02*
X140909874Y-76654819D01*
X140909874Y-76654819D02*
X140671779Y-76654819D01*
X142195588Y-76654819D02*
X141624160Y-76654819D01*
X141909874Y-76654819D02*
X141909874Y-75654819D01*
X141909874Y-75654819D02*
X141814636Y-75797676D01*
X141814636Y-75797676D02*
X141719398Y-75892914D01*
X141719398Y-75892914D02*
X141624160Y-75940533D01*
X142528922Y-75654819D02*
X143147969Y-75654819D01*
X143147969Y-75654819D02*
X142814636Y-76035771D01*
X142814636Y-76035771D02*
X142957493Y-76035771D01*
X142957493Y-76035771D02*
X143052731Y-76083390D01*
X143052731Y-76083390D02*
X143100350Y-76131009D01*
X143100350Y-76131009D02*
X143147969Y-76226247D01*
X143147969Y-76226247D02*
X143147969Y-76464342D01*
X143147969Y-76464342D02*
X143100350Y-76559580D01*
X143100350Y-76559580D02*
X143052731Y-76607200D01*
X143052731Y-76607200D02*
X142957493Y-76654819D01*
X142957493Y-76654819D02*
X142671779Y-76654819D01*
X142671779Y-76654819D02*
X142576541Y-76607200D01*
X142576541Y-76607200D02*
X142528922Y-76559580D01*
X94035714Y-95704819D02*
X94035714Y-94704819D01*
X94035714Y-94704819D02*
X94273809Y-94704819D01*
X94273809Y-94704819D02*
X94416666Y-94752438D01*
X94416666Y-94752438D02*
X94511904Y-94847676D01*
X94511904Y-94847676D02*
X94559523Y-94942914D01*
X94559523Y-94942914D02*
X94607142Y-95133390D01*
X94607142Y-95133390D02*
X94607142Y-95276247D01*
X94607142Y-95276247D02*
X94559523Y-95466723D01*
X94559523Y-95466723D02*
X94511904Y-95561961D01*
X94511904Y-95561961D02*
X94416666Y-95657200D01*
X94416666Y-95657200D02*
X94273809Y-95704819D01*
X94273809Y-95704819D02*
X94035714Y-95704819D01*
X95559523Y-95704819D02*
X94988095Y-95704819D01*
X95273809Y-95704819D02*
X95273809Y-94704819D01*
X95273809Y-94704819D02*
X95178571Y-94847676D01*
X95178571Y-94847676D02*
X95083333Y-94942914D01*
X95083333Y-94942914D02*
X94988095Y-94990533D01*
X96178571Y-94704819D02*
X96273809Y-94704819D01*
X96273809Y-94704819D02*
X96369047Y-94752438D01*
X96369047Y-94752438D02*
X96416666Y-94800057D01*
X96416666Y-94800057D02*
X96464285Y-94895295D01*
X96464285Y-94895295D02*
X96511904Y-95085771D01*
X96511904Y-95085771D02*
X96511904Y-95323866D01*
X96511904Y-95323866D02*
X96464285Y-95514342D01*
X96464285Y-95514342D02*
X96416666Y-95609580D01*
X96416666Y-95609580D02*
X96369047Y-95657200D01*
X96369047Y-95657200D02*
X96273809Y-95704819D01*
X96273809Y-95704819D02*
X96178571Y-95704819D01*
X96178571Y-95704819D02*
X96083333Y-95657200D01*
X96083333Y-95657200D02*
X96035714Y-95609580D01*
X96035714Y-95609580D02*
X95988095Y-95514342D01*
X95988095Y-95514342D02*
X95940476Y-95323866D01*
X95940476Y-95323866D02*
X95940476Y-95085771D01*
X95940476Y-95085771D02*
X95988095Y-94895295D01*
X95988095Y-94895295D02*
X96035714Y-94800057D01*
X96035714Y-94800057D02*
X96083333Y-94752438D01*
X96083333Y-94752438D02*
X96178571Y-94704819D01*
X76731905Y-67764819D02*
X76731905Y-66764819D01*
X76731905Y-66764819D02*
X76970000Y-66764819D01*
X76970000Y-66764819D02*
X77112857Y-66812438D01*
X77112857Y-66812438D02*
X77208095Y-66907676D01*
X77208095Y-66907676D02*
X77255714Y-67002914D01*
X77255714Y-67002914D02*
X77303333Y-67193390D01*
X77303333Y-67193390D02*
X77303333Y-67336247D01*
X77303333Y-67336247D02*
X77255714Y-67526723D01*
X77255714Y-67526723D02*
X77208095Y-67621961D01*
X77208095Y-67621961D02*
X77112857Y-67717200D01*
X77112857Y-67717200D02*
X76970000Y-67764819D01*
X76970000Y-67764819D02*
X76731905Y-67764819D01*
X77684286Y-66860057D02*
X77731905Y-66812438D01*
X77731905Y-66812438D02*
X77827143Y-66764819D01*
X77827143Y-66764819D02*
X78065238Y-66764819D01*
X78065238Y-66764819D02*
X78160476Y-66812438D01*
X78160476Y-66812438D02*
X78208095Y-66860057D01*
X78208095Y-66860057D02*
X78255714Y-66955295D01*
X78255714Y-66955295D02*
X78255714Y-67050533D01*
X78255714Y-67050533D02*
X78208095Y-67193390D01*
X78208095Y-67193390D02*
X77636667Y-67764819D01*
X77636667Y-67764819D02*
X78255714Y-67764819D01*
X138154819Y-41668333D02*
X138869104Y-41668333D01*
X138869104Y-41668333D02*
X139011961Y-41715952D01*
X139011961Y-41715952D02*
X139107200Y-41811190D01*
X139107200Y-41811190D02*
X139154819Y-41954047D01*
X139154819Y-41954047D02*
X139154819Y-42049285D01*
X138154819Y-41287380D02*
X138154819Y-40620714D01*
X138154819Y-40620714D02*
X139154819Y-41049285D01*
X107016779Y-75384819D02*
X107016779Y-74384819D01*
X107016779Y-74384819D02*
X107254874Y-74384819D01*
X107254874Y-74384819D02*
X107397731Y-74432438D01*
X107397731Y-74432438D02*
X107492969Y-74527676D01*
X107492969Y-74527676D02*
X107540588Y-74622914D01*
X107540588Y-74622914D02*
X107588207Y-74813390D01*
X107588207Y-74813390D02*
X107588207Y-74956247D01*
X107588207Y-74956247D02*
X107540588Y-75146723D01*
X107540588Y-75146723D02*
X107492969Y-75241961D01*
X107492969Y-75241961D02*
X107397731Y-75337200D01*
X107397731Y-75337200D02*
X107254874Y-75384819D01*
X107254874Y-75384819D02*
X107016779Y-75384819D01*
X108492969Y-74384819D02*
X108016779Y-74384819D01*
X108016779Y-74384819D02*
X107969160Y-74861009D01*
X107969160Y-74861009D02*
X108016779Y-74813390D01*
X108016779Y-74813390D02*
X108112017Y-74765771D01*
X108112017Y-74765771D02*
X108350112Y-74765771D01*
X108350112Y-74765771D02*
X108445350Y-74813390D01*
X108445350Y-74813390D02*
X108492969Y-74861009D01*
X108492969Y-74861009D02*
X108540588Y-74956247D01*
X108540588Y-74956247D02*
X108540588Y-75194342D01*
X108540588Y-75194342D02*
X108492969Y-75289580D01*
X108492969Y-75289580D02*
X108445350Y-75337200D01*
X108445350Y-75337200D02*
X108350112Y-75384819D01*
X108350112Y-75384819D02*
X108112017Y-75384819D01*
X108112017Y-75384819D02*
X108016779Y-75337200D01*
X108016779Y-75337200D02*
X107969160Y-75289580D01*
X107016779Y-89354819D02*
X107016779Y-88354819D01*
X107016779Y-88354819D02*
X107254874Y-88354819D01*
X107254874Y-88354819D02*
X107397731Y-88402438D01*
X107397731Y-88402438D02*
X107492969Y-88497676D01*
X107492969Y-88497676D02*
X107540588Y-88592914D01*
X107540588Y-88592914D02*
X107588207Y-88783390D01*
X107588207Y-88783390D02*
X107588207Y-88926247D01*
X107588207Y-88926247D02*
X107540588Y-89116723D01*
X107540588Y-89116723D02*
X107492969Y-89211961D01*
X107492969Y-89211961D02*
X107397731Y-89307200D01*
X107397731Y-89307200D02*
X107254874Y-89354819D01*
X107254874Y-89354819D02*
X107016779Y-89354819D01*
X108540588Y-89354819D02*
X107969160Y-89354819D01*
X108254874Y-89354819D02*
X108254874Y-88354819D01*
X108254874Y-88354819D02*
X108159636Y-88497676D01*
X108159636Y-88497676D02*
X108064398Y-88592914D01*
X108064398Y-88592914D02*
X107969160Y-88640533D01*
X108921541Y-88450057D02*
X108969160Y-88402438D01*
X108969160Y-88402438D02*
X109064398Y-88354819D01*
X109064398Y-88354819D02*
X109302493Y-88354819D01*
X109302493Y-88354819D02*
X109397731Y-88402438D01*
X109397731Y-88402438D02*
X109445350Y-88450057D01*
X109445350Y-88450057D02*
X109492969Y-88545295D01*
X109492969Y-88545295D02*
X109492969Y-88640533D01*
X109492969Y-88640533D02*
X109445350Y-88783390D01*
X109445350Y-88783390D02*
X108873922Y-89354819D01*
X108873922Y-89354819D02*
X109492969Y-89354819D01*
X113601667Y-93692200D02*
X113744524Y-93739819D01*
X113744524Y-93739819D02*
X113982619Y-93739819D01*
X113982619Y-93739819D02*
X114077857Y-93692200D01*
X114077857Y-93692200D02*
X114125476Y-93644580D01*
X114125476Y-93644580D02*
X114173095Y-93549342D01*
X114173095Y-93549342D02*
X114173095Y-93454104D01*
X114173095Y-93454104D02*
X114125476Y-93358866D01*
X114125476Y-93358866D02*
X114077857Y-93311247D01*
X114077857Y-93311247D02*
X113982619Y-93263628D01*
X113982619Y-93263628D02*
X113792143Y-93216009D01*
X113792143Y-93216009D02*
X113696905Y-93168390D01*
X113696905Y-93168390D02*
X113649286Y-93120771D01*
X113649286Y-93120771D02*
X113601667Y-93025533D01*
X113601667Y-93025533D02*
X113601667Y-92930295D01*
X113601667Y-92930295D02*
X113649286Y-92835057D01*
X113649286Y-92835057D02*
X113696905Y-92787438D01*
X113696905Y-92787438D02*
X113792143Y-92739819D01*
X113792143Y-92739819D02*
X114030238Y-92739819D01*
X114030238Y-92739819D02*
X114173095Y-92787438D01*
X114506429Y-92739819D02*
X114744524Y-93739819D01*
X114744524Y-93739819D02*
X114935000Y-93025533D01*
X114935000Y-93025533D02*
X115125476Y-93739819D01*
X115125476Y-93739819D02*
X115363572Y-92739819D01*
X116173095Y-92739819D02*
X115982619Y-92739819D01*
X115982619Y-92739819D02*
X115887381Y-92787438D01*
X115887381Y-92787438D02*
X115839762Y-92835057D01*
X115839762Y-92835057D02*
X115744524Y-92977914D01*
X115744524Y-92977914D02*
X115696905Y-93168390D01*
X115696905Y-93168390D02*
X115696905Y-93549342D01*
X115696905Y-93549342D02*
X115744524Y-93644580D01*
X115744524Y-93644580D02*
X115792143Y-93692200D01*
X115792143Y-93692200D02*
X115887381Y-93739819D01*
X115887381Y-93739819D02*
X116077857Y-93739819D01*
X116077857Y-93739819D02*
X116173095Y-93692200D01*
X116173095Y-93692200D02*
X116220714Y-93644580D01*
X116220714Y-93644580D02*
X116268333Y-93549342D01*
X116268333Y-93549342D02*
X116268333Y-93311247D01*
X116268333Y-93311247D02*
X116220714Y-93216009D01*
X116220714Y-93216009D02*
X116173095Y-93168390D01*
X116173095Y-93168390D02*
X116077857Y-93120771D01*
X116077857Y-93120771D02*
X115887381Y-93120771D01*
X115887381Y-93120771D02*
X115792143Y-93168390D01*
X115792143Y-93168390D02*
X115744524Y-93216009D01*
X115744524Y-93216009D02*
X115696905Y-93311247D01*
X72921905Y-95704819D02*
X72921905Y-94704819D01*
X72921905Y-94704819D02*
X73160000Y-94704819D01*
X73160000Y-94704819D02*
X73302857Y-94752438D01*
X73302857Y-94752438D02*
X73398095Y-94847676D01*
X73398095Y-94847676D02*
X73445714Y-94942914D01*
X73445714Y-94942914D02*
X73493333Y-95133390D01*
X73493333Y-95133390D02*
X73493333Y-95276247D01*
X73493333Y-95276247D02*
X73445714Y-95466723D01*
X73445714Y-95466723D02*
X73398095Y-95561961D01*
X73398095Y-95561961D02*
X73302857Y-95657200D01*
X73302857Y-95657200D02*
X73160000Y-95704819D01*
X73160000Y-95704819D02*
X72921905Y-95704819D01*
X73826667Y-94704819D02*
X74493333Y-94704819D01*
X74493333Y-94704819D02*
X74064762Y-95704819D01*
X107016779Y-80464819D02*
X107016779Y-79464819D01*
X107016779Y-79464819D02*
X107254874Y-79464819D01*
X107254874Y-79464819D02*
X107397731Y-79512438D01*
X107397731Y-79512438D02*
X107492969Y-79607676D01*
X107492969Y-79607676D02*
X107540588Y-79702914D01*
X107540588Y-79702914D02*
X107588207Y-79893390D01*
X107588207Y-79893390D02*
X107588207Y-80036247D01*
X107588207Y-80036247D02*
X107540588Y-80226723D01*
X107540588Y-80226723D02*
X107492969Y-80321961D01*
X107492969Y-80321961D02*
X107397731Y-80417200D01*
X107397731Y-80417200D02*
X107254874Y-80464819D01*
X107254874Y-80464819D02*
X107016779Y-80464819D01*
X108445350Y-79464819D02*
X108254874Y-79464819D01*
X108254874Y-79464819D02*
X108159636Y-79512438D01*
X108159636Y-79512438D02*
X108112017Y-79560057D01*
X108112017Y-79560057D02*
X108016779Y-79702914D01*
X108016779Y-79702914D02*
X107969160Y-79893390D01*
X107969160Y-79893390D02*
X107969160Y-80274342D01*
X107969160Y-80274342D02*
X108016779Y-80369580D01*
X108016779Y-80369580D02*
X108064398Y-80417200D01*
X108064398Y-80417200D02*
X108159636Y-80464819D01*
X108159636Y-80464819D02*
X108350112Y-80464819D01*
X108350112Y-80464819D02*
X108445350Y-80417200D01*
X108445350Y-80417200D02*
X108492969Y-80369580D01*
X108492969Y-80369580D02*
X108540588Y-80274342D01*
X108540588Y-80274342D02*
X108540588Y-80036247D01*
X108540588Y-80036247D02*
X108492969Y-79941009D01*
X108492969Y-79941009D02*
X108445350Y-79893390D01*
X108445350Y-79893390D02*
X108350112Y-79845771D01*
X108350112Y-79845771D02*
X108159636Y-79845771D01*
X108159636Y-79845771D02*
X108064398Y-79893390D01*
X108064398Y-79893390D02*
X108016779Y-79941009D01*
X108016779Y-79941009D02*
X107969160Y-80036247D01*
X76536779Y-104594819D02*
X76536779Y-103594819D01*
X76536779Y-103594819D02*
X76774874Y-103594819D01*
X76774874Y-103594819D02*
X76917731Y-103642438D01*
X76917731Y-103642438D02*
X77012969Y-103737676D01*
X77012969Y-103737676D02*
X77060588Y-103832914D01*
X77060588Y-103832914D02*
X77108207Y-104023390D01*
X77108207Y-104023390D02*
X77108207Y-104166247D01*
X77108207Y-104166247D02*
X77060588Y-104356723D01*
X77060588Y-104356723D02*
X77012969Y-104451961D01*
X77012969Y-104451961D02*
X76917731Y-104547200D01*
X76917731Y-104547200D02*
X76774874Y-104594819D01*
X76774874Y-104594819D02*
X76536779Y-104594819D01*
X77679636Y-104023390D02*
X77584398Y-103975771D01*
X77584398Y-103975771D02*
X77536779Y-103928152D01*
X77536779Y-103928152D02*
X77489160Y-103832914D01*
X77489160Y-103832914D02*
X77489160Y-103785295D01*
X77489160Y-103785295D02*
X77536779Y-103690057D01*
X77536779Y-103690057D02*
X77584398Y-103642438D01*
X77584398Y-103642438D02*
X77679636Y-103594819D01*
X77679636Y-103594819D02*
X77870112Y-103594819D01*
X77870112Y-103594819D02*
X77965350Y-103642438D01*
X77965350Y-103642438D02*
X78012969Y-103690057D01*
X78012969Y-103690057D02*
X78060588Y-103785295D01*
X78060588Y-103785295D02*
X78060588Y-103832914D01*
X78060588Y-103832914D02*
X78012969Y-103928152D01*
X78012969Y-103928152D02*
X77965350Y-103975771D01*
X77965350Y-103975771D02*
X77870112Y-104023390D01*
X77870112Y-104023390D02*
X77679636Y-104023390D01*
X77679636Y-104023390D02*
X77584398Y-104071009D01*
X77584398Y-104071009D02*
X77536779Y-104118628D01*
X77536779Y-104118628D02*
X77489160Y-104213866D01*
X77489160Y-104213866D02*
X77489160Y-104404342D01*
X77489160Y-104404342D02*
X77536779Y-104499580D01*
X77536779Y-104499580D02*
X77584398Y-104547200D01*
X77584398Y-104547200D02*
X77679636Y-104594819D01*
X77679636Y-104594819D02*
X77870112Y-104594819D01*
X77870112Y-104594819D02*
X77965350Y-104547200D01*
X77965350Y-104547200D02*
X78012969Y-104499580D01*
X78012969Y-104499580D02*
X78060588Y-104404342D01*
X78060588Y-104404342D02*
X78060588Y-104213866D01*
X78060588Y-104213866D02*
X78012969Y-104118628D01*
X78012969Y-104118628D02*
X77965350Y-104071009D01*
X77965350Y-104071009D02*
X77870112Y-104023390D01*
X49254819Y-41668333D02*
X49969104Y-41668333D01*
X49969104Y-41668333D02*
X50111961Y-41715952D01*
X50111961Y-41715952D02*
X50207200Y-41811190D01*
X50207200Y-41811190D02*
X50254819Y-41954047D01*
X50254819Y-41954047D02*
X50254819Y-42049285D01*
X49350057Y-41239761D02*
X49302438Y-41192142D01*
X49302438Y-41192142D02*
X49254819Y-41096904D01*
X49254819Y-41096904D02*
X49254819Y-40858809D01*
X49254819Y-40858809D02*
X49302438Y-40763571D01*
X49302438Y-40763571D02*
X49350057Y-40715952D01*
X49350057Y-40715952D02*
X49445295Y-40668333D01*
X49445295Y-40668333D02*
X49540533Y-40668333D01*
X49540533Y-40668333D02*
X49683390Y-40715952D01*
X49683390Y-40715952D02*
X50254819Y-41287380D01*
X50254819Y-41287380D02*
X50254819Y-40668333D01*
X76731905Y-60144819D02*
X76731905Y-59144819D01*
X76731905Y-59144819D02*
X76970000Y-59144819D01*
X76970000Y-59144819D02*
X77112857Y-59192438D01*
X77112857Y-59192438D02*
X77208095Y-59287676D01*
X77208095Y-59287676D02*
X77255714Y-59382914D01*
X77255714Y-59382914D02*
X77303333Y-59573390D01*
X77303333Y-59573390D02*
X77303333Y-59716247D01*
X77303333Y-59716247D02*
X77255714Y-59906723D01*
X77255714Y-59906723D02*
X77208095Y-60001961D01*
X77208095Y-60001961D02*
X77112857Y-60097200D01*
X77112857Y-60097200D02*
X76970000Y-60144819D01*
X76970000Y-60144819D02*
X76731905Y-60144819D01*
X78255714Y-60144819D02*
X77684286Y-60144819D01*
X77970000Y-60144819D02*
X77970000Y-59144819D01*
X77970000Y-59144819D02*
X77874762Y-59287676D01*
X77874762Y-59287676D02*
X77779524Y-59382914D01*
X77779524Y-59382914D02*
X77684286Y-59430533D01*
X107016779Y-84274819D02*
X107016779Y-83274819D01*
X107016779Y-83274819D02*
X107254874Y-83274819D01*
X107254874Y-83274819D02*
X107397731Y-83322438D01*
X107397731Y-83322438D02*
X107492969Y-83417676D01*
X107492969Y-83417676D02*
X107540588Y-83512914D01*
X107540588Y-83512914D02*
X107588207Y-83703390D01*
X107588207Y-83703390D02*
X107588207Y-83846247D01*
X107588207Y-83846247D02*
X107540588Y-84036723D01*
X107540588Y-84036723D02*
X107492969Y-84131961D01*
X107492969Y-84131961D02*
X107397731Y-84227200D01*
X107397731Y-84227200D02*
X107254874Y-84274819D01*
X107254874Y-84274819D02*
X107016779Y-84274819D01*
X108540588Y-84274819D02*
X107969160Y-84274819D01*
X108254874Y-84274819D02*
X108254874Y-83274819D01*
X108254874Y-83274819D02*
X108159636Y-83417676D01*
X108159636Y-83417676D02*
X108064398Y-83512914D01*
X108064398Y-83512914D02*
X107969160Y-83560533D01*
X109492969Y-84274819D02*
X108921541Y-84274819D01*
X109207255Y-84274819D02*
X109207255Y-83274819D01*
X109207255Y-83274819D02*
X109112017Y-83417676D01*
X109112017Y-83417676D02*
X109016779Y-83512914D01*
X109016779Y-83512914D02*
X108921541Y-83560533D01*
X140671779Y-82369819D02*
X140671779Y-81369819D01*
X140671779Y-81369819D02*
X140909874Y-81369819D01*
X140909874Y-81369819D02*
X141052731Y-81417438D01*
X141052731Y-81417438D02*
X141147969Y-81512676D01*
X141147969Y-81512676D02*
X141195588Y-81607914D01*
X141195588Y-81607914D02*
X141243207Y-81798390D01*
X141243207Y-81798390D02*
X141243207Y-81941247D01*
X141243207Y-81941247D02*
X141195588Y-82131723D01*
X141195588Y-82131723D02*
X141147969Y-82226961D01*
X141147969Y-82226961D02*
X141052731Y-82322200D01*
X141052731Y-82322200D02*
X140909874Y-82369819D01*
X140909874Y-82369819D02*
X140671779Y-82369819D01*
X142195588Y-82369819D02*
X141624160Y-82369819D01*
X141909874Y-82369819D02*
X141909874Y-81369819D01*
X141909874Y-81369819D02*
X141814636Y-81512676D01*
X141814636Y-81512676D02*
X141719398Y-81607914D01*
X141719398Y-81607914D02*
X141624160Y-81655533D01*
X143052731Y-81703152D02*
X143052731Y-82369819D01*
X142814636Y-81322200D02*
X142576541Y-82036485D01*
X142576541Y-82036485D02*
X143195588Y-82036485D01*
X113601667Y-70952200D02*
X113744524Y-70999819D01*
X113744524Y-70999819D02*
X113982619Y-70999819D01*
X113982619Y-70999819D02*
X114077857Y-70952200D01*
X114077857Y-70952200D02*
X114125476Y-70904580D01*
X114125476Y-70904580D02*
X114173095Y-70809342D01*
X114173095Y-70809342D02*
X114173095Y-70714104D01*
X114173095Y-70714104D02*
X114125476Y-70618866D01*
X114125476Y-70618866D02*
X114077857Y-70571247D01*
X114077857Y-70571247D02*
X113982619Y-70523628D01*
X113982619Y-70523628D02*
X113792143Y-70476009D01*
X113792143Y-70476009D02*
X113696905Y-70428390D01*
X113696905Y-70428390D02*
X113649286Y-70380771D01*
X113649286Y-70380771D02*
X113601667Y-70285533D01*
X113601667Y-70285533D02*
X113601667Y-70190295D01*
X113601667Y-70190295D02*
X113649286Y-70095057D01*
X113649286Y-70095057D02*
X113696905Y-70047438D01*
X113696905Y-70047438D02*
X113792143Y-69999819D01*
X113792143Y-69999819D02*
X114030238Y-69999819D01*
X114030238Y-69999819D02*
X114173095Y-70047438D01*
X114506429Y-69999819D02*
X114744524Y-70999819D01*
X114744524Y-70999819D02*
X114935000Y-70285533D01*
X114935000Y-70285533D02*
X115125476Y-70999819D01*
X115125476Y-70999819D02*
X115363572Y-69999819D01*
X115649286Y-69999819D02*
X116268333Y-69999819D01*
X116268333Y-69999819D02*
X115935000Y-70380771D01*
X115935000Y-70380771D02*
X116077857Y-70380771D01*
X116077857Y-70380771D02*
X116173095Y-70428390D01*
X116173095Y-70428390D02*
X116220714Y-70476009D01*
X116220714Y-70476009D02*
X116268333Y-70571247D01*
X116268333Y-70571247D02*
X116268333Y-70809342D01*
X116268333Y-70809342D02*
X116220714Y-70904580D01*
X116220714Y-70904580D02*
X116173095Y-70952200D01*
X116173095Y-70952200D02*
X116077857Y-70999819D01*
X116077857Y-70999819D02*
X115792143Y-70999819D01*
X115792143Y-70999819D02*
X115696905Y-70952200D01*
X115696905Y-70952200D02*
X115649286Y-70904580D01*
X100266667Y-63967200D02*
X100409524Y-64014819D01*
X100409524Y-64014819D02*
X100647619Y-64014819D01*
X100647619Y-64014819D02*
X100742857Y-63967200D01*
X100742857Y-63967200D02*
X100790476Y-63919580D01*
X100790476Y-63919580D02*
X100838095Y-63824342D01*
X100838095Y-63824342D02*
X100838095Y-63729104D01*
X100838095Y-63729104D02*
X100790476Y-63633866D01*
X100790476Y-63633866D02*
X100742857Y-63586247D01*
X100742857Y-63586247D02*
X100647619Y-63538628D01*
X100647619Y-63538628D02*
X100457143Y-63491009D01*
X100457143Y-63491009D02*
X100361905Y-63443390D01*
X100361905Y-63443390D02*
X100314286Y-63395771D01*
X100314286Y-63395771D02*
X100266667Y-63300533D01*
X100266667Y-63300533D02*
X100266667Y-63205295D01*
X100266667Y-63205295D02*
X100314286Y-63110057D01*
X100314286Y-63110057D02*
X100361905Y-63062438D01*
X100361905Y-63062438D02*
X100457143Y-63014819D01*
X100457143Y-63014819D02*
X100695238Y-63014819D01*
X100695238Y-63014819D02*
X100838095Y-63062438D01*
X101171429Y-63014819D02*
X101409524Y-64014819D01*
X101409524Y-64014819D02*
X101600000Y-63300533D01*
X101600000Y-63300533D02*
X101790476Y-64014819D01*
X101790476Y-64014819D02*
X102028572Y-63014819D01*
X102361905Y-63110057D02*
X102409524Y-63062438D01*
X102409524Y-63062438D02*
X102504762Y-63014819D01*
X102504762Y-63014819D02*
X102742857Y-63014819D01*
X102742857Y-63014819D02*
X102838095Y-63062438D01*
X102838095Y-63062438D02*
X102885714Y-63110057D01*
X102885714Y-63110057D02*
X102933333Y-63205295D01*
X102933333Y-63205295D02*
X102933333Y-63300533D01*
X102933333Y-63300533D02*
X102885714Y-63443390D01*
X102885714Y-63443390D02*
X102314286Y-64014819D01*
X102314286Y-64014819D02*
X102933333Y-64014819D01*
X67034819Y-41668333D02*
X67749104Y-41668333D01*
X67749104Y-41668333D02*
X67891961Y-41715952D01*
X67891961Y-41715952D02*
X67987200Y-41811190D01*
X67987200Y-41811190D02*
X68034819Y-41954047D01*
X68034819Y-41954047D02*
X68034819Y-42049285D01*
X67034819Y-41287380D02*
X67034819Y-40668333D01*
X67034819Y-40668333D02*
X67415771Y-41001666D01*
X67415771Y-41001666D02*
X67415771Y-40858809D01*
X67415771Y-40858809D02*
X67463390Y-40763571D01*
X67463390Y-40763571D02*
X67511009Y-40715952D01*
X67511009Y-40715952D02*
X67606247Y-40668333D01*
X67606247Y-40668333D02*
X67844342Y-40668333D01*
X67844342Y-40668333D02*
X67939580Y-40715952D01*
X67939580Y-40715952D02*
X67987200Y-40763571D01*
X67987200Y-40763571D02*
X68034819Y-40858809D01*
X68034819Y-40858809D02*
X68034819Y-41144523D01*
X68034819Y-41144523D02*
X67987200Y-41239761D01*
X67987200Y-41239761D02*
X67939580Y-41287380D01*
D13*
%TO.C,D3*%
X89755000Y-67620000D02*
X89755000Y-69540000D01*
X89755000Y-69540000D02*
X92440000Y-69540000D01*
X92440000Y-67620000D02*
X89755000Y-67620000D01*
%TO.C,R1*%
X42595436Y-49430000D02*
X43049564Y-49430000D01*
X42595436Y-50900000D02*
X43049564Y-50900000D01*
%TO.C,R3*%
X78155436Y-49430000D02*
X78609564Y-49430000D01*
X78155436Y-50900000D02*
X78609564Y-50900000D01*
%TO.C,J1*%
X33020000Y-46990000D02*
X33020000Y-45720000D01*
X34290000Y-46990000D02*
X33020000Y-46990000D01*
X36450000Y-44677071D02*
X36450000Y-44280000D01*
X37210000Y-44677071D02*
X37210000Y-44280000D01*
X38990000Y-44677071D02*
X38990000Y-44280000D01*
X39750000Y-44677071D02*
X39750000Y-44280000D01*
X41530000Y-44677071D02*
X41530000Y-44280000D01*
X42290000Y-44677071D02*
X42290000Y-44280000D01*
X44070000Y-44677071D02*
X44070000Y-44280000D01*
X44830000Y-44677071D02*
X44830000Y-44280000D01*
X33910000Y-44610000D02*
X33910000Y-44280000D01*
X34670000Y-44610000D02*
X34670000Y-44280000D01*
X32960000Y-44280000D02*
X45780000Y-44280000D01*
X35560000Y-44280000D02*
X35560000Y-41620000D01*
X38100000Y-44280000D02*
X38100000Y-41620000D01*
X40640000Y-44280000D02*
X40640000Y-41620000D01*
X43180000Y-44280000D02*
X43180000Y-41620000D01*
X45780000Y-44280000D02*
X45780000Y-41620000D01*
X32960000Y-41620000D02*
X32960000Y-44280000D01*
X33910000Y-41620000D02*
X33910000Y-35620000D01*
X33970000Y-41620000D02*
X33970000Y-35620000D01*
X34090000Y-41620000D02*
X34090000Y-35620000D01*
X34210000Y-41620000D02*
X34210000Y-35620000D01*
X34330000Y-41620000D02*
X34330000Y-35620000D01*
X34450000Y-41620000D02*
X34450000Y-35620000D01*
X34570000Y-41620000D02*
X34570000Y-35620000D01*
X36450000Y-41620000D02*
X36450000Y-35620000D01*
X38990000Y-41620000D02*
X38990000Y-35620000D01*
X41530000Y-41620000D02*
X41530000Y-35620000D01*
X44070000Y-41620000D02*
X44070000Y-35620000D01*
X45780000Y-41620000D02*
X32960000Y-41620000D01*
X33910000Y-35620000D02*
X34670000Y-35620000D01*
X34670000Y-35620000D02*
X34670000Y-41620000D01*
X36450000Y-35620000D02*
X37210000Y-35620000D01*
X37210000Y-35620000D02*
X37210000Y-41620000D01*
X38990000Y-35620000D02*
X39750000Y-35620000D01*
X39750000Y-35620000D02*
X39750000Y-41620000D01*
X41530000Y-35620000D02*
X42290000Y-35620000D01*
X42290000Y-35620000D02*
X42290000Y-41620000D01*
X44070000Y-35620000D02*
X44830000Y-35620000D01*
X44830000Y-35620000D02*
X44830000Y-41620000D01*
%TO.C,J5*%
X104140000Y-46990000D02*
X104140000Y-45720000D01*
X105410000Y-46990000D02*
X104140000Y-46990000D01*
X107570000Y-44677071D02*
X107570000Y-44280000D01*
X108330000Y-44677071D02*
X108330000Y-44280000D01*
X110110000Y-44677071D02*
X110110000Y-44280000D01*
X110870000Y-44677071D02*
X110870000Y-44280000D01*
X112650000Y-44677071D02*
X112650000Y-44280000D01*
X113410000Y-44677071D02*
X113410000Y-44280000D01*
X115190000Y-44677071D02*
X115190000Y-44280000D01*
X115950000Y-44677071D02*
X115950000Y-44280000D01*
X105030000Y-44610000D02*
X105030000Y-44280000D01*
X105790000Y-44610000D02*
X105790000Y-44280000D01*
X104080000Y-44280000D02*
X116900000Y-44280000D01*
X106680000Y-44280000D02*
X106680000Y-41620000D01*
X109220000Y-44280000D02*
X109220000Y-41620000D01*
X111760000Y-44280000D02*
X111760000Y-41620000D01*
X114300000Y-44280000D02*
X114300000Y-41620000D01*
X116900000Y-44280000D02*
X116900000Y-41620000D01*
X104080000Y-41620000D02*
X104080000Y-44280000D01*
X105030000Y-41620000D02*
X105030000Y-35620000D01*
X105090000Y-41620000D02*
X105090000Y-35620000D01*
X105210000Y-41620000D02*
X105210000Y-35620000D01*
X105330000Y-41620000D02*
X105330000Y-35620000D01*
X105450000Y-41620000D02*
X105450000Y-35620000D01*
X105570000Y-41620000D02*
X105570000Y-35620000D01*
X105690000Y-41620000D02*
X105690000Y-35620000D01*
X107570000Y-41620000D02*
X107570000Y-35620000D01*
X110110000Y-41620000D02*
X110110000Y-35620000D01*
X112650000Y-41620000D02*
X112650000Y-35620000D01*
X115190000Y-41620000D02*
X115190000Y-35620000D01*
X116900000Y-41620000D02*
X104080000Y-41620000D01*
X105030000Y-35620000D02*
X105790000Y-35620000D01*
X105790000Y-35620000D02*
X105790000Y-41620000D01*
X107570000Y-35620000D02*
X108330000Y-35620000D01*
X108330000Y-35620000D02*
X108330000Y-41620000D01*
X110110000Y-35620000D02*
X110870000Y-35620000D01*
X110870000Y-35620000D02*
X110870000Y-41620000D01*
X112650000Y-35620000D02*
X113410000Y-35620000D01*
X113410000Y-35620000D02*
X113410000Y-41620000D01*
X115190000Y-35620000D02*
X115950000Y-35620000D01*
X115950000Y-35620000D02*
X115950000Y-41620000D01*
%TO.C,R5*%
X113715436Y-49430000D02*
X114169564Y-49430000D01*
X113715436Y-50900000D02*
X114169564Y-50900000D01*
%TO.C,R7*%
X149275436Y-50900000D02*
X149729564Y-50900000D01*
X149275436Y-49430000D02*
X149729564Y-49430000D01*
%TO.C,SW7*%
X135045000Y-89805000D02*
X135045000Y-91805000D01*
X136045000Y-88505000D02*
X136495000Y-88055000D01*
X136045000Y-93105000D02*
X136495000Y-93555000D01*
X136495000Y-88055000D02*
X139095000Y-88055000D01*
X136495000Y-93555000D02*
X139095000Y-93555000D01*
X139545000Y-88505000D02*
X139095000Y-88055000D01*
X139545000Y-93105000D02*
X139095000Y-93555000D01*
X140545000Y-89805000D02*
X140545000Y-91805000D01*
%TO.C,D9*%
X89755000Y-90480000D02*
X89755000Y-92400000D01*
X89755000Y-92400000D02*
X92440000Y-92400000D01*
X92440000Y-90480000D02*
X89755000Y-90480000D01*
%TO.C,SW1*%
X83610000Y-59355000D02*
X83610000Y-61355000D01*
X84610000Y-58055000D02*
X85060000Y-57605000D01*
X84610000Y-62655000D02*
X85060000Y-63105000D01*
X85060000Y-57605000D02*
X87660000Y-57605000D01*
X85060000Y-63105000D02*
X87660000Y-63105000D01*
X88110000Y-58055000D02*
X87660000Y-57605000D01*
X88110000Y-62655000D02*
X87660000Y-63105000D01*
X89110000Y-59355000D02*
X89110000Y-61355000D01*
%TO.C,SW4*%
X89110000Y-104535000D02*
X89110000Y-102535000D01*
X88110000Y-105835000D02*
X87660000Y-106285000D01*
X88110000Y-101235000D02*
X87660000Y-100785000D01*
X87660000Y-106285000D02*
X85060000Y-106285000D01*
X87660000Y-100785000D02*
X85060000Y-100785000D01*
X84610000Y-105835000D02*
X85060000Y-106285000D01*
X84610000Y-101235000D02*
X85060000Y-100785000D01*
X83610000Y-104535000D02*
X83610000Y-102535000D01*
%TO.C,J4*%
X86360000Y-46990000D02*
X86360000Y-45720000D01*
X87630000Y-46990000D02*
X86360000Y-46990000D01*
X89790000Y-44677071D02*
X89790000Y-44280000D01*
X90550000Y-44677071D02*
X90550000Y-44280000D01*
X92330000Y-44677071D02*
X92330000Y-44280000D01*
X93090000Y-44677071D02*
X93090000Y-44280000D01*
X94870000Y-44677071D02*
X94870000Y-44280000D01*
X95630000Y-44677071D02*
X95630000Y-44280000D01*
X97410000Y-44677071D02*
X97410000Y-44280000D01*
X98170000Y-44677071D02*
X98170000Y-44280000D01*
X87250000Y-44610000D02*
X87250000Y-44280000D01*
X88010000Y-44610000D02*
X88010000Y-44280000D01*
X86300000Y-44280000D02*
X99120000Y-44280000D01*
X88900000Y-44280000D02*
X88900000Y-41620000D01*
X91440000Y-44280000D02*
X91440000Y-41620000D01*
X93980000Y-44280000D02*
X93980000Y-41620000D01*
X96520000Y-44280000D02*
X96520000Y-41620000D01*
X99120000Y-44280000D02*
X99120000Y-41620000D01*
X86300000Y-41620000D02*
X86300000Y-44280000D01*
X87250000Y-41620000D02*
X87250000Y-35620000D01*
X87310000Y-41620000D02*
X87310000Y-35620000D01*
X87430000Y-41620000D02*
X87430000Y-35620000D01*
X87550000Y-41620000D02*
X87550000Y-35620000D01*
X87670000Y-41620000D02*
X87670000Y-35620000D01*
X87790000Y-41620000D02*
X87790000Y-35620000D01*
X87910000Y-41620000D02*
X87910000Y-35620000D01*
X89790000Y-41620000D02*
X89790000Y-35620000D01*
X92330000Y-41620000D02*
X92330000Y-35620000D01*
X94870000Y-41620000D02*
X94870000Y-35620000D01*
X97410000Y-41620000D02*
X97410000Y-35620000D01*
X99120000Y-41620000D02*
X86300000Y-41620000D01*
X87250000Y-35620000D02*
X88010000Y-35620000D01*
X88010000Y-35620000D02*
X88010000Y-41620000D01*
X89790000Y-35620000D02*
X90550000Y-35620000D01*
X90550000Y-35620000D02*
X90550000Y-41620000D01*
X92330000Y-35620000D02*
X93090000Y-35620000D01*
X93090000Y-35620000D02*
X93090000Y-41620000D01*
X94870000Y-35620000D02*
X95630000Y-35620000D01*
X95630000Y-35620000D02*
X95630000Y-41620000D01*
X97410000Y-35620000D02*
X98170000Y-35620000D01*
X98170000Y-35620000D02*
X98170000Y-41620000D01*
%TO.C,SW5*%
X104350000Y-97520000D02*
X104350000Y-95520000D01*
X103350000Y-98820000D02*
X102900000Y-99270000D01*
X103350000Y-94220000D02*
X102900000Y-93770000D01*
X102900000Y-99270000D02*
X100300000Y-99270000D01*
X102900000Y-93770000D02*
X100300000Y-93770000D01*
X99850000Y-98820000D02*
X100300000Y-99270000D01*
X99850000Y-94220000D02*
X100300000Y-93770000D01*
X98850000Y-97520000D02*
X98850000Y-95520000D01*
%TO.C,R6*%
X131495436Y-49430000D02*
X131949564Y-49430000D01*
X131495436Y-50900000D02*
X131949564Y-50900000D01*
%TO.C,D4*%
X89755000Y-71430000D02*
X89755000Y-73350000D01*
X89755000Y-73350000D02*
X92440000Y-73350000D01*
X92440000Y-71430000D02*
X89755000Y-71430000D01*
%TO.C,R2*%
X60375436Y-49430000D02*
X60829564Y-49430000D01*
X60375436Y-50900000D02*
X60829564Y-50900000D01*
%TO.C,J6*%
X121920000Y-46990000D02*
X121920000Y-45720000D01*
X123190000Y-46990000D02*
X121920000Y-46990000D01*
X125350000Y-44677071D02*
X125350000Y-44280000D01*
X126110000Y-44677071D02*
X126110000Y-44280000D01*
X127890000Y-44677071D02*
X127890000Y-44280000D01*
X128650000Y-44677071D02*
X128650000Y-44280000D01*
X130430000Y-44677071D02*
X130430000Y-44280000D01*
X131190000Y-44677071D02*
X131190000Y-44280000D01*
X132970000Y-44677071D02*
X132970000Y-44280000D01*
X133730000Y-44677071D02*
X133730000Y-44280000D01*
X122810000Y-44610000D02*
X122810000Y-44280000D01*
X123570000Y-44610000D02*
X123570000Y-44280000D01*
X121860000Y-44280000D02*
X134680000Y-44280000D01*
X124460000Y-44280000D02*
X124460000Y-41620000D01*
X127000000Y-44280000D02*
X127000000Y-41620000D01*
X129540000Y-44280000D02*
X129540000Y-41620000D01*
X132080000Y-44280000D02*
X132080000Y-41620000D01*
X134680000Y-44280000D02*
X134680000Y-41620000D01*
X121860000Y-41620000D02*
X121860000Y-44280000D01*
X122810000Y-41620000D02*
X122810000Y-35620000D01*
X122870000Y-41620000D02*
X122870000Y-35620000D01*
X122990000Y-41620000D02*
X122990000Y-35620000D01*
X123110000Y-41620000D02*
X123110000Y-35620000D01*
X123230000Y-41620000D02*
X123230000Y-35620000D01*
X123350000Y-41620000D02*
X123350000Y-35620000D01*
X123470000Y-41620000D02*
X123470000Y-35620000D01*
X125350000Y-41620000D02*
X125350000Y-35620000D01*
X127890000Y-41620000D02*
X127890000Y-35620000D01*
X130430000Y-41620000D02*
X130430000Y-35620000D01*
X132970000Y-41620000D02*
X132970000Y-35620000D01*
X134680000Y-41620000D02*
X121860000Y-41620000D01*
X122810000Y-35620000D02*
X123570000Y-35620000D01*
X123570000Y-35620000D02*
X123570000Y-41620000D01*
X125350000Y-35620000D02*
X126110000Y-35620000D01*
X126110000Y-35620000D02*
X126110000Y-41620000D01*
X127890000Y-35620000D02*
X128650000Y-35620000D01*
X128650000Y-35620000D02*
X128650000Y-41620000D01*
X130430000Y-35620000D02*
X131190000Y-35620000D01*
X131190000Y-35620000D02*
X131190000Y-41620000D01*
X132970000Y-35620000D02*
X133730000Y-35620000D01*
X133730000Y-35620000D02*
X133730000Y-41620000D01*
%TO.C,R4*%
X95935436Y-49430000D02*
X96389564Y-49430000D01*
X95935436Y-50900000D02*
X96389564Y-50900000D01*
%TO.C,D13*%
X136110000Y-75240000D02*
X136110000Y-77160000D01*
X136110000Y-77160000D02*
X138795000Y-77160000D01*
X138795000Y-75240000D02*
X136110000Y-75240000D01*
%TO.C,D10*%
X89755000Y-94290000D02*
X89755000Y-96210000D01*
X89755000Y-96210000D02*
X92440000Y-96210000D01*
X92440000Y-94290000D02*
X89755000Y-94290000D01*
%TO.C,D2*%
X71975000Y-65080000D02*
X71975000Y-67000000D01*
X71975000Y-67000000D02*
X74660000Y-67000000D01*
X74660000Y-65080000D02*
X71975000Y-65080000D01*
%TO.C,J7*%
X139700000Y-46990000D02*
X139700000Y-45720000D01*
X140970000Y-46990000D02*
X139700000Y-46990000D01*
X143130000Y-44677071D02*
X143130000Y-44280000D01*
X143890000Y-44677071D02*
X143890000Y-44280000D01*
X145670000Y-44677071D02*
X145670000Y-44280000D01*
X146430000Y-44677071D02*
X146430000Y-44280000D01*
X148210000Y-44677071D02*
X148210000Y-44280000D01*
X148970000Y-44677071D02*
X148970000Y-44280000D01*
X150750000Y-44677071D02*
X150750000Y-44280000D01*
X151510000Y-44677071D02*
X151510000Y-44280000D01*
X140590000Y-44610000D02*
X140590000Y-44280000D01*
X141350000Y-44610000D02*
X141350000Y-44280000D01*
X139640000Y-44280000D02*
X152460000Y-44280000D01*
X142240000Y-44280000D02*
X142240000Y-41620000D01*
X144780000Y-44280000D02*
X144780000Y-41620000D01*
X147320000Y-44280000D02*
X147320000Y-41620000D01*
X149860000Y-44280000D02*
X149860000Y-41620000D01*
X152460000Y-44280000D02*
X152460000Y-41620000D01*
X139640000Y-41620000D02*
X139640000Y-44280000D01*
X140590000Y-41620000D02*
X140590000Y-35620000D01*
X140650000Y-41620000D02*
X140650000Y-35620000D01*
X140770000Y-41620000D02*
X140770000Y-35620000D01*
X140890000Y-41620000D02*
X140890000Y-35620000D01*
X141010000Y-41620000D02*
X141010000Y-35620000D01*
X141130000Y-41620000D02*
X141130000Y-35620000D01*
X141250000Y-41620000D02*
X141250000Y-35620000D01*
X143130000Y-41620000D02*
X143130000Y-35620000D01*
X145670000Y-41620000D02*
X145670000Y-35620000D01*
X148210000Y-41620000D02*
X148210000Y-35620000D01*
X150750000Y-41620000D02*
X150750000Y-35620000D01*
X152460000Y-41620000D02*
X139640000Y-41620000D01*
X140590000Y-35620000D02*
X141350000Y-35620000D01*
X141350000Y-35620000D02*
X141350000Y-41620000D01*
X143130000Y-35620000D02*
X143890000Y-35620000D01*
X143890000Y-35620000D02*
X143890000Y-41620000D01*
X145670000Y-35620000D02*
X146430000Y-35620000D01*
X146430000Y-35620000D02*
X146430000Y-41620000D01*
X148210000Y-35620000D02*
X148970000Y-35620000D01*
X148970000Y-35620000D02*
X148970000Y-41620000D01*
X150750000Y-35620000D02*
X151510000Y-35620000D01*
X151510000Y-35620000D02*
X151510000Y-41620000D01*
%TO.C,D5*%
X102455000Y-73970000D02*
X102455000Y-75890000D01*
X102455000Y-75890000D02*
X105140000Y-75890000D01*
X105140000Y-73970000D02*
X102455000Y-73970000D01*
%TO.C,D12*%
X102455000Y-87940000D02*
X102455000Y-89860000D01*
X102455000Y-89860000D02*
X105140000Y-89860000D01*
X105140000Y-87940000D02*
X102455000Y-87940000D01*
%TO.C,SW6*%
X117685000Y-90535000D02*
X117685000Y-88535000D01*
X116685000Y-91835000D02*
X116235000Y-92285000D01*
X116685000Y-87235000D02*
X116235000Y-86785000D01*
X116235000Y-92285000D02*
X113635000Y-92285000D01*
X116235000Y-86785000D02*
X113635000Y-86785000D01*
X113185000Y-91835000D02*
X113635000Y-92285000D01*
X113185000Y-87235000D02*
X113635000Y-86785000D01*
X112185000Y-90535000D02*
X112185000Y-88535000D01*
%TO.C,D7*%
X71975000Y-96830000D02*
X71975000Y-98750000D01*
X71975000Y-98750000D02*
X74660000Y-98750000D01*
X74660000Y-96830000D02*
X71975000Y-96830000D01*
%TO.C,D6*%
X102455000Y-77780000D02*
X102455000Y-79700000D01*
X102455000Y-79700000D02*
X105140000Y-79700000D01*
X105140000Y-77780000D02*
X102455000Y-77780000D01*
%TO.C,D8*%
X71975000Y-103180000D02*
X71975000Y-105100000D01*
X71975000Y-105100000D02*
X74660000Y-105100000D01*
X74660000Y-103180000D02*
X71975000Y-103180000D01*
%TO.C,J2*%
X50800000Y-46990000D02*
X50800000Y-45720000D01*
X52070000Y-46990000D02*
X50800000Y-46990000D01*
X54230000Y-44677071D02*
X54230000Y-44280000D01*
X54990000Y-44677071D02*
X54990000Y-44280000D01*
X56770000Y-44677071D02*
X56770000Y-44280000D01*
X57530000Y-44677071D02*
X57530000Y-44280000D01*
X59310000Y-44677071D02*
X59310000Y-44280000D01*
X60070000Y-44677071D02*
X60070000Y-44280000D01*
X61850000Y-44677071D02*
X61850000Y-44280000D01*
X62610000Y-44677071D02*
X62610000Y-44280000D01*
X51690000Y-44610000D02*
X51690000Y-44280000D01*
X52450000Y-44610000D02*
X52450000Y-44280000D01*
X50740000Y-44280000D02*
X63560000Y-44280000D01*
X53340000Y-44280000D02*
X53340000Y-41620000D01*
X55880000Y-44280000D02*
X55880000Y-41620000D01*
X58420000Y-44280000D02*
X58420000Y-41620000D01*
X60960000Y-44280000D02*
X60960000Y-41620000D01*
X63560000Y-44280000D02*
X63560000Y-41620000D01*
X50740000Y-41620000D02*
X50740000Y-44280000D01*
X51690000Y-41620000D02*
X51690000Y-35620000D01*
X51750000Y-41620000D02*
X51750000Y-35620000D01*
X51870000Y-41620000D02*
X51870000Y-35620000D01*
X51990000Y-41620000D02*
X51990000Y-35620000D01*
X52110000Y-41620000D02*
X52110000Y-35620000D01*
X52230000Y-41620000D02*
X52230000Y-35620000D01*
X52350000Y-41620000D02*
X52350000Y-35620000D01*
X54230000Y-41620000D02*
X54230000Y-35620000D01*
X56770000Y-41620000D02*
X56770000Y-35620000D01*
X59310000Y-41620000D02*
X59310000Y-35620000D01*
X61850000Y-41620000D02*
X61850000Y-35620000D01*
X63560000Y-41620000D02*
X50740000Y-41620000D01*
X51690000Y-35620000D02*
X52450000Y-35620000D01*
X52450000Y-35620000D02*
X52450000Y-41620000D01*
X54230000Y-35620000D02*
X54990000Y-35620000D01*
X54990000Y-35620000D02*
X54990000Y-41620000D01*
X56770000Y-35620000D02*
X57530000Y-35620000D01*
X57530000Y-35620000D02*
X57530000Y-41620000D01*
X59310000Y-35620000D02*
X60070000Y-35620000D01*
X60070000Y-35620000D02*
X60070000Y-41620000D01*
X61850000Y-35620000D02*
X62610000Y-35620000D01*
X62610000Y-35620000D02*
X62610000Y-41620000D01*
%TO.C,D1*%
X71975000Y-58730000D02*
X71975000Y-60650000D01*
X71975000Y-60650000D02*
X74660000Y-60650000D01*
X74660000Y-58730000D02*
X71975000Y-58730000D01*
%TO.C,D11*%
X102455000Y-84130000D02*
X102455000Y-86050000D01*
X102455000Y-86050000D02*
X105140000Y-86050000D01*
X105140000Y-84130000D02*
X102455000Y-84130000D01*
%TO.C,D14*%
X136110000Y-80955000D02*
X136110000Y-82875000D01*
X136110000Y-82875000D02*
X138795000Y-82875000D01*
X138795000Y-80955000D02*
X136110000Y-80955000D01*
%TO.C,SW3*%
X112185000Y-73295000D02*
X112185000Y-75295000D01*
X113185000Y-71995000D02*
X113635000Y-71545000D01*
X113185000Y-76595000D02*
X113635000Y-77045000D01*
X113635000Y-71545000D02*
X116235000Y-71545000D01*
X113635000Y-77045000D02*
X116235000Y-77045000D01*
X116685000Y-71995000D02*
X116235000Y-71545000D01*
X116685000Y-76595000D02*
X116235000Y-77045000D01*
X117685000Y-73295000D02*
X117685000Y-75295000D01*
%TO.C,SW2*%
X98850000Y-66310000D02*
X98850000Y-68310000D01*
X99850000Y-65010000D02*
X100300000Y-64560000D01*
X99850000Y-69610000D02*
X100300000Y-70060000D01*
X100300000Y-64560000D02*
X102900000Y-64560000D01*
X100300000Y-70060000D02*
X102900000Y-70060000D01*
X103350000Y-65010000D02*
X102900000Y-64560000D01*
X103350000Y-69610000D02*
X102900000Y-70060000D01*
X104350000Y-66310000D02*
X104350000Y-68310000D01*
%TO.C,J3*%
X68580000Y-46990000D02*
X68580000Y-45720000D01*
X69850000Y-46990000D02*
X68580000Y-46990000D01*
X72010000Y-44677071D02*
X72010000Y-44280000D01*
X72770000Y-44677071D02*
X72770000Y-44280000D01*
X74550000Y-44677071D02*
X74550000Y-44280000D01*
X75310000Y-44677071D02*
X75310000Y-44280000D01*
X77090000Y-44677071D02*
X77090000Y-44280000D01*
X77850000Y-44677071D02*
X77850000Y-44280000D01*
X79630000Y-44677071D02*
X79630000Y-44280000D01*
X80390000Y-44677071D02*
X80390000Y-44280000D01*
X69470000Y-44610000D02*
X69470000Y-44280000D01*
X70230000Y-44610000D02*
X70230000Y-44280000D01*
X68520000Y-44280000D02*
X81340000Y-44280000D01*
X71120000Y-44280000D02*
X71120000Y-41620000D01*
X73660000Y-44280000D02*
X73660000Y-41620000D01*
X76200000Y-44280000D02*
X76200000Y-41620000D01*
X78740000Y-44280000D02*
X78740000Y-41620000D01*
X81340000Y-44280000D02*
X81340000Y-41620000D01*
X68520000Y-41620000D02*
X68520000Y-44280000D01*
X69470000Y-41620000D02*
X69470000Y-35620000D01*
X69530000Y-41620000D02*
X69530000Y-35620000D01*
X69650000Y-41620000D02*
X69650000Y-35620000D01*
X69770000Y-41620000D02*
X69770000Y-35620000D01*
X69890000Y-41620000D02*
X69890000Y-35620000D01*
X70010000Y-41620000D02*
X70010000Y-35620000D01*
X70130000Y-41620000D02*
X70130000Y-35620000D01*
X72010000Y-41620000D02*
X72010000Y-35620000D01*
X74550000Y-41620000D02*
X74550000Y-35620000D01*
X77090000Y-41620000D02*
X77090000Y-35620000D01*
X79630000Y-41620000D02*
X79630000Y-35620000D01*
X81340000Y-41620000D02*
X68520000Y-41620000D01*
X69470000Y-35620000D02*
X70230000Y-35620000D01*
X70230000Y-35620000D02*
X70230000Y-41620000D01*
X72010000Y-35620000D02*
X72770000Y-35620000D01*
X72770000Y-35620000D02*
X72770000Y-41620000D01*
X74550000Y-35620000D02*
X75310000Y-35620000D01*
X75310000Y-35620000D02*
X75310000Y-41620000D01*
X77090000Y-35620000D02*
X77850000Y-35620000D01*
X77850000Y-35620000D02*
X77850000Y-41620000D01*
X79630000Y-35620000D02*
X80390000Y-35620000D01*
X80390000Y-35620000D02*
X80390000Y-41620000D01*
%TD*%
M02*
